<?xml version="1.0" encoding="UTF-8" standalone="no"?>
<!-- Created with Inkscape (http://www.inkscape.org/) -->

<svg
   width="206.32138mm"
   height="247.00446mm"
   viewBox="0 0 779.79737 933.56016"
   version="1.1"
   id="svg1"
   xml:space="preserve"
   inkscape:version="1.3.2 (091e20ef0f, 2023-11-25, custom)"
   sodipodi:docname="lateral_subcritica2.svg"
   xmlns:inkscape="http://www.inkscape.org/namespaces/inkscape"
   xmlns:sodipodi="http://sodipodi.sourceforge.net/DTD/sodipodi-0.dtd"
   xmlns="http://www.w3.org/2000/svg"
   xmlns:svg="http://www.w3.org/2000/svg"><sodipodi:namedview
     id="namedview1"
     pagecolor="#505050"
     bordercolor="#ffffff"
     borderopacity="1"
     inkscape:showpageshadow="0"
     inkscape:pageopacity="0"
     inkscape:pagecheckerboard="1"
     inkscape:deskcolor="#505050"
     inkscape:document-units="mm"
     inkscape:zoom="0.75366162"
     inkscape:cx="360.90467"
     inkscape:cy="463.07254"
     inkscape:window-width="1876"
     inkscape:window-height="1050"
     inkscape:window-x="44"
     inkscape:window-y="0"
     inkscape:window-maximized="1"
     inkscape:current-layer="layer1" /><defs
     id="defs1" /><g
     inkscape:label="Camada 1"
     inkscape:groupmode="layer"
     id="layer1"
     transform="translate(-7.4944067,-94.479683)"><rect
       style="opacity:1;fill:#ffc0cb;fill-opacity:1;stroke-width:0.9745"
       id="rect1"
       width="779.7959"
       height="933.55847"
       x="7.4944067"
       y="94.479683" /><g
       id="g1"><path
         style="fill:#fefe00"
         d="m 138.4125,808.79051 v -56.1509 h 1.92203 1.92204 v 56.1509 56.1509 h -1.92204 -1.92203 z m 11.91662,0 v -56.1509 h 1.92204 1.92203 v 56.1509 56.1509 h -1.92203 -1.92204 z m 15.98036,0 v -56.1509 h 1.92203 1.92204 v 56.1509 56.1509 h -1.92204 -1.92203 z m 11.91662,0 v -56.1509 h 1.92203 1.92204 v 56.1509 56.1509 h -1.92204 -1.92203 z m 15.98035,0 v -56.1509 h 1.92204 1.92203 v 56.1509 56.1509 h -1.92203 -1.92204 z m 11.91662,0 v -56.1509 h 1.92204 1.92203 v 56.1509 56.1509 h -1.92203 -1.92204 z m 15.98036,0 v -56.1509 h 1.92203 1.92204 v 56.1509 56.1509 h -1.92204 -1.92203 z m 11.91662,0 v -56.1509 h 1.92203 1.92204 v 56.1509 56.1509 h -1.92204 -1.92203 z m 15.98035,0 v -56.1509 h 1.92204 1.92204 v 56.1509 56.1509 h -1.92204 -1.92204 z m 11.91663,0 v -56.1509 h 1.92203 1.92204 v 56.1509 56.1509 h -1.92204 -1.92203 z m 15.98035,0 v -56.1509 h 1.92204 1.92203 v 56.1509 56.1509 h -1.92203 -1.92204 z m 11.91662,0 v -56.1509 h 1.92204 1.92203 v 56.1509 56.1509 h -1.92203 -1.92204 z m 15.98036,0 v -56.1509 h 1.92203 1.92204 v 56.1509 56.1509 h -1.92204 -1.92203 z m 11.91662,0 v -56.1509 h 1.92203 1.92204 v 56.1509 56.1509 h -1.92204 -1.92203 z m 15.98035,0 v -56.1509 h 1.92204 1.92203 v 56.1509 56.1509 h -1.92203 -1.92204 z m 11.91662,0 v -56.1509 h 1.92204 1.92204 v 56.1509 56.1509 h -1.92204 -1.92204 z m 15.98036,0 v -56.1509 h 1.92203 1.92204 v 56.1509 56.1509 h -1.92204 -1.92203 z m 11.91662,0 v -56.1509 h 1.92204 1.92203 v 56.1509 56.1509 h -1.92203 -1.92204 z m 43.87733,0 v -56.1509 h 1.92204 1.92203 v 56.1509 56.1509 h -1.92203 -1.92204 z m 11.91662,0 v -56.1509 h 1.92204 1.92203 v 56.1509 56.1509 h -1.92203 -1.92204 z m 15.98036,0 v -56.1509 h 1.92203 1.92204 v 56.1509 56.1509 h -1.92204 -1.92203 z m 11.91662,0 v -56.1509 h 1.92203 1.92204 v 56.1509 56.1509 h -1.92204 -1.92203 z m 15.98035,0 v -56.1509 h 1.92204 1.92203 v 56.1509 56.1509 h -1.92203 -1.92204 z m 11.91662,0 v -56.1509 h 1.92204 1.92204 v 56.1509 56.1509 h -1.92204 -1.92204 z m 15.98036,0 v -56.1509 h 1.92203 1.92204 v 56.1509 56.1509 h -1.92204 -1.92203 z m 11.91662,0 v -56.1509 h 1.92204 1.92203 v 56.1509 56.1509 h -1.92203 -1.92204 z m 15.98035,0 v -56.1509 h 1.92204 1.92204 v 56.1509 56.1509 h -1.92204 -1.92204 z m 11.91663,0 v -56.1509 h 1.92203 1.92204 v 56.1509 56.1509 h -1.92204 -1.92203 z m 15.98035,0 v -56.1509 h 1.92204 1.92203 v 56.1509 56.1509 h -1.92203 -1.92204 z m 11.91662,0 v -56.1509 h 1.92204 1.92203 v 56.1509 56.1509 h -1.92203 -1.92204 z m 15.98036,0 v -56.1509 h 1.92203 1.92204 v 56.1509 56.1509 h -1.92204 -1.92203 z m 11.91662,0 v -56.1509 h 1.92203 1.92204 v 56.1509 56.1509 h -1.92204 -1.92203 z m 15.98035,0 v -56.1509 h 1.92204 1.92203 v 56.1509 56.1509 h -1.92203 -1.92204 z m 11.91662,0 v -56.1509 h 1.92204 1.92204 v 56.1509 56.1509 h -1.92204 -1.92204 z m 15.98036,0 v -56.1509 h 1.92203 1.92204 v 56.1509 56.1509 h -1.92204 -1.92203 z m 11.91662,0 v -56.1509 h 1.92204 1.92203 v 56.1509 56.1509 h -1.92203 -1.92204 z M 138.4125,690.99718 v -56.1509 h 1.92203 1.92204 v 56.1509 56.1509 h -1.92204 -1.92203 z m 11.91662,0 v -56.1509 h 1.92204 1.92203 v 56.1509 56.1509 h -1.92203 -1.92204 z m 15.98036,0 v -56.1509 h 1.92203 1.92204 v 56.1509 56.1509 h -1.92204 -1.92203 z m 11.91662,0 v -56.1509 h 1.92203 1.92204 v 56.1509 56.1509 h -1.92204 -1.92203 z m 15.98035,0 v -56.1509 h 1.92204 1.92203 v 56.1509 56.1509 h -1.92203 -1.92204 z m 11.91662,0 v -56.1509 h 1.92204 1.92203 v 56.1509 56.1509 h -1.92203 -1.92204 z m 15.98036,0 v -56.1509 h 1.92203 1.92204 v 56.1509 56.1509 h -1.92204 -1.92203 z m 11.91662,0 v -56.1509 h 1.92203 1.92204 v 56.1509 56.1509 h -1.92204 -1.92203 z m 15.98035,0 v -56.1509 h 1.92204 1.92204 v 56.1509 56.1509 h -1.92204 -1.92204 z m 11.91663,0 v -56.1509 h 1.92203 1.92204 v 56.1509 56.1509 h -1.92204 -1.92203 z m 15.98035,0 v -56.1509 h 1.92204 1.92203 v 56.1509 56.1509 h -1.92203 -1.92204 z m 11.91662,0 v -56.1509 h 1.92204 1.92203 v 56.1509 56.1509 h -1.92203 -1.92204 z m 15.98036,0 v -56.1509 h 1.92203 1.92204 v 56.1509 56.1509 h -1.92204 -1.92203 z m 11.91662,0 v -56.1509 h 1.92203 1.92204 v 56.1509 56.1509 h -1.92204 -1.92203 z m 15.98035,0 v -56.1509 h 1.92204 1.92203 v 56.1509 56.1509 h -1.92203 -1.92204 z m 11.91662,0 v -56.1509 h 1.92204 1.92204 v 56.1509 56.1509 h -1.92204 -1.92204 z m 15.98036,0 v -56.1509 h 1.92203 1.92204 v 56.1509 56.1509 h -1.92204 -1.92203 z m 11.91662,0 v -56.1509 h 1.92204 1.92203 v 56.1509 56.1509 h -1.92203 -1.92204 z m 43.87733,0 v -56.1509 h 1.92204 1.92203 v 56.1509 56.1509 h -1.92203 -1.92204 z m 11.91662,0 v -56.1509 h 1.92204 1.92203 v 56.1509 56.1509 h -1.92203 -1.92204 z m 15.98036,0 v -56.1509 h 1.92203 1.92204 v 56.1509 56.1509 h -1.92204 -1.92203 z m 11.91662,0 v -56.1509 h 1.92203 1.92204 v 56.1509 56.1509 h -1.92204 -1.92203 z m 15.98035,0 v -56.1509 h 1.92204 1.92203 v 56.1509 56.1509 h -1.92203 -1.92204 z m 11.91662,0 v -56.1509 h 1.92204 1.92204 v 56.1509 56.1509 h -1.92204 -1.92204 z m 15.98036,0 v -56.1509 h 1.92203 1.92204 v 56.1509 56.1509 h -1.92204 -1.92203 z m 11.91662,0 v -56.1509 h 1.92204 1.92203 v 56.1509 56.1509 h -1.92203 -1.92204 z m 15.98035,0 v -56.1509 h 1.92204 1.92204 v 56.1509 56.1509 h -1.92204 -1.92204 z m 11.91663,0 v -56.1509 h 1.92203 1.92204 v 56.1509 56.1509 h -1.92204 -1.92203 z m 15.98035,0 v -56.1509 h 1.92204 1.92203 v 56.1509 56.1509 h -1.92203 -1.92204 z m 11.91662,0 v -56.1509 h 1.92204 1.92203 v 56.1509 56.1509 h -1.92203 -1.92204 z m 15.98036,0 v -56.1509 h 1.92203 1.92204 v 56.1509 56.1509 h -1.92204 -1.92203 z m 11.91662,0 v -56.1509 h 1.92203 1.92204 v 56.1509 56.1509 h -1.92204 -1.92203 z m 15.98035,0 v -56.1509 h 1.92204 1.92203 v 56.1509 56.1509 h -1.92203 -1.92204 z m 11.91662,0 v -56.1509 h 1.92204 1.92204 v 56.1509 56.1509 h -1.92204 -1.92204 z m 15.98036,0 v -56.1509 h 1.92203 1.92204 v 56.1509 56.1509 h -1.92204 -1.92203 z m 11.91662,0 v -56.1509 h 1.92204 1.92203 v 56.1509 56.1509 h -1.92203 -1.92204 z M 138.4125,573.20385 v -56.1509 h 1.92203 1.92204 v 56.1509 56.1509 h -1.92204 -1.92203 z m 11.91662,0 v -56.1509 h 1.92204 1.92203 v 56.1509 56.1509 h -1.92203 -1.92204 z m 15.98036,0 v -56.1509 h 1.92203 1.92204 v 56.1509 56.1509 h -1.92204 -1.92203 z m 11.91662,0 v -56.1509 h 1.92203 1.92204 v 56.1509 56.1509 h -1.92204 -1.92203 z m 15.98035,0 v -56.1509 h 1.92204 1.92203 v 56.1509 56.1509 h -1.92203 -1.92204 z m 11.91662,0 v -56.1509 h 1.92204 1.92203 v 56.1509 56.1509 h -1.92203 -1.92204 z m 15.98036,0 v -56.1509 h 1.92203 1.92204 v 56.1509 56.1509 h -1.92204 -1.92203 z m 11.91662,0 v -56.1509 h 1.92203 1.92204 v 56.1509 56.1509 h -1.92204 -1.92203 z m 15.98035,0 v -56.1509 h 1.92204 1.92204 v 56.1509 56.1509 h -1.92204 -1.92204 z m 11.91663,0 v -56.1509 h 1.92203 1.92204 v 56.1509 56.1509 h -1.92204 -1.92203 z m 15.98035,0 v -56.1509 h 1.92204 1.92203 v 56.1509 56.1509 h -1.92203 -1.92204 z m 11.91662,0 v -56.1509 h 1.92204 1.92203 v 56.1509 56.1509 h -1.92203 -1.92204 z m 15.98036,0 v -56.1509 h 1.92203 1.92204 v 56.1509 56.1509 h -1.92204 -1.92203 z m 11.91662,0 v -56.1509 h 1.92203 1.92204 v 56.1509 56.1509 h -1.92204 -1.92203 z m 15.98035,0 v -56.1509 h 1.92204 1.92203 v 56.1509 56.1509 h -1.92203 -1.92204 z m 11.91662,0 v -56.1509 h 1.92204 1.92204 v 56.1509 56.1509 h -1.92204 -1.92204 z m 15.98036,0 v -56.1509 h 1.92203 1.92204 v 56.1509 56.1509 h -1.92204 -1.92203 z m 11.91662,0 v -56.1509 h 1.92204 1.92203 v 56.1509 56.1509 h -1.92203 -1.92204 z m 43.87733,0 v -56.1509 h 1.92204 1.92203 v 56.1509 56.1509 h -1.92203 -1.92204 z m 11.91662,0 v -56.1509 h 1.92204 1.92203 v 56.1509 56.1509 h -1.92203 -1.92204 z m 15.98036,0 v -56.1509 h 1.92203 1.92204 v 56.1509 56.1509 h -1.92204 -1.92203 z m 11.91662,0 v -56.1509 h 1.92203 1.92204 v 56.1509 56.1509 h -1.92204 -1.92203 z m 15.98035,0 v -56.1509 h 1.92204 1.92203 v 56.1509 56.1509 h -1.92203 -1.92204 z m 11.91662,0 v -56.1509 h 1.92204 1.92204 v 56.1509 56.1509 h -1.92204 -1.92204 z m 15.98036,0 v -56.1509 h 1.92203 1.92204 v 56.1509 56.1509 h -1.92204 -1.92203 z m 11.91662,0 v -56.1509 h 1.92204 1.92203 v 56.1509 56.1509 h -1.92203 -1.92204 z m 15.98035,0 v -56.1509 h 1.92204 1.92204 v 56.1509 56.1509 h -1.92204 -1.92204 z m 11.91663,0 v -56.1509 h 1.92203 1.92204 v 56.1509 56.1509 h -1.92204 -1.92203 z m 15.98035,0 v -56.1509 h 1.92204 1.92203 v 56.1509 56.1509 h -1.92203 -1.92204 z m 11.91662,0 v -56.1509 h 1.92204 1.92203 v 56.1509 56.1509 h -1.92203 -1.92204 z m 15.98036,0 v -56.1509 h 1.92203 1.92204 v 56.1509 56.1509 h -1.92204 -1.92203 z m 11.91662,0 v -56.1509 h 1.92203 1.92204 v 56.1509 56.1509 h -1.92204 -1.92203 z m 15.98035,0 v -56.1509 h 1.92204 1.92203 v 56.1509 56.1509 h -1.92203 -1.92204 z m 11.91662,0 v -56.1509 h 1.92204 1.92204 v 56.1509 56.1509 h -1.92204 -1.92204 z m 15.98036,0 v -56.1509 h 1.92203 1.92204 v 56.1509 56.1509 h -1.92204 -1.92203 z m 11.91662,0 v -56.1509 h 1.92204 1.92203 v 56.1509 56.1509 h -1.92203 -1.92204 z M 138.4125,455.41052 v -56.1509 h 1.92203 1.92204 v 56.1509 56.1509 h -1.92204 -1.92203 z m 11.91662,0 v -56.1509 h 1.92204 1.92203 v 56.1509 56.1509 h -1.92203 -1.92204 z m 15.98036,0 v -56.1509 h 1.92203 1.92204 v 56.1509 56.1509 h -1.92204 -1.92203 z m 11.91662,0 v -56.1509 h 1.92203 1.92204 v 56.1509 56.1509 h -1.92204 -1.92203 z m 15.98035,0 v -56.1509 h 1.92204 1.92203 v 56.1509 56.1509 h -1.92203 -1.92204 z m 11.91662,0 v -56.1509 h 1.92204 1.92203 v 56.1509 56.1509 h -1.92203 -1.92204 z m 15.98036,0 v -56.1509 h 1.92203 1.92204 v 56.1509 56.1509 h -1.92204 -1.92203 z m 11.91662,0 v -56.1509 h 1.92203 1.92204 v 56.1509 56.1509 h -1.92204 -1.92203 z m 15.98035,0 v -56.1509 h 1.92204 1.92204 v 56.1509 56.1509 h -1.92204 -1.92204 z m 11.91663,0 v -56.1509 h 1.92203 1.92204 v 56.1509 56.1509 h -1.92204 -1.92203 z m 15.98035,0 v -56.1509 h 1.92204 1.92203 v 56.1509 56.1509 h -1.92203 -1.92204 z m 11.91662,0 v -56.1509 h 1.92204 1.92203 v 56.1509 56.1509 h -1.92203 -1.92204 z m 15.98036,0 v -56.1509 h 1.92203 1.92204 v 56.1509 56.1509 h -1.92204 -1.92203 z m 11.91662,0 v -56.1509 h 1.92203 1.92204 v 56.1509 56.1509 h -1.92204 -1.92203 z m 15.98035,0 v -56.1509 h 1.92204 1.92203 v 56.1509 56.1509 h -1.92203 -1.92204 z m 11.91662,0 v -56.1509 h 1.92204 1.92204 v 56.1509 56.1509 h -1.92204 -1.92204 z m 15.98036,0 v -56.1509 h 1.92203 1.92204 v 56.1509 56.1509 h -1.92204 -1.92203 z m 11.91662,0 v -56.1509 h 1.92204 1.92203 v 56.1509 56.1509 h -1.92203 -1.92204 z m 43.87733,0 v -56.1509 h 1.92204 1.92203 v 56.1509 56.1509 h -1.92203 -1.92204 z m 11.91662,0 v -56.1509 h 1.92204 1.92203 v 56.1509 56.1509 h -1.92203 -1.92204 z m 15.98036,0 v -56.1509 h 1.92203 1.92204 v 56.1509 56.1509 h -1.92204 -1.92203 z m 11.91662,0 v -56.1509 h 1.92203 1.92204 v 56.1509 56.1509 h -1.92204 -1.92203 z m 15.98035,0 v -56.1509 h 1.92204 1.92203 v 56.1509 56.1509 h -1.92203 -1.92204 z m 11.91662,0 v -56.1509 h 1.92204 1.92204 v 56.1509 56.1509 h -1.92204 -1.92204 z m 15.98036,0 v -56.1509 h 1.92203 1.92204 v 56.1509 56.1509 h -1.92204 -1.92203 z m 11.91662,0 v -56.1509 h 1.92204 1.92203 v 56.1509 56.1509 h -1.92203 -1.92204 z m 15.98035,0 v -56.1509 h 1.92204 1.92204 v 56.1509 56.1509 h -1.92204 -1.92204 z m 11.91663,0 v -56.1509 h 1.92203 1.92204 v 56.1509 56.1509 h -1.92204 -1.92203 z m 15.98035,0 v -56.1509 h 1.92204 1.92203 v 56.1509 56.1509 h -1.92203 -1.92204 z m 11.91662,0 v -56.1509 h 1.92204 1.92203 v 56.1509 56.1509 h -1.92203 -1.92204 z m 15.98036,0 v -56.1509 h 1.92203 1.92204 v 56.1509 56.1509 h -1.92204 -1.92203 z m 11.91662,0 v -56.1509 h 1.92203 1.92204 v 56.1509 56.1509 h -1.92204 -1.92203 z m 15.98035,0 v -56.1509 h 1.92204 1.92203 v 56.1509 56.1509 h -1.92203 -1.92204 z m 11.91662,0 v -56.1509 h 1.92204 1.92204 v 56.1509 56.1509 h -1.92204 -1.92204 z m 15.98036,0 v -56.1509 h 1.92203 1.92204 v 56.1509 56.1509 h -1.92204 -1.92203 z m 11.91662,0 v -56.1509 h 1.92204 1.92203 v 56.1509 56.1509 h -1.92203 -1.92204 z M 138.4125,337.61719 V 281.4663 h 1.92203 1.92204 v 56.15089 56.1509 h -1.92204 -1.92203 z m 11.91662,0 V 281.4663 h 1.92204 1.92203 v 56.15089 56.1509 h -1.92203 -1.92204 z m 15.98036,0 V 281.4663 h 1.92203 1.92204 v 56.15089 56.1509 h -1.92204 -1.92203 z m 11.91662,0 V 281.4663 h 1.92203 1.92204 v 56.15089 56.1509 h -1.92204 -1.92203 z m 15.98035,0 V 281.4663 h 1.92204 1.92203 v 56.15089 56.1509 h -1.92203 -1.92204 z m 11.91662,0 V 281.4663 h 1.92204 1.92203 v 56.15089 56.1509 h -1.92203 -1.92204 z m 15.98036,0 V 281.4663 h 1.92203 1.92204 v 56.15089 56.1509 h -1.92204 -1.92203 z m 11.91662,0 V 281.4663 h 1.92203 1.92204 v 56.15089 56.1509 h -1.92204 -1.92203 z m 15.98035,0 V 281.4663 h 1.92204 1.92204 v 56.15089 56.1509 h -1.92204 -1.92204 z m 11.91663,0 V 281.4663 h 1.92203 1.92204 v 56.15089 56.1509 h -1.92204 -1.92203 z m 15.98035,0 V 281.4663 h 1.92204 1.92203 v 56.15089 56.1509 h -1.92203 -1.92204 z m 11.91662,0 V 281.4663 h 1.92204 1.92203 v 56.15089 56.1509 h -1.92203 -1.92204 z m 15.98036,0 V 281.4663 h 1.92203 1.92204 v 56.15089 56.1509 h -1.92204 -1.92203 z m 11.91662,0 V 281.4663 h 1.92203 1.92204 v 56.15089 56.1509 h -1.92204 -1.92203 z m 15.98035,0 V 281.4663 h 1.92204 1.92203 v 56.15089 56.1509 h -1.92203 -1.92204 z m 11.91662,0 V 281.4663 h 1.92204 1.92204 v 56.15089 56.1509 h -1.92204 -1.92204 z m 15.98036,0 V 281.4663 h 1.92203 1.92204 v 56.15089 56.1509 h -1.92204 -1.92203 z m 11.91662,0 V 281.4663 h 1.92204 1.92203 v 56.15089 56.1509 h -1.92203 -1.92204 z m 43.87733,0 V 281.4663 h 1.92204 1.92203 v 56.15089 56.1509 h -1.92203 -1.92204 z m 11.91662,0 V 281.4663 h 1.92204 1.92203 v 56.15089 56.1509 h -1.92203 -1.92204 z m 15.98036,0 V 281.4663 h 1.92203 1.92204 v 56.15089 56.1509 h -1.92204 -1.92203 z m 11.91662,0 V 281.4663 h 1.92203 1.92204 v 56.15089 56.1509 h -1.92204 -1.92203 z m 15.98035,0 V 281.4663 h 1.92204 1.92203 v 56.15089 56.1509 h -1.92203 -1.92204 z m 11.91662,0 V 281.4663 h 1.92204 1.92204 v 56.15089 56.1509 h -1.92204 -1.92204 z m 15.98036,0 V 281.4663 h 1.92203 1.92204 v 56.15089 56.1509 h -1.92204 -1.92203 z m 11.91662,0 V 281.4663 h 1.92204 1.92203 v 56.15089 56.1509 h -1.92203 -1.92204 z m 15.98035,0 V 281.4663 h 1.92204 1.92204 v 56.15089 56.1509 h -1.92204 -1.92204 z m 11.91663,0 V 281.4663 h 1.92203 1.92204 v 56.15089 56.1509 h -1.92204 -1.92203 z m 15.98035,0 V 281.4663 h 1.92204 1.92203 v 56.15089 56.1509 h -1.92203 -1.92204 z m 11.91662,0 V 281.4663 h 1.92204 1.92203 v 56.15089 56.1509 h -1.92203 -1.92204 z m 15.98036,0 V 281.4663 h 1.92203 1.92204 v 56.15089 56.1509 h -1.92204 -1.92203 z m 11.91662,0 V 281.4663 h 1.92203 1.92204 v 56.15089 56.1509 h -1.92204 -1.92203 z m 15.98035,0 V 281.4663 h 1.92204 1.92203 v 56.15089 56.1509 h -1.92203 -1.92204 z m 11.91662,0 V 281.4663 h 1.92204 1.92204 v 56.15089 56.1509 h -1.92204 -1.92204 z m 15.98036,0 V 281.4663 h 1.92203 1.92204 v 56.15089 56.1509 h -1.92204 -1.92203 z m 11.91662,0 V 281.4663 h 1.92204 1.92203 v 56.15089 56.1509 h -1.92203 -1.92204 z"
         id="path5" /><path
         style="fill:#7f7f7f"
         d="M 62.409714,773.23285 V 566.47673 h -8.237296 -8.237296 v -6.58984 -6.58984 h 8.237296 8.237296 V 351.20873 149.12041 h -8.237296 -8.237296 v -3.29492 -3.29492 H 57.467336 68.999551 V 557.96485 973.39914 H 397.39309 725.78663 V 557.96485 142.53057 h 11.53221 11.53221 v 3.29492 3.29492 h -8.23729 -8.2373 v 202.08832 202.08832 h 8.2373 8.23729 v 6.58984 6.58984 h -8.23729 -8.2373 V 773.23285 979.98897 H 397.39309 62.409714 Z"
         id="path4" /><path
         style="fill:#fe0000"
         d="m 393.87851,573.17639 v -54.36615 h 3.51458 3.51458 v 54.36615 54.36616 h -3.51458 -3.51458 z"
         id="path3" /><path
         style="fill:#0000fe"
         d="M 68.999551,599.81032 V 226.2215 h 33.827829 33.82783 v 289.73315 289.73314 h -8.29221 -8.29221 v 2.74577 2.74577 h 8.29221 8.29221 v 71.38989 71.3899 h -8.29221 -8.29221 v 2.74576 2.74577 h 11.25763 11.25764 v -1.09831 -1.0983 h -2.69085 -2.69085 v -44.23428 -44.23428 h 9.11594 9.11594 v 44.23428 44.23428 h -2.69085 -2.69085 v 1.0983 1.09831 h 10.21425 10.21425 v -1.09831 -1.0983 h -2.69085 -2.69085 v -44.23428 -44.23428 h 9.11594 9.11594 v 44.23428 44.23428 h -2.69085 -2.69085 v 1.0983 1.09831 h 10.21425 10.21424 v -1.09831 -1.0983 h -2.69085 -2.69085 v -44.23428 -44.23428 h 9.11595 9.11594 v 44.23428 44.23428 h -2.69085 -2.69085 v 1.0983 1.09831 h 10.21424 10.21425 v -1.09831 -1.0983 h -2.69085 -2.69085 v -44.23428 -44.23428 h 9.11594 9.11594 v 44.23428 44.23428 h -2.69085 -2.69085 v 1.0983 1.09831 h 10.21425 10.21425 v -1.09831 -1.0983 h -2.69085 -2.69085 v -44.23428 -44.23428 h 9.11594 9.11594 v 44.23428 44.23428 h -2.69085 -2.69085 v 1.0983 1.09831 h 10.21425 10.21424 v -1.09831 -1.0983 h -2.69085 -2.69085 v -44.23428 -44.23428 h 9.11594 9.11594 v 44.23428 44.23428 h -2.69085 -2.69085 v 1.0983 1.09831 h 10.21425 10.21425 v -1.09831 -1.0983 h -2.69085 -2.69085 v -44.23428 -44.23428 h 9.11594 9.11594 v 44.23428 44.23428 h -2.69085 -2.69085 v 1.0983 1.09831 h 10.21425 10.21425 v -1.09831 -1.0983 h -2.69085 -2.69085 v -44.23428 -44.23428 h 9.11594 9.11594 v 44.23428 44.23428 h -2.69085 -2.69085 v 1.0983 1.09831 h 10.21424 10.21425 v -1.09831 -1.0983 h -2.69085 -2.69085 v -44.23428 -44.23428 h 9.11594 9.11594 v 44.23428 44.23428 h -2.69085 -2.69085 v 1.0983 1.09831 h 7.24882 7.24882 v 6.97424 6.97425 H 228.36377 68.999551 Z M 388.27715,939.07707 V 904.755 h 9.11594 9.11594 v 34.32207 34.32207 h -9.11594 -9.11594 z m 18.78103,27.34782 v -6.97424 h 7.24882 7.24882 v -1.09831 -1.0983 h -2.69085 -2.69085 v -44.23428 -44.23428 h 9.11594 9.11595 v 44.23428 44.23428 h -2.69085 -2.69085 v 1.0983 1.09831 h 10.21424 10.21425 v -1.09831 -1.0983 h -2.69085 -2.69085 v -44.23428 -44.23428 h 9.11594 9.11594 v 44.23428 44.23428 h -2.69085 -2.69085 v 1.0983 1.09831 h 10.21425 10.21425 v -1.09831 -1.0983 h -2.69085 -2.69085 v -44.23428 -44.23428 h 9.11594 9.11594 v 44.23428 44.23428 h -2.69085 -2.69085 v 1.0983 1.09831 h 10.21424 10.21425 v -1.09831 -1.0983 h -2.69085 -2.69085 v -44.23428 -44.23428 h 9.11594 9.11594 v 44.23428 44.23428 h -2.69085 -2.69085 v 1.0983 1.09831 h 10.21425 10.21425 v -1.09831 -1.0983 h -2.69085 -2.69085 v -44.23428 -44.23428 h 9.11594 9.11594 v 44.23428 44.23428 h -2.69085 -2.69085 v 1.0983 1.09831 h 10.21425 10.21424 v -1.09831 -1.0983 h -2.69085 -2.69085 v -44.23428 -44.23428 h 9.11594 9.11595 v 44.23428 44.23428 h -2.69085 -2.69085 v 1.0983 1.09831 h 10.21424 10.21425 v -1.09831 -1.0983 h -2.69085 -2.69085 v -44.23428 -44.23428 h 9.11594 9.11594 v 44.23428 44.23428 h -2.69085 -2.69085 v 1.0983 1.09831 h 10.21425 10.21425 v -1.09831 -1.0983 h -2.69085 -2.69085 v -44.23428 -44.23428 h 9.11594 9.11594 v 44.23428 44.23428 h -2.69085 -2.69085 v 1.0983 1.09831 h 10.21425 10.21424 v -1.09831 -1.0983 h -2.69085 -2.69085 v -44.23428 -44.23428 h 9.11594 9.11594 v 44.23428 44.23428 h -2.69085 -2.69085 v 1.0983 1.09831 h 11.25764 11.25764 v -2.74577 -2.74576 h -8.29221 -8.29221 v -71.3899 -71.38989 h 8.29221 8.29221 v -2.74577 -2.74577 h -8.29221 -8.29221 V 515.95465 226.2215 h 33.82783 33.82783 V 599.81032 973.39914 H 566.4224 407.05818 Z M 155.9854,882.56922 v -71.38989 h 4.28339 4.2834 v 71.38989 71.3899 h -4.2834 -4.28339 z m 27.89697,0 v -71.38989 h 4.2834 4.28339 v 71.38989 71.3899 h -4.28339 -4.2834 z m 27.89698,0 v -71.38989 h 4.28339 4.2834 v 71.38989 71.3899 h -4.2834 -4.28339 z m 27.89698,0 v -71.38989 h 4.28339 4.28339 v 71.38989 71.3899 h -4.28339 -4.28339 z m 27.89697,0 v -71.38989 h 4.2834 4.28339 v 71.38989 71.3899 h -4.28339 -4.2834 z m 27.89698,0 v -71.38989 h 4.28339 4.2834 v 71.38989 71.3899 h -4.2834 -4.28339 z m 27.89697,0 v -71.38989 h 4.2834 4.28339 v 71.38989 71.3899 h -4.28339 -4.2834 z m 27.89698,0 v -71.38989 h 4.28339 4.2834 v 71.38989 71.3899 h -4.2834 -4.28339 z m 27.89698,0 v -71.38989 h 4.28339 4.28339 v 71.38989 71.3899 h -4.28339 -4.28339 z m 27.89697,0 v -71.38989 h 4.2834 4.28339 v 71.38989 71.3899 h -4.28339 -4.2834 z m 27.89698,0 v -71.38989 h 4.28339 4.2834 v 71.38989 71.3899 h -4.2834 -4.28339 z m 27.89697,0 v -71.38989 h 4.2834 4.28339 v 71.38989 71.3899 h -4.28339 -4.2834 z m 27.89698,0 v -71.38989 h 4.28339 4.2834 v 71.38989 71.3899 h -4.2834 -4.28339 z m 27.89698,0 v -71.38989 h 4.28339 4.28339 v 71.38989 71.3899 h -4.28339 -4.28339 z m 27.89697,0 v -71.38989 h 4.2834 4.28339 v 71.38989 71.3899 h -4.28339 -4.2834 z m 27.89698,0 v -71.38989 h 4.28339 4.2834 v 71.38989 71.3899 h -4.2834 -4.28339 z m 27.89698,0 v -71.38989 h 4.28339 4.28339 v 71.38989 71.3899 h -4.28339 -4.28339 z m 27.89697,0 v -71.38989 h 4.2834 4.28339 v 71.38989 71.3899 h -4.28339 -4.2834 z M 388.27715,564.9391 V 226.2215 h 9.11594 9.11594 v 338.7176 338.7176 h -9.11594 -9.11594 z m 17.35323,8.23729 v -54.9153 h -8.23729 -8.2373 v 54.9153 54.91531 h 8.2373 8.23729 z M 155.9854,515.95465 V 226.2215 h 4.28339 4.2834 v 289.73315 289.73314 h -4.2834 -4.28339 z m 27.89697,0 V 226.2215 h 4.2834 4.28339 v 289.73315 289.73314 h -4.28339 -4.2834 z m 27.89698,0 V 226.2215 h 4.28339 4.2834 v 289.73315 289.73314 h -4.2834 -4.28339 z m 27.89698,0 V 226.2215 h 4.28339 4.28339 v 289.73315 289.73314 h -4.28339 -4.28339 z m 27.89697,0 V 226.2215 h 4.2834 4.28339 v 289.73315 289.73314 h -4.28339 -4.2834 z m 27.89698,0 V 226.2215 h 4.28339 4.2834 v 289.73315 289.73314 h -4.2834 -4.28339 z m 27.89697,0 V 226.2215 h 4.2834 4.28339 v 289.73315 289.73314 h -4.28339 -4.2834 z m 27.89698,0 V 226.2215 h 4.28339 4.2834 v 289.73315 289.73314 h -4.2834 -4.28339 z m 27.89698,0 V 226.2215 h 4.28339 4.28339 v 289.73315 289.73314 h -4.28339 -4.28339 z m 27.89697,0 V 226.2215 h 4.2834 4.28339 v 289.73315 289.73314 h -4.28339 -4.2834 z m 27.89698,0 V 226.2215 h 4.28339 4.2834 v 289.73315 289.73314 h -4.2834 -4.28339 z m 27.89697,0 V 226.2215 h 4.2834 4.28339 v 289.73315 289.73314 h -4.28339 -4.2834 z m 27.89698,0 V 226.2215 h 4.28339 4.2834 v 289.73315 289.73314 h -4.2834 -4.28339 z m 27.89698,0 V 226.2215 h 4.28339 4.28339 v 289.73315 289.73314 h -4.28339 -4.28339 z m 27.89697,0 V 226.2215 h 4.2834 4.28339 v 289.73315 289.73314 h -4.28339 -4.2834 z m 27.89698,0 V 226.2215 h 4.28339 4.2834 v 289.73315 289.73314 h -4.2834 -4.28339 z m 27.89698,0 V 226.2215 h 4.28339 4.28339 v 289.73315 289.73314 h -4.28339 -4.28339 z m 27.89697,0 V 226.2215 h 4.2834 4.28339 v 289.73315 289.73314 h -4.28339 -4.2834 z"
         id="path2" /><path
         style="fill:#000000"
         d="m 387.72799,966.42489 v -6.97424 h -7.24882 -7.24882 v -1.09831 -1.0983 h 2.69085 2.69085 v -44.23428 -44.23428 h -9.11594 -9.11594 v 44.23428 44.23428 h 2.69085 2.69085 v 1.0983 1.09831 h -10.21425 -10.21424 v -1.09831 -1.0983 h 2.69085 2.69085 v -44.23428 -44.23428 h -9.11594 -9.11594 v 44.23428 44.23428 h 2.69085 2.69085 v 1.0983 1.09831 H 327.65065 317.4364 v -1.09831 -1.0983 h 2.69085 2.69085 v -44.23428 -44.23428 h -9.11594 -9.11594 v 44.23428 44.23428 h 2.69085 2.69085 v 1.0983 1.09831 h -10.21425 -10.21425 v -1.09831 -1.0983 h 2.69085 2.69085 v -44.23428 -44.23428 h -9.11594 -9.11594 v 44.23428 44.23428 h 2.69085 2.69085 v 1.0983 1.09831 H 271.8567 261.64245 v -1.09831 -1.0983 h 2.69085 2.69085 v -44.23428 -44.23428 h -9.11594 -9.11594 v 44.23428 44.23428 h 2.69085 2.69085 v 1.0983 1.09831 h -10.21425 -10.21425 v -1.09831 -1.0983 h 2.69085 2.69085 v -44.23428 -44.23428 h -9.11594 -9.11594 v 44.23428 44.23428 h 2.69085 2.69085 v 1.0983 1.09831 H 216.06274 205.8485 v -1.09831 -1.0983 h 2.69085 2.69085 v -44.23428 -44.23428 h -9.11594 -9.11595 v 44.23428 44.23428 h 2.69085 2.69085 v 1.0983 1.09831 h -10.21424 -10.21425 v -1.09831 -1.0983 h 2.69085 2.69085 v -44.23428 -44.23428 h -9.11594 -9.11594 v 44.23428 44.23428 h 2.69085 2.69085 v 1.0983 1.09831 h -10.21425 -10.21425 v -1.09831 -1.0983 h 2.69085 2.69085 v -44.23428 -44.23428 h -9.11594 -9.11594 v 44.23428 44.23428 h 2.69085 2.69085 v 1.0983 1.09831 h -11.25764 -11.25763 v -2.74577 -2.74576 h 8.29221 8.29221 v -71.3899 -71.38989 h -8.29221 -8.29221 v -2.74577 -2.74577 h 8.29221 8.29221 V 469.99054 134.29328 h 0.27458 0.27457 v 366.69695 366.69694 h 0.32949 0.3295 V 573.20385 278.72053 h 2.47118 2.47119 v 294.48332 294.48332 h 3.48713 3.48712 V 573.20385 278.72053 h 2.47119 2.47119 v 294.48332 294.48332 h 0.35694 0.35695 V 500.99023 134.29328 h 0.27458 0.27458 v 335.69726 335.69725 h 4.28339 4.2834 V 469.99054 134.29328 h 0.27457 0.27458 v 366.69695 366.69694 h 0.32949 0.32949 V 573.20385 278.72053 h 2.47119 2.47119 v 294.48332 294.48332 h 3.48712 3.48712 V 573.20385 278.72053 h 2.47119 2.47119 v 294.48332 294.48332 h 0.35695 0.35695 V 500.99023 134.29328 h 0.27458 0.27457 v 335.69726 335.69725 h 4.2834 4.28339 V 469.99054 134.29328 h 0.27458 0.27457 v 366.69695 366.69694 h 0.3295 0.32949 V 573.20385 278.72053 h 2.47119 2.47119 v 294.48332 294.48332 h 3.48712 3.48712 V 573.20385 278.72053 h 2.47119 2.47119 v 294.48332 294.48332 h 0.35695 0.35695 V 500.99023 134.29328 h 0.27457 0.27458 v 335.69726 335.69725 h 4.28339 4.2834 V 469.99054 134.29328 h 0.27457 0.27458 v 366.69695 366.69694 h 0.32949 0.32949 V 573.20385 278.72053 h 2.47119 2.47119 v 294.48332 294.48332 h 3.48712 3.48713 V 573.20385 278.72053 h 2.47118 2.47119 v 294.48332 294.48332 h 0.35695 0.35695 V 500.99023 134.29328 h 0.27458 0.27458 v 335.69726 335.69725 h 4.28339 4.28339 V 469.99054 134.29328 h 0.27458 0.27458 v 366.69695 366.69694 h 0.32949 0.32949 V 573.20385 278.72053 h 2.47119 2.47119 v 294.48332 294.48332 h 3.48712 3.48712 V 573.20385 278.72053 h 2.47119 2.47119 v 294.48332 294.48332 h 0.35695 0.35695 V 500.99023 134.29328 h 0.27458 0.27457 v 335.69726 335.69725 h 4.2834 4.28339 V 469.99054 134.29328 h 0.27458 0.27457 v 366.69695 366.69694 h 0.32949 0.3295 V 573.20385 278.72053 h 2.47119 2.47118 v 294.48332 294.48332 h 3.48713 3.48712 V 573.20385 278.72053 h 2.47119 2.47119 v 294.48332 294.48332 h 0.35695 0.35694 V 500.99023 134.29328 h 0.27458 0.27458 v 335.69726 335.69725 h 4.28339 4.2834 V 469.99054 134.29328 h 0.27457 0.27458 v 366.69695 366.69694 h 0.32949 0.32949 V 573.20385 278.72053 h 2.47119 2.47119 v 294.48332 294.48332 h 3.48712 3.48712 V 573.20385 278.72053 h 2.47119 2.47119 v 294.48332 294.48332 h 0.35695 0.35695 V 500.99023 134.29328 h 0.27458 0.27457 v 335.69726 335.69725 h 4.2834 4.28339 V 469.99054 134.29328 h 0.27458 0.27458 v 366.69695 366.69694 h 0.32949 0.32949 V 573.20385 278.72053 h 2.47119 2.47119 v 294.48332 294.48332 h 3.48712 3.48712 V 573.20385 278.72053 h 2.47119 2.47119 v 294.48332 294.48332 h 0.35695 0.35695 V 500.99023 134.29328 h 0.27457 0.27458 v 335.69726 335.69725 h 4.28339 4.2834 V 469.99054 134.29328 h 0.27457 0.27458 v 366.69695 366.69694 h 0.32949 0.32949 V 573.20385 278.72053 h 2.47119 2.47119 v 294.48332 294.48332 h 3.48712 3.48713 V 573.20385 278.72053 h 2.47119 2.47118 v 294.48332 294.48332 h 0.35695 0.35695 V 500.99023 134.29328 h 0.27458 0.27458 v 335.69726 335.69725 h 4.28339 4.28339 V 469.99054 134.29328 h 0.27458 0.27458 V 518.97499 903.6567 h 9.11594 9.11594 V 518.97499 134.29328 h 0.27458 0.27457 v 335.69726 335.69725 h 4.2834 4.28339 V 469.99054 134.29328 h 0.27458 0.27457 v 366.69695 366.69694 h 0.3295 0.32949 V 573.20385 278.72053 h 2.47119 2.47118 v 294.48332 294.48332 h 3.48713 3.48712 V 573.20385 278.72053 h 2.47119 2.47119 v 294.48332 294.48332 h 0.35695 0.35695 V 500.99023 134.29328 h 0.27457 0.27458 v 335.69726 335.69725 h 4.28339 4.2834 V 469.99054 134.29328 h 0.27457 0.27458 v 366.69695 366.69694 h 0.32949 0.32949 V 573.20385 278.72053 h 2.47119 2.47119 v 294.48332 294.48332 h 3.48712 3.48712 V 573.20385 278.72053 h 2.47119 2.47119 v 294.48332 294.48332 h 0.35695 0.35695 V 500.99023 134.29328 h 0.27458 0.27457 v 335.69726 335.69725 h 4.2834 4.28339 V 469.99054 134.29328 h 0.27458 0.27458 v 366.69695 366.69694 h 0.32949 0.32949 V 573.20385 278.72053 h 2.47119 2.47119 v 294.48332 294.48332 h 3.48712 3.48712 V 573.20385 278.72053 h 2.47119 2.47119 v 294.48332 294.48332 h 0.35695 0.35695 V 500.99023 134.29328 h 0.27457 0.27458 v 335.69726 335.69725 h 4.28339 4.2834 V 469.99054 134.29328 h 0.27458 0.27457 v 366.69695 366.69694 h 0.32949 0.3295 V 573.20385 278.72053 h 2.47118 2.47119 v 294.48332 294.48332 h 3.48713 3.48712 V 573.20385 278.72053 h 2.47119 2.47118 v 294.48332 294.48332 h 0.35695 0.35695 V 500.99023 134.29328 h 0.27458 0.27458 v 335.69726 335.69725 h 4.28339 4.28339 V 469.99054 134.29328 h 0.27458 0.27458 v 366.69695 366.69694 h 0.32949 0.32949 V 573.20385 278.72053 h 2.47119 2.47119 v 294.48332 294.48332 h 3.48712 3.48712 V 573.20385 278.72053 h 2.47119 2.47119 v 294.48332 294.48332 h 0.35695 0.35695 V 500.99023 134.29328 h 0.27458 0.27457 v 335.69726 335.69725 h 4.2834 4.28339 V 469.99054 134.29328 h 0.27458 0.27457 v 366.69695 366.69694 h 0.3295 0.32949 V 573.20385 278.72053 h 2.47119 2.47119 v 294.48332 294.48332 h 3.48712 3.48712 V 573.20385 278.72053 h 2.47119 2.47119 v 294.48332 294.48332 h 0.35695 0.35695 V 500.99023 134.29328 h 0.27457 0.27458 v 335.69726 335.69725 h 4.28339 4.2834 V 469.99054 134.29328 h 0.27457 0.27458 v 366.69695 366.69694 h 0.32949 0.32949 V 573.20385 278.72053 h 2.47119 2.47119 v 294.48332 294.48332 h 3.48712 3.48713 V 573.20385 278.72053 h 2.47118 2.47119 v 294.48332 294.48332 h 0.35695 0.35695 V 500.99023 134.29328 h 0.27458 0.27458 v 335.69726 335.69725 h 4.28339 4.28339 V 469.99054 134.29328 h 0.27458 0.27458 v 366.69695 366.69694 h 0.32949 0.32949 V 573.20385 278.72053 h 2.47119 2.47119 v 294.48332 294.48332 h 3.48712 3.48712 V 573.20385 278.72053 h 2.47119 2.47119 v 294.48332 294.48332 h 0.35695 0.35695 V 500.99023 134.29328 h 0.27457 0.27458 v 335.69726 335.69725 h 4.2834 4.28339 V 469.99054 134.29328 h 0.27458 0.27457 v 366.69695 366.69694 h 0.32949 0.3295 V 573.20385 278.72053 h 2.47118 2.47119 v 294.48332 294.48332 h 3.48713 3.48712 V 573.20385 278.72053 h 2.47119 2.47119 v 294.48332 294.48332 h 0.35694 0.35695 V 500.99023 134.29328 h 0.27458 0.27458 v 335.69726 335.69725 h 8.29221 8.29221 v 2.74577 2.74577 h -8.29221 -8.29221 v 71.38989 71.3899 h 8.29221 8.29221 v 2.74576 2.74577 h -11.25764 -11.25764 v -1.09831 -1.0983 h 2.69085 2.69085 v -44.23428 -44.23428 h -9.11594 -9.11594 v 44.23428 44.23428 h 2.69085 2.69085 v 1.0983 1.09831 h -10.21424 -10.21425 v -1.09831 -1.0983 h 2.69085 2.69085 v -44.23428 -44.23428 h -9.11594 -9.11594 v 44.23428 44.23428 h 2.69085 2.69085 v 1.0983 1.09831 h -10.21425 -10.21425 v -1.09831 -1.0983 h 2.69085 2.69085 v -44.23428 -44.23428 h -9.11594 -9.11594 v 44.23428 44.23428 h 2.69085 2.69085 v 1.0983 1.09831 h -10.21425 -10.21424 v -1.09831 -1.0983 h 2.69085 2.69085 v -44.23428 -44.23428 h -9.11595 -9.11594 v 44.23428 44.23428 h 2.69085 2.69085 v 1.0983 1.09831 h -10.21424 -10.21425 v -1.09831 -1.0983 h 2.69085 2.69085 v -44.23428 -44.23428 h -9.11594 -9.11594 v 44.23428 44.23428 h 2.69085 2.69085 v 1.0983 1.09831 h -10.21425 -10.21425 v -1.09831 -1.0983 h 2.69085 2.69085 v -44.23428 -44.23428 h -9.11594 -9.11594 v 44.23428 44.23428 h 2.69085 2.69085 v 1.0983 1.09831 H 495.0325 484.81826 v -1.09831 -1.0983 h 2.69085 2.69085 v -44.23428 -44.23428 h -9.11594 -9.11594 v 44.23428 44.23428 h 2.69085 2.69085 v 1.0983 1.09831 h -10.21425 -10.21425 v -1.09831 -1.0983 h 2.69085 2.69085 v -44.23428 -44.23428 h -9.11594 -9.11594 v 44.23428 44.23428 h 2.69085 2.69085 v 1.0983 1.09831 h -10.21425 -10.21424 v -1.09831 -1.0983 h 2.69085 2.69085 v -44.23428 -44.23428 h -9.11595 -9.11594 v 44.23428 44.23428 h 2.69085 2.69085 v 1.0983 1.09831 h -7.24882 -7.24882 v 6.97424 6.97425 h -0.27457 -0.27458 V 939.07707 904.755 h -9.11594 -9.11594 v 34.32207 34.32207 h -0.27458 -0.27458 z m -223.1758,-83.85567 v -71.38989 h -4.2834 -4.28339 v 71.38989 71.3899 h 4.28339 4.2834 z m 27.89697,0 v -71.38989 h -4.28339 -4.2834 v 71.38989 71.3899 h 4.2834 4.28339 z m 27.89698,0 v -71.38989 h -4.2834 -4.28339 v 71.38989 71.3899 h 4.28339 4.2834 z m 27.89697,0 v -71.38989 h -4.28339 -4.28339 v 71.38989 71.3899 h 4.28339 4.28339 z m 27.89698,0 v -71.38989 h -4.28339 -4.2834 v 71.38989 71.3899 h 4.2834 4.28339 z m 27.89698,0 v -71.38989 h -4.2834 -4.28339 v 71.38989 71.3899 h 4.28339 4.2834 z m 27.89697,0 v -71.38989 h -4.28339 -4.2834 v 71.38989 71.3899 h 4.2834 4.28339 z m 27.89698,0 v -71.38989 h -4.2834 -4.28339 v 71.38989 71.3899 h 4.28339 4.2834 z m 27.89697,0 v -71.38989 h -4.28339 -4.28339 v 71.38989 71.3899 h 4.28339 4.28339 z m 27.89698,0 v -71.38989 h -4.28339 -4.2834 v 71.38989 71.3899 h 4.2834 4.28339 z m 27.89698,0 v -71.38989 h -4.2834 -4.28339 v 71.38989 71.3899 h 4.28339 4.2834 z m 27.89697,0 v -71.38989 h -4.28339 -4.2834 v 71.38989 71.3899 h 4.2834 4.28339 z m 27.89698,0 v -71.38989 h -4.2834 -4.28339 v 71.38989 71.3899 h 4.28339 4.2834 z m 27.89697,0 v -71.38989 h -4.28339 -4.28339 v 71.38989 71.3899 h 4.28339 4.28339 z m 27.89698,0 v -71.38989 h -4.28339 -4.2834 v 71.38989 71.3899 h 4.2834 4.28339 z m 27.89698,0 v -71.38989 h -4.2834 -4.28339 v 71.38989 71.3899 h 4.28339 4.2834 z m 27.89697,0 v -71.38989 h -4.28339 -4.28339 v 71.38989 71.3899 h 4.28339 4.28339 z m 27.89698,0 v -71.38989 h -4.28339 -4.2834 v 71.38989 71.3899 h 4.2834 4.28339 z M 142.25657,808.79051 v -56.1509 h -1.92204 -1.92203 v 56.1509 56.1509 h 1.92203 1.92204 z m 11.91662,0 v -56.1509 h -1.92203 -1.92204 v 56.1509 56.1509 h 1.92204 1.92203 z m 15.98036,0 v -56.1509 h -1.92204 -1.92203 v 56.1509 56.1509 h 1.92203 1.92204 z m 11.91662,0 v -56.1509 h -1.92204 -1.92203 v 56.1509 56.1509 h 1.92203 1.92204 z m 15.98035,0 v -56.1509 h -1.92203 -1.92204 v 56.1509 56.1509 h 1.92204 1.92203 z m 11.91662,0 v -56.1509 h -1.92203 -1.92204 v 56.1509 56.1509 h 1.92204 1.92203 z m 15.98036,0 v -56.1509 h -1.92204 -1.92203 v 56.1509 56.1509 h 1.92203 1.92204 z m 11.91662,0 v -56.1509 h -1.92204 -1.92203 v 56.1509 56.1509 h 1.92203 1.92204 z m 15.98036,0 v -56.1509 h -1.92204 -1.92204 v 56.1509 56.1509 h 1.92204 1.92204 z m 11.91662,0 v -56.1509 h -1.92204 -1.92203 v 56.1509 56.1509 h 1.92203 1.92204 z m 15.98035,0 v -56.1509 h -1.92203 -1.92204 v 56.1509 56.1509 h 1.92204 1.92203 z m 11.91662,0 v -56.1509 h -1.92203 -1.92204 v 56.1509 56.1509 h 1.92204 1.92203 z m 15.98036,0 v -56.1509 h -1.92204 -1.92203 v 56.1509 56.1509 h 1.92203 1.92204 z m 11.91662,0 v -56.1509 h -1.92204 -1.92203 v 56.1509 56.1509 h 1.92203 1.92204 z m 15.98035,0 v -56.1509 h -1.92203 -1.92204 v 56.1509 56.1509 h 1.92204 1.92203 z m 11.91663,0 v -56.1509 h -1.92204 -1.92204 v 56.1509 56.1509 h 1.92204 1.92204 z m 15.98035,0 v -56.1509 h -1.92204 -1.92203 v 56.1509 56.1509 h 1.92203 1.92204 z m 11.91662,0 v -56.1509 h -1.92203 -1.92204 v 56.1509 56.1509 h 1.92204 1.92203 z m 43.87733,0 v -56.1509 h -1.92203 -1.92204 v 56.1509 56.1509 h 1.92204 1.92203 z m 11.91662,0 v -56.1509 h -1.92203 -1.92204 v 56.1509 56.1509 h 1.92204 1.92203 z m 15.98036,0 v -56.1509 h -1.92204 -1.92203 v 56.1509 56.1509 h 1.92203 1.92204 z m 11.91662,0 v -56.1509 h -1.92204 -1.92203 v 56.1509 56.1509 h 1.92203 1.92204 z m 15.98035,0 v -56.1509 h -1.92203 -1.92204 v 56.1509 56.1509 h 1.92204 1.92203 z m 11.91663,0 v -56.1509 h -1.92204 -1.92204 v 56.1509 56.1509 h 1.92204 1.92204 z m 15.98035,0 v -56.1509 h -1.92204 -1.92203 v 56.1509 56.1509 h 1.92203 1.92204 z m 11.91662,0 v -56.1509 h -1.92203 -1.92204 v 56.1509 56.1509 h 1.92204 1.92203 z m 15.98036,0 v -56.1509 h -1.92204 -1.92204 v 56.1509 56.1509 h 1.92204 1.92204 z m 11.91662,0 v -56.1509 h -1.92204 -1.92203 v 56.1509 56.1509 h 1.92203 1.92204 z m 15.98035,0 v -56.1509 h -1.92203 -1.92204 v 56.1509 56.1509 h 1.92204 1.92203 z m 11.91662,0 v -56.1509 h -1.92203 -1.92204 v 56.1509 56.1509 h 1.92204 1.92203 z m 15.98036,0 v -56.1509 h -1.92204 -1.92203 v 56.1509 56.1509 h 1.92203 1.92204 z m 11.91662,0 v -56.1509 h -1.92204 -1.92203 v 56.1509 56.1509 h 1.92203 1.92204 z m 15.98035,0 v -56.1509 h -1.92203 -1.92204 v 56.1509 56.1509 h 1.92204 1.92203 z m 11.91663,0 v -56.1509 h -1.92204 -1.92204 v 56.1509 56.1509 h 1.92204 1.92204 z m 15.98035,0 v -56.1509 h -1.92204 -1.92203 v 56.1509 56.1509 h 1.92203 1.92204 z m 11.91662,0 v -56.1509 h -1.92203 -1.92204 v 56.1509 56.1509 h 1.92204 1.92203 z M 142.25657,690.99718 v -56.1509 h -1.92204 -1.92203 v 56.1509 56.1509 h 1.92203 1.92204 z m 11.91662,0 v -56.1509 h -1.92203 -1.92204 v 56.1509 56.1509 h 1.92204 1.92203 z m 15.98036,0 v -56.1509 h -1.92204 -1.92203 v 56.1509 56.1509 h 1.92203 1.92204 z m 11.91662,0 v -56.1509 h -1.92204 -1.92203 v 56.1509 56.1509 h 1.92203 1.92204 z m 15.98035,0 v -56.1509 h -1.92203 -1.92204 v 56.1509 56.1509 h 1.92204 1.92203 z m 11.91662,0 v -56.1509 h -1.92203 -1.92204 v 56.1509 56.1509 h 1.92204 1.92203 z m 15.98036,0 v -56.1509 h -1.92204 -1.92203 v 56.1509 56.1509 h 1.92203 1.92204 z m 11.91662,0 v -56.1509 h -1.92204 -1.92203 v 56.1509 56.1509 h 1.92203 1.92204 z m 15.98036,0 v -56.1509 h -1.92204 -1.92204 v 56.1509 56.1509 h 1.92204 1.92204 z m 11.91662,0 v -56.1509 h -1.92204 -1.92203 v 56.1509 56.1509 h 1.92203 1.92204 z m 15.98035,0 v -56.1509 h -1.92203 -1.92204 v 56.1509 56.1509 h 1.92204 1.92203 z m 11.91662,0 v -56.1509 h -1.92203 -1.92204 v 56.1509 56.1509 h 1.92204 1.92203 z m 15.98036,0 v -56.1509 h -1.92204 -1.92203 v 56.1509 56.1509 h 1.92203 1.92204 z m 11.91662,0 v -56.1509 h -1.92204 -1.92203 v 56.1509 56.1509 h 1.92203 1.92204 z m 15.98035,0 v -56.1509 h -1.92203 -1.92204 v 56.1509 56.1509 h 1.92204 1.92203 z m 11.91663,0 v -56.1509 h -1.92204 -1.92204 v 56.1509 56.1509 h 1.92204 1.92204 z m 15.98035,0 v -56.1509 h -1.92204 -1.92203 v 56.1509 56.1509 h 1.92203 1.92204 z m 11.91662,0 v -56.1509 h -1.92203 -1.92204 v 56.1509 56.1509 h 1.92204 1.92203 z m 43.87733,0 v -56.1509 h -1.92203 -1.92204 v 56.1509 56.1509 h 1.92204 1.92203 z m 11.91662,0 v -56.1509 h -1.92203 -1.92204 v 56.1509 56.1509 h 1.92204 1.92203 z m 15.98036,0 v -56.1509 h -1.92204 -1.92203 v 56.1509 56.1509 h 1.92203 1.92204 z m 11.91662,0 v -56.1509 h -1.92204 -1.92203 v 56.1509 56.1509 h 1.92203 1.92204 z m 15.98035,0 v -56.1509 h -1.92203 -1.92204 v 56.1509 56.1509 h 1.92204 1.92203 z m 11.91663,0 v -56.1509 h -1.92204 -1.92204 v 56.1509 56.1509 h 1.92204 1.92204 z m 15.98035,0 v -56.1509 h -1.92204 -1.92203 v 56.1509 56.1509 h 1.92203 1.92204 z m 11.91662,0 v -56.1509 h -1.92203 -1.92204 v 56.1509 56.1509 h 1.92204 1.92203 z m 15.98036,0 v -56.1509 h -1.92204 -1.92204 v 56.1509 56.1509 h 1.92204 1.92204 z m 11.91662,0 v -56.1509 h -1.92204 -1.92203 v 56.1509 56.1509 h 1.92203 1.92204 z m 15.98035,0 v -56.1509 h -1.92203 -1.92204 v 56.1509 56.1509 h 1.92204 1.92203 z m 11.91662,0 v -56.1509 h -1.92203 -1.92204 v 56.1509 56.1509 h 1.92204 1.92203 z m 15.98036,0 v -56.1509 h -1.92204 -1.92203 v 56.1509 56.1509 h 1.92203 1.92204 z m 11.91662,0 v -56.1509 h -1.92204 -1.92203 v 56.1509 56.1509 h 1.92203 1.92204 z m 15.98035,0 v -56.1509 h -1.92203 -1.92204 v 56.1509 56.1509 h 1.92204 1.92203 z m 11.91663,0 v -56.1509 h -1.92204 -1.92204 v 56.1509 56.1509 h 1.92204 1.92204 z m 15.98035,0 v -56.1509 h -1.92204 -1.92203 v 56.1509 56.1509 h 1.92203 1.92204 z m 11.91662,0 v -56.1509 h -1.92203 -1.92204 v 56.1509 56.1509 h 1.92204 1.92203 z M 142.25657,573.20385 v -56.1509 h -1.92204 -1.92203 v 56.1509 56.1509 h 1.92203 1.92204 z m 11.91662,0 v -56.1509 h -1.92203 -1.92204 v 56.1509 56.1509 h 1.92204 1.92203 z m 15.98036,0 v -56.1509 h -1.92204 -1.92203 v 56.1509 56.1509 h 1.92203 1.92204 z m 11.91662,0 v -56.1509 h -1.92204 -1.92203 v 56.1509 56.1509 h 1.92203 1.92204 z m 15.98035,0 v -56.1509 h -1.92203 -1.92204 v 56.1509 56.1509 h 1.92204 1.92203 z m 11.91662,0 v -56.1509 h -1.92203 -1.92204 v 56.1509 56.1509 h 1.92204 1.92203 z m 15.98036,0 v -56.1509 h -1.92204 -1.92203 v 56.1509 56.1509 h 1.92203 1.92204 z m 11.91662,0 v -56.1509 h -1.92204 -1.92203 v 56.1509 56.1509 h 1.92203 1.92204 z m 15.98036,0 v -56.1509 h -1.92204 -1.92204 v 56.1509 56.1509 h 1.92204 1.92204 z m 11.91662,0 v -56.1509 h -1.92204 -1.92203 v 56.1509 56.1509 h 1.92203 1.92204 z m 15.98035,0 v -56.1509 h -1.92203 -1.92204 v 56.1509 56.1509 h 1.92204 1.92203 z m 11.91662,0 v -56.1509 h -1.92203 -1.92204 v 56.1509 56.1509 h 1.92204 1.92203 z m 15.98036,0 v -56.1509 h -1.92204 -1.92203 v 56.1509 56.1509 h 1.92203 1.92204 z m 11.91662,0 v -56.1509 h -1.92204 -1.92203 v 56.1509 56.1509 h 1.92203 1.92204 z m 15.98035,0 v -56.1509 h -1.92203 -1.92204 v 56.1509 56.1509 h 1.92204 1.92203 z m 11.91663,0 v -56.1509 h -1.92204 -1.92204 v 56.1509 56.1509 h 1.92204 1.92204 z m 15.98035,0 v -56.1509 h -1.92204 -1.92203 v 56.1509 56.1509 h 1.92203 1.92204 z m 11.91662,0 v -56.1509 h -1.92203 -1.92204 v 56.1509 56.1509 h 1.92204 1.92203 z m 43.87733,0 v -56.1509 h -1.92203 -1.92204 v 56.1509 56.1509 h 1.92204 1.92203 z m 11.91662,0 v -56.1509 h -1.92203 -1.92204 v 56.1509 56.1509 h 1.92204 1.92203 z m 15.98036,0 v -56.1509 h -1.92204 -1.92203 v 56.1509 56.1509 h 1.92203 1.92204 z m 11.91662,0 v -56.1509 h -1.92204 -1.92203 v 56.1509 56.1509 h 1.92203 1.92204 z m 15.98035,0 v -56.1509 h -1.92203 -1.92204 v 56.1509 56.1509 h 1.92204 1.92203 z m 11.91663,0 v -56.1509 h -1.92204 -1.92204 v 56.1509 56.1509 h 1.92204 1.92204 z m 15.98035,0 v -56.1509 h -1.92204 -1.92203 v 56.1509 56.1509 h 1.92203 1.92204 z m 11.91662,0 v -56.1509 h -1.92203 -1.92204 v 56.1509 56.1509 h 1.92204 1.92203 z m 15.98036,0 v -56.1509 h -1.92204 -1.92204 v 56.1509 56.1509 h 1.92204 1.92204 z m 11.91662,0 v -56.1509 h -1.92204 -1.92203 v 56.1509 56.1509 h 1.92203 1.92204 z m 15.98035,0 v -56.1509 h -1.92203 -1.92204 v 56.1509 56.1509 h 1.92204 1.92203 z m 11.91662,0 v -56.1509 h -1.92203 -1.92204 v 56.1509 56.1509 h 1.92204 1.92203 z m 15.98036,0 v -56.1509 h -1.92204 -1.92203 v 56.1509 56.1509 h 1.92203 1.92204 z m 11.91662,0 v -56.1509 h -1.92204 -1.92203 v 56.1509 56.1509 h 1.92203 1.92204 z m 15.98035,0 v -56.1509 h -1.92203 -1.92204 v 56.1509 56.1509 h 1.92204 1.92203 z m 11.91663,0 v -56.1509 h -1.92204 -1.92204 v 56.1509 56.1509 h 1.92204 1.92204 z m 15.98035,0 v -56.1509 h -1.92204 -1.92203 v 56.1509 56.1509 h 1.92203 1.92204 z m 11.91662,0 v -56.1509 h -1.92203 -1.92204 v 56.1509 56.1509 h 1.92204 1.92203 z M 142.25657,455.41052 v -56.1509 h -1.92204 -1.92203 v 56.1509 56.1509 h 1.92203 1.92204 z m 11.91662,0 v -56.1509 h -1.92203 -1.92204 v 56.1509 56.1509 h 1.92204 1.92203 z m 15.98036,0 v -56.1509 h -1.92204 -1.92203 v 56.1509 56.1509 h 1.92203 1.92204 z m 11.91662,0 v -56.1509 h -1.92204 -1.92203 v 56.1509 56.1509 h 1.92203 1.92204 z m 15.98035,0 v -56.1509 h -1.92203 -1.92204 v 56.1509 56.1509 h 1.92204 1.92203 z m 11.91662,0 v -56.1509 h -1.92203 -1.92204 v 56.1509 56.1509 h 1.92204 1.92203 z m 15.98036,0 v -56.1509 h -1.92204 -1.92203 v 56.1509 56.1509 h 1.92203 1.92204 z m 11.91662,0 v -56.1509 h -1.92204 -1.92203 v 56.1509 56.1509 h 1.92203 1.92204 z m 15.98036,0 v -56.1509 h -1.92204 -1.92204 v 56.1509 56.1509 h 1.92204 1.92204 z m 11.91662,0 v -56.1509 h -1.92204 -1.92203 v 56.1509 56.1509 h 1.92203 1.92204 z m 15.98035,0 v -56.1509 h -1.92203 -1.92204 v 56.1509 56.1509 h 1.92204 1.92203 z m 11.91662,0 v -56.1509 h -1.92203 -1.92204 v 56.1509 56.1509 h 1.92204 1.92203 z m 15.98036,0 v -56.1509 h -1.92204 -1.92203 v 56.1509 56.1509 h 1.92203 1.92204 z m 11.91662,0 v -56.1509 h -1.92204 -1.92203 v 56.1509 56.1509 h 1.92203 1.92204 z m 15.98035,0 v -56.1509 h -1.92203 -1.92204 v 56.1509 56.1509 h 1.92204 1.92203 z m 11.91663,0 v -56.1509 h -1.92204 -1.92204 v 56.1509 56.1509 h 1.92204 1.92204 z m 15.98035,0 v -56.1509 h -1.92204 -1.92203 v 56.1509 56.1509 h 1.92203 1.92204 z m 11.91662,0 v -56.1509 h -1.92203 -1.92204 v 56.1509 56.1509 h 1.92204 1.92203 z m 43.87733,0 v -56.1509 h -1.92203 -1.92204 v 56.1509 56.1509 h 1.92204 1.92203 z m 11.91662,0 v -56.1509 h -1.92203 -1.92204 v 56.1509 56.1509 h 1.92204 1.92203 z m 15.98036,0 v -56.1509 h -1.92204 -1.92203 v 56.1509 56.1509 h 1.92203 1.92204 z m 11.91662,0 v -56.1509 h -1.92204 -1.92203 v 56.1509 56.1509 h 1.92203 1.92204 z m 15.98035,0 v -56.1509 h -1.92203 -1.92204 v 56.1509 56.1509 h 1.92204 1.92203 z m 11.91663,0 v -56.1509 h -1.92204 -1.92204 v 56.1509 56.1509 h 1.92204 1.92204 z m 15.98035,0 v -56.1509 h -1.92204 -1.92203 v 56.1509 56.1509 h 1.92203 1.92204 z m 11.91662,0 v -56.1509 h -1.92203 -1.92204 v 56.1509 56.1509 h 1.92204 1.92203 z m 15.98036,0 v -56.1509 h -1.92204 -1.92204 v 56.1509 56.1509 h 1.92204 1.92204 z m 11.91662,0 v -56.1509 h -1.92204 -1.92203 v 56.1509 56.1509 h 1.92203 1.92204 z m 15.98035,0 v -56.1509 h -1.92203 -1.92204 v 56.1509 56.1509 h 1.92204 1.92203 z m 11.91662,0 v -56.1509 h -1.92203 -1.92204 v 56.1509 56.1509 h 1.92204 1.92203 z m 15.98036,0 v -56.1509 h -1.92204 -1.92203 v 56.1509 56.1509 h 1.92203 1.92204 z m 11.91662,0 v -56.1509 h -1.92204 -1.92203 v 56.1509 56.1509 h 1.92203 1.92204 z m 15.98035,0 v -56.1509 h -1.92203 -1.92204 v 56.1509 56.1509 h 1.92204 1.92203 z m 11.91663,0 v -56.1509 h -1.92204 -1.92204 v 56.1509 56.1509 h 1.92204 1.92204 z m 15.98035,0 v -56.1509 h -1.92204 -1.92203 v 56.1509 56.1509 h 1.92203 1.92204 z m 11.91662,0 v -56.1509 h -1.92203 -1.92204 v 56.1509 56.1509 h 1.92204 1.92203 z M 142.25657,337.61719 V 281.4663 h -1.92204 -1.92203 v 56.15089 56.1509 h 1.92203 1.92204 z m 11.91662,0 V 281.4663 h -1.92203 -1.92204 v 56.15089 56.1509 h 1.92204 1.92203 z m 15.98036,0 V 281.4663 h -1.92204 -1.92203 v 56.15089 56.1509 h 1.92203 1.92204 z m 11.91662,0 V 281.4663 h -1.92204 -1.92203 v 56.15089 56.1509 h 1.92203 1.92204 z m 15.98035,0 V 281.4663 h -1.92203 -1.92204 v 56.15089 56.1509 h 1.92204 1.92203 z m 11.91662,0 V 281.4663 h -1.92203 -1.92204 v 56.15089 56.1509 h 1.92204 1.92203 z m 15.98036,0 V 281.4663 h -1.92204 -1.92203 v 56.15089 56.1509 h 1.92203 1.92204 z m 11.91662,0 V 281.4663 h -1.92204 -1.92203 v 56.15089 56.1509 h 1.92203 1.92204 z m 15.98036,0 V 281.4663 h -1.92204 -1.92204 v 56.15089 56.1509 h 1.92204 1.92204 z m 11.91662,0 V 281.4663 h -1.92204 -1.92203 v 56.15089 56.1509 h 1.92203 1.92204 z m 15.98035,0 V 281.4663 h -1.92203 -1.92204 v 56.15089 56.1509 h 1.92204 1.92203 z m 11.91662,0 V 281.4663 h -1.92203 -1.92204 v 56.15089 56.1509 h 1.92204 1.92203 z m 15.98036,0 V 281.4663 h -1.92204 -1.92203 v 56.15089 56.1509 h 1.92203 1.92204 z m 11.91662,0 V 281.4663 h -1.92204 -1.92203 v 56.15089 56.1509 h 1.92203 1.92204 z m 15.98035,0 V 281.4663 h -1.92203 -1.92204 v 56.15089 56.1509 h 1.92204 1.92203 z m 11.91663,0 V 281.4663 h -1.92204 -1.92204 v 56.15089 56.1509 h 1.92204 1.92204 z m 15.98035,0 V 281.4663 h -1.92204 -1.92203 v 56.15089 56.1509 h 1.92203 1.92204 z m 11.91662,0 V 281.4663 h -1.92203 -1.92204 v 56.15089 56.1509 h 1.92204 1.92203 z m 43.87733,0 V 281.4663 h -1.92203 -1.92204 v 56.15089 56.1509 h 1.92204 1.92203 z m 11.91662,0 V 281.4663 h -1.92203 -1.92204 v 56.15089 56.1509 h 1.92204 1.92203 z m 15.98036,0 V 281.4663 h -1.92204 -1.92203 v 56.15089 56.1509 h 1.92203 1.92204 z m 11.91662,0 V 281.4663 h -1.92204 -1.92203 v 56.15089 56.1509 h 1.92203 1.92204 z m 15.98035,0 V 281.4663 h -1.92203 -1.92204 v 56.15089 56.1509 h 1.92204 1.92203 z m 11.91663,0 V 281.4663 h -1.92204 -1.92204 v 56.15089 56.1509 h 1.92204 1.92204 z m 15.98035,0 V 281.4663 h -1.92204 -1.92203 v 56.15089 56.1509 h 1.92203 1.92204 z m 11.91662,0 V 281.4663 h -1.92203 -1.92204 v 56.15089 56.1509 h 1.92204 1.92203 z m 15.98036,0 V 281.4663 h -1.92204 -1.92204 v 56.15089 56.1509 h 1.92204 1.92204 z m 11.91662,0 V 281.4663 h -1.92204 -1.92203 v 56.15089 56.1509 h 1.92203 1.92204 z m 15.98035,0 V 281.4663 h -1.92203 -1.92204 v 56.15089 56.1509 h 1.92204 1.92203 z m 11.91662,0 V 281.4663 h -1.92203 -1.92204 v 56.15089 56.1509 h 1.92204 1.92203 z m 15.98036,0 V 281.4663 h -1.92204 -1.92203 v 56.15089 56.1509 h 1.92203 1.92204 z m 11.91662,0 V 281.4663 h -1.92204 -1.92203 v 56.15089 56.1509 h 1.92203 1.92204 z m 15.98035,0 V 281.4663 h -1.92203 -1.92204 v 56.15089 56.1509 h 1.92204 1.92203 z m 11.91663,0 V 281.4663 h -1.92204 -1.92204 v 56.15089 56.1509 h 1.92204 1.92204 z m 15.98035,0 V 281.4663 h -1.92204 -1.92203 v 56.15089 56.1509 h 1.92203 1.92204 z m 11.91662,0 V 281.4663 h -1.92203 -1.92204 v 56.15089 56.1509 h 1.92204 1.92203 z m -267.16297,235.5592 v -54.9153 h 8.2373 8.23729 v 54.9153 54.91531 h -8.23729 -8.2373 z m 15.92544,0 v -54.36615 h -7.68814 -7.68814 v 54.36615 54.36616 h 7.68814 7.68814 z"
         id="path1" /></g></g></svg>
