<?xml version="1.0" encoding="utf-8" standalone="no"?>
<!DOCTYPE svg PUBLIC "-//W3C//DTD SVG 1.1//EN"
  "http://www.w3.org/Graphics/SVG/1.1/DTD/svg11.dtd">
<svg xmlns:xlink="http://www.w3.org/1999/xlink" width="940.32pt" height="618.48pt" viewBox="0 0 940.32 618.48" xmlns="http://www.w3.org/2000/svg" version="1.1">
 <metadata>
  <rdf:RDF xmlns:dc="http://purl.org/dc/elements/1.1/" xmlns:cc="http://creativecommons.org/ns#" xmlns:rdf="http://www.w3.org/1999/02/22-rdf-syntax-ns#">
   <cc:Work>
    <dc:type rdf:resource="http://purl.org/dc/dcmitype/StillImage"/>
    <dc:date>2024-09-09T21:20:13.797815</dc:date>
    <dc:format>image/svg+xml</dc:format>
    <dc:creator>
     <cc:Agent>
      <dc:title>Matplotlib v3.9.0, https://matplotlib.org/</dc:title>
     </cc:Agent>
    </dc:creator>
   </cc:Work>
  </rdf:RDF>
 </metadata>
 <defs>
  <style type="text/css">*{stroke-linejoin: round; stroke-linecap: butt}</style>
 </defs>
 <g id="figure_1">
  <g id="patch_1">
   <path d="M 0 618.48 
L 940.32 618.48 
L 940.32 0 
L 0 0 
z
" style="fill: #ffffff"/>
  </g>
  <g id="axes_1">
   <g id="patch_2">
    <path d="M 141.333688 504.209573 
L 918.28125 504.209573 
L 918.28125 69.344727 
L 141.333688 69.344727 
z
" style="fill: #ffffff"/>
   </g>
   <g id="matplotlib.axis_1">
    <g id="xtick_1">
     <g id="line2d_1">
      <path d="M 210.089064 504.209573 
L 210.089064 69.344727 
" clip-path="url(#pe813bc63bc)" style="fill: none; stroke-dasharray: 0.74,0.32; stroke-dashoffset: 0; stroke: #808080; stroke-width: 0.2"/>
     </g>
     <g id="line2d_2">
      <defs>
       <path id="mf93b1e2ef4" d="M 0 0 
L 0 3.5 
" style="stroke: #000000; stroke-width: 0.8"/>
      </defs>
      <g>
       <use xlink:href="#mf93b1e2ef4" x="210.089064" y="504.209573" style="stroke: #000000; stroke-width: 0.8"/>
      </g>
     </g>
     <g id="text_1">
      <!-- $\mathdefault{10^{1}}$ -->
      <g transform="translate(199.529064 522.427698) scale(0.12 -0.12)">
       <defs>
        <path id="DejaVuSans-31" d="M 794 531 
L 1825 531 
L 1825 4091 
L 703 3866 
L 703 4441 
L 1819 4666 
L 2450 4666 
L 2450 531 
L 3481 531 
L 3481 0 
L 794 0 
L 794 531 
z
" transform="scale(0.015625)"/>
        <path id="DejaVuSans-30" d="M 2034 4250 
Q 1547 4250 1301 3770 
Q 1056 3291 1056 2328 
Q 1056 1369 1301 889 
Q 1547 409 2034 409 
Q 2525 409 2770 889 
Q 3016 1369 3016 2328 
Q 3016 3291 2770 3770 
Q 2525 4250 2034 4250 
z
M 2034 4750 
Q 2819 4750 3233 4129 
Q 3647 3509 3647 2328 
Q 3647 1150 3233 529 
Q 2819 -91 2034 -91 
Q 1250 -91 836 529 
Q 422 1150 422 2328 
Q 422 3509 836 4129 
Q 1250 4750 2034 4750 
z
" transform="scale(0.015625)"/>
       </defs>
       <use xlink:href="#DejaVuSans-31" transform="translate(0 0.684375)"/>
       <use xlink:href="#DejaVuSans-30" transform="translate(63.623047 0.684375)"/>
       <use xlink:href="#DejaVuSans-31" transform="translate(128.203125 38.965625) scale(0.7)"/>
      </g>
     </g>
    </g>
    <g id="xtick_2">
     <g id="line2d_3">
      <path d="M 376.130537 504.209573 
L 376.130537 69.344727 
" clip-path="url(#pe813bc63bc)" style="fill: none; stroke-dasharray: 0.74,0.32; stroke-dashoffset: 0; stroke: #808080; stroke-width: 0.2"/>
     </g>
     <g id="line2d_4">
      <g>
       <use xlink:href="#mf93b1e2ef4" x="376.130537" y="504.209573" style="stroke: #000000; stroke-width: 0.8"/>
      </g>
     </g>
     <g id="text_2">
      <!-- $\mathdefault{10^{2}}$ -->
      <g transform="translate(365.570537 522.427698) scale(0.12 -0.12)">
       <defs>
        <path id="DejaVuSans-32" d="M 1228 531 
L 3431 531 
L 3431 0 
L 469 0 
L 469 531 
Q 828 903 1448 1529 
Q 2069 2156 2228 2338 
Q 2531 2678 2651 2914 
Q 2772 3150 2772 3378 
Q 2772 3750 2511 3984 
Q 2250 4219 1831 4219 
Q 1534 4219 1204 4116 
Q 875 4013 500 3803 
L 500 4441 
Q 881 4594 1212 4672 
Q 1544 4750 1819 4750 
Q 2544 4750 2975 4387 
Q 3406 4025 3406 3419 
Q 3406 3131 3298 2873 
Q 3191 2616 2906 2266 
Q 2828 2175 2409 1742 
Q 1991 1309 1228 531 
z
" transform="scale(0.015625)"/>
       </defs>
       <use xlink:href="#DejaVuSans-31" transform="translate(0 0.765625)"/>
       <use xlink:href="#DejaVuSans-30" transform="translate(63.623047 0.765625)"/>
       <use xlink:href="#DejaVuSans-32" transform="translate(128.203125 39.046875) scale(0.7)"/>
      </g>
     </g>
    </g>
    <g id="xtick_3">
     <g id="line2d_5">
      <path d="M 542.172011 504.209573 
L 542.172011 69.344727 
" clip-path="url(#pe813bc63bc)" style="fill: none; stroke-dasharray: 0.74,0.32; stroke-dashoffset: 0; stroke: #808080; stroke-width: 0.2"/>
     </g>
     <g id="line2d_6">
      <g>
       <use xlink:href="#mf93b1e2ef4" x="542.172011" y="504.209573" style="stroke: #000000; stroke-width: 0.8"/>
      </g>
     </g>
     <g id="text_3">
      <!-- $\mathdefault{10^{3}}$ -->
      <g transform="translate(531.612011 522.427698) scale(0.12 -0.12)">
       <defs>
        <path id="DejaVuSans-33" d="M 2597 2516 
Q 3050 2419 3304 2112 
Q 3559 1806 3559 1356 
Q 3559 666 3084 287 
Q 2609 -91 1734 -91 
Q 1441 -91 1130 -33 
Q 819 25 488 141 
L 488 750 
Q 750 597 1062 519 
Q 1375 441 1716 441 
Q 2309 441 2620 675 
Q 2931 909 2931 1356 
Q 2931 1769 2642 2001 
Q 2353 2234 1838 2234 
L 1294 2234 
L 1294 2753 
L 1863 2753 
Q 2328 2753 2575 2939 
Q 2822 3125 2822 3475 
Q 2822 3834 2567 4026 
Q 2313 4219 1838 4219 
Q 1578 4219 1281 4162 
Q 984 4106 628 3988 
L 628 4550 
Q 988 4650 1302 4700 
Q 1616 4750 1894 4750 
Q 2613 4750 3031 4423 
Q 3450 4097 3450 3541 
Q 3450 3153 3228 2886 
Q 3006 2619 2597 2516 
z
" transform="scale(0.015625)"/>
       </defs>
       <use xlink:href="#DejaVuSans-31" transform="translate(0 0.765625)"/>
       <use xlink:href="#DejaVuSans-30" transform="translate(63.623047 0.765625)"/>
       <use xlink:href="#DejaVuSans-33" transform="translate(128.203125 39.046875) scale(0.7)"/>
      </g>
     </g>
    </g>
    <g id="xtick_4">
     <g id="line2d_7">
      <path d="M 708.213484 504.209573 
L 708.213484 69.344727 
" clip-path="url(#pe813bc63bc)" style="fill: none; stroke-dasharray: 0.74,0.32; stroke-dashoffset: 0; stroke: #808080; stroke-width: 0.2"/>
     </g>
     <g id="line2d_8">
      <g>
       <use xlink:href="#mf93b1e2ef4" x="708.213484" y="504.209573" style="stroke: #000000; stroke-width: 0.8"/>
      </g>
     </g>
     <g id="text_4">
      <!-- $\mathdefault{10^{4}}$ -->
      <g transform="translate(697.653484 522.427698) scale(0.12 -0.12)">
       <defs>
        <path id="DejaVuSans-34" d="M 2419 4116 
L 825 1625 
L 2419 1625 
L 2419 4116 
z
M 2253 4666 
L 3047 4666 
L 3047 1625 
L 3713 1625 
L 3713 1100 
L 3047 1100 
L 3047 0 
L 2419 0 
L 2419 1100 
L 313 1100 
L 313 1709 
L 2253 4666 
z
" transform="scale(0.015625)"/>
       </defs>
       <use xlink:href="#DejaVuSans-31" transform="translate(0 0.684375)"/>
       <use xlink:href="#DejaVuSans-30" transform="translate(63.623047 0.684375)"/>
       <use xlink:href="#DejaVuSans-34" transform="translate(128.203125 38.965625) scale(0.7)"/>
      </g>
     </g>
    </g>
    <g id="xtick_5">
     <g id="line2d_9">
      <path d="M 874.254958 504.209573 
L 874.254958 69.344727 
" clip-path="url(#pe813bc63bc)" style="fill: none; stroke-dasharray: 0.74,0.32; stroke-dashoffset: 0; stroke: #808080; stroke-width: 0.2"/>
     </g>
     <g id="line2d_10">
      <g>
       <use xlink:href="#mf93b1e2ef4" x="874.254958" y="504.209573" style="stroke: #000000; stroke-width: 0.8"/>
      </g>
     </g>
     <g id="text_5">
      <!-- $\mathdefault{10^{5}}$ -->
      <g transform="translate(863.694958 522.427698) scale(0.12 -0.12)">
       <defs>
        <path id="DejaVuSans-35" d="M 691 4666 
L 3169 4666 
L 3169 4134 
L 1269 4134 
L 1269 2991 
Q 1406 3038 1543 3061 
Q 1681 3084 1819 3084 
Q 2600 3084 3056 2656 
Q 3513 2228 3513 1497 
Q 3513 744 3044 326 
Q 2575 -91 1722 -91 
Q 1428 -91 1123 -41 
Q 819 9 494 109 
L 494 744 
Q 775 591 1075 516 
Q 1375 441 1709 441 
Q 2250 441 2565 725 
Q 2881 1009 2881 1497 
Q 2881 1984 2565 2268 
Q 2250 2553 1709 2553 
Q 1456 2553 1204 2497 
Q 953 2441 691 2322 
L 691 4666 
z
" transform="scale(0.015625)"/>
       </defs>
       <use xlink:href="#DejaVuSans-31" transform="translate(0 0.684375)"/>
       <use xlink:href="#DejaVuSans-30" transform="translate(63.623047 0.684375)"/>
       <use xlink:href="#DejaVuSans-35" transform="translate(128.203125 38.965625) scale(0.7)"/>
      </g>
     </g>
    </g>
    <g id="xtick_6">
     <g id="line2d_11">
      <path d="M 144.014518 504.209573 
L 144.014518 69.344727 
" clip-path="url(#pe813bc63bc)" style="fill: none; stroke-dasharray: 0.74,0.32; stroke-dashoffset: 0; stroke: #808080; stroke-width: 0.2"/>
     </g>
     <g id="line2d_12">
      <defs>
       <path id="m2962ae9dbf" d="M 0 0 
L 0 2 
" style="stroke: #000000; stroke-width: 0.4"/>
      </defs>
      <g>
       <use xlink:href="#m2962ae9dbf" x="144.014518" y="504.209573" style="stroke: #000000; stroke-width: 0.4"/>
      </g>
     </g>
    </g>
    <g id="xtick_7">
     <g id="line2d_13">
      <path d="M 160.1056 504.209573 
L 160.1056 69.344727 
" clip-path="url(#pe813bc63bc)" style="fill: none; stroke-dasharray: 0.74,0.32; stroke-dashoffset: 0; stroke: #808080; stroke-width: 0.2"/>
     </g>
     <g id="line2d_14">
      <g>
       <use xlink:href="#m2962ae9dbf" x="160.1056" y="504.209573" style="stroke: #000000; stroke-width: 0.4"/>
      </g>
     </g>
    </g>
    <g id="xtick_8">
     <g id="line2d_15">
      <path d="M 173.25297 504.209573 
L 173.25297 69.344727 
" clip-path="url(#pe813bc63bc)" style="fill: none; stroke-dasharray: 0.74,0.32; stroke-dashoffset: 0; stroke: #808080; stroke-width: 0.2"/>
     </g>
     <g id="line2d_16">
      <g>
       <use xlink:href="#m2962ae9dbf" x="173.25297" y="504.209573" style="stroke: #000000; stroke-width: 0.4"/>
      </g>
     </g>
    </g>
    <g id="xtick_9">
     <g id="line2d_17">
      <path d="M 184.368914 504.209573 
L 184.368914 69.344727 
" clip-path="url(#pe813bc63bc)" style="fill: none; stroke-dasharray: 0.74,0.32; stroke-dashoffset: 0; stroke: #808080; stroke-width: 0.2"/>
     </g>
     <g id="line2d_18">
      <g>
       <use xlink:href="#m2962ae9dbf" x="184.368914" y="504.209573" style="stroke: #000000; stroke-width: 0.4"/>
      </g>
     </g>
    </g>
    <g id="xtick_10">
     <g id="line2d_19">
      <path d="M 193.997982 504.209573 
L 193.997982 69.344727 
" clip-path="url(#pe813bc63bc)" style="fill: none; stroke-dasharray: 0.74,0.32; stroke-dashoffset: 0; stroke: #808080; stroke-width: 0.2"/>
     </g>
     <g id="line2d_20">
      <g>
       <use xlink:href="#m2962ae9dbf" x="193.997982" y="504.209573" style="stroke: #000000; stroke-width: 0.4"/>
      </g>
     </g>
    </g>
    <g id="xtick_11">
     <g id="line2d_21">
      <path d="M 202.491422 504.209573 
L 202.491422 69.344727 
" clip-path="url(#pe813bc63bc)" style="fill: none; stroke-dasharray: 0.74,0.32; stroke-dashoffset: 0; stroke: #808080; stroke-width: 0.2"/>
     </g>
     <g id="line2d_22">
      <g>
       <use xlink:href="#m2962ae9dbf" x="202.491422" y="504.209573" style="stroke: #000000; stroke-width: 0.4"/>
      </g>
     </g>
    </g>
    <g id="xtick_12">
     <g id="line2d_23">
      <path d="M 260.072528 504.209573 
L 260.072528 69.344727 
" clip-path="url(#pe813bc63bc)" style="fill: none; stroke-dasharray: 0.74,0.32; stroke-dashoffset: 0; stroke: #808080; stroke-width: 0.2"/>
     </g>
     <g id="line2d_24">
      <g>
       <use xlink:href="#m2962ae9dbf" x="260.072528" y="504.209573" style="stroke: #000000; stroke-width: 0.4"/>
      </g>
     </g>
    </g>
    <g id="xtick_13">
     <g id="line2d_25">
      <path d="M 289.31098 504.209573 
L 289.31098 69.344727 
" clip-path="url(#pe813bc63bc)" style="fill: none; stroke-dasharray: 0.74,0.32; stroke-dashoffset: 0; stroke: #808080; stroke-width: 0.2"/>
     </g>
     <g id="line2d_26">
      <g>
       <use xlink:href="#m2962ae9dbf" x="289.31098" y="504.209573" style="stroke: #000000; stroke-width: 0.4"/>
      </g>
     </g>
    </g>
    <g id="xtick_14">
     <g id="line2d_27">
      <path d="M 310.055992 504.209573 
L 310.055992 69.344727 
" clip-path="url(#pe813bc63bc)" style="fill: none; stroke-dasharray: 0.74,0.32; stroke-dashoffset: 0; stroke: #808080; stroke-width: 0.2"/>
     </g>
     <g id="line2d_28">
      <g>
       <use xlink:href="#m2962ae9dbf" x="310.055992" y="504.209573" style="stroke: #000000; stroke-width: 0.4"/>
      </g>
     </g>
    </g>
    <g id="xtick_15">
     <g id="line2d_29">
      <path d="M 326.147073 504.209573 
L 326.147073 69.344727 
" clip-path="url(#pe813bc63bc)" style="fill: none; stroke-dasharray: 0.74,0.32; stroke-dashoffset: 0; stroke: #808080; stroke-width: 0.2"/>
     </g>
     <g id="line2d_30">
      <g>
       <use xlink:href="#m2962ae9dbf" x="326.147073" y="504.209573" style="stroke: #000000; stroke-width: 0.4"/>
      </g>
     </g>
    </g>
    <g id="xtick_16">
     <g id="line2d_31">
      <path d="M 339.294444 504.209573 
L 339.294444 69.344727 
" clip-path="url(#pe813bc63bc)" style="fill: none; stroke-dasharray: 0.74,0.32; stroke-dashoffset: 0; stroke: #808080; stroke-width: 0.2"/>
     </g>
     <g id="line2d_32">
      <g>
       <use xlink:href="#m2962ae9dbf" x="339.294444" y="504.209573" style="stroke: #000000; stroke-width: 0.4"/>
      </g>
     </g>
    </g>
    <g id="xtick_17">
     <g id="line2d_33">
      <path d="M 350.410387 504.209573 
L 350.410387 69.344727 
" clip-path="url(#pe813bc63bc)" style="fill: none; stroke-dasharray: 0.74,0.32; stroke-dashoffset: 0; stroke: #808080; stroke-width: 0.2"/>
     </g>
     <g id="line2d_34">
      <g>
       <use xlink:href="#m2962ae9dbf" x="350.410387" y="504.209573" style="stroke: #000000; stroke-width: 0.4"/>
      </g>
     </g>
    </g>
    <g id="xtick_18">
     <g id="line2d_35">
      <path d="M 360.039456 504.209573 
L 360.039456 69.344727 
" clip-path="url(#pe813bc63bc)" style="fill: none; stroke-dasharray: 0.74,0.32; stroke-dashoffset: 0; stroke: #808080; stroke-width: 0.2"/>
     </g>
     <g id="line2d_36">
      <g>
       <use xlink:href="#m2962ae9dbf" x="360.039456" y="504.209573" style="stroke: #000000; stroke-width: 0.4"/>
      </g>
     </g>
    </g>
    <g id="xtick_19">
     <g id="line2d_37">
      <path d="M 368.532896 504.209573 
L 368.532896 69.344727 
" clip-path="url(#pe813bc63bc)" style="fill: none; stroke-dasharray: 0.74,0.32; stroke-dashoffset: 0; stroke: #808080; stroke-width: 0.2"/>
     </g>
     <g id="line2d_38">
      <g>
       <use xlink:href="#m2962ae9dbf" x="368.532896" y="504.209573" style="stroke: #000000; stroke-width: 0.4"/>
      </g>
     </g>
    </g>
    <g id="xtick_20">
     <g id="line2d_39">
      <path d="M 426.114001 504.209573 
L 426.114001 69.344727 
" clip-path="url(#pe813bc63bc)" style="fill: none; stroke-dasharray: 0.74,0.32; stroke-dashoffset: 0; stroke: #808080; stroke-width: 0.2"/>
     </g>
     <g id="line2d_40">
      <g>
       <use xlink:href="#m2962ae9dbf" x="426.114001" y="504.209573" style="stroke: #000000; stroke-width: 0.4"/>
      </g>
     </g>
    </g>
    <g id="xtick_21">
     <g id="line2d_41">
      <path d="M 455.352453 504.209573 
L 455.352453 69.344727 
" clip-path="url(#pe813bc63bc)" style="fill: none; stroke-dasharray: 0.74,0.32; stroke-dashoffset: 0; stroke: #808080; stroke-width: 0.2"/>
     </g>
     <g id="line2d_42">
      <g>
       <use xlink:href="#m2962ae9dbf" x="455.352453" y="504.209573" style="stroke: #000000; stroke-width: 0.4"/>
      </g>
     </g>
    </g>
    <g id="xtick_22">
     <g id="line2d_43">
      <path d="M 476.097465 504.209573 
L 476.097465 69.344727 
" clip-path="url(#pe813bc63bc)" style="fill: none; stroke-dasharray: 0.74,0.32; stroke-dashoffset: 0; stroke: #808080; stroke-width: 0.2"/>
     </g>
     <g id="line2d_44">
      <g>
       <use xlink:href="#m2962ae9dbf" x="476.097465" y="504.209573" style="stroke: #000000; stroke-width: 0.4"/>
      </g>
     </g>
    </g>
    <g id="xtick_23">
     <g id="line2d_45">
      <path d="M 492.188547 504.209573 
L 492.188547 69.344727 
" clip-path="url(#pe813bc63bc)" style="fill: none; stroke-dasharray: 0.74,0.32; stroke-dashoffset: 0; stroke: #808080; stroke-width: 0.2"/>
     </g>
     <g id="line2d_46">
      <g>
       <use xlink:href="#m2962ae9dbf" x="492.188547" y="504.209573" style="stroke: #000000; stroke-width: 0.4"/>
      </g>
     </g>
    </g>
    <g id="xtick_24">
     <g id="line2d_47">
      <path d="M 505.335917 504.209573 
L 505.335917 69.344727 
" clip-path="url(#pe813bc63bc)" style="fill: none; stroke-dasharray: 0.74,0.32; stroke-dashoffset: 0; stroke: #808080; stroke-width: 0.2"/>
     </g>
     <g id="line2d_48">
      <g>
       <use xlink:href="#m2962ae9dbf" x="505.335917" y="504.209573" style="stroke: #000000; stroke-width: 0.4"/>
      </g>
     </g>
    </g>
    <g id="xtick_25">
     <g id="line2d_49">
      <path d="M 516.451861 504.209573 
L 516.451861 69.344727 
" clip-path="url(#pe813bc63bc)" style="fill: none; stroke-dasharray: 0.74,0.32; stroke-dashoffset: 0; stroke: #808080; stroke-width: 0.2"/>
     </g>
     <g id="line2d_50">
      <g>
       <use xlink:href="#m2962ae9dbf" x="516.451861" y="504.209573" style="stroke: #000000; stroke-width: 0.4"/>
      </g>
     </g>
    </g>
    <g id="xtick_26">
     <g id="line2d_51">
      <path d="M 526.080929 504.209573 
L 526.080929 69.344727 
" clip-path="url(#pe813bc63bc)" style="fill: none; stroke-dasharray: 0.74,0.32; stroke-dashoffset: 0; stroke: #808080; stroke-width: 0.2"/>
     </g>
     <g id="line2d_52">
      <g>
       <use xlink:href="#m2962ae9dbf" x="526.080929" y="504.209573" style="stroke: #000000; stroke-width: 0.4"/>
      </g>
     </g>
    </g>
    <g id="xtick_27">
     <g id="line2d_53">
      <path d="M 534.574369 504.209573 
L 534.574369 69.344727 
" clip-path="url(#pe813bc63bc)" style="fill: none; stroke-dasharray: 0.74,0.32; stroke-dashoffset: 0; stroke: #808080; stroke-width: 0.2"/>
     </g>
     <g id="line2d_54">
      <g>
       <use xlink:href="#m2962ae9dbf" x="534.574369" y="504.209573" style="stroke: #000000; stroke-width: 0.4"/>
      </g>
     </g>
    </g>
    <g id="xtick_28">
     <g id="line2d_55">
      <path d="M 592.155475 504.209573 
L 592.155475 69.344727 
" clip-path="url(#pe813bc63bc)" style="fill: none; stroke-dasharray: 0.74,0.32; stroke-dashoffset: 0; stroke: #808080; stroke-width: 0.2"/>
     </g>
     <g id="line2d_56">
      <g>
       <use xlink:href="#m2962ae9dbf" x="592.155475" y="504.209573" style="stroke: #000000; stroke-width: 0.4"/>
      </g>
     </g>
    </g>
    <g id="xtick_29">
     <g id="line2d_57">
      <path d="M 621.393927 504.209573 
L 621.393927 69.344727 
" clip-path="url(#pe813bc63bc)" style="fill: none; stroke-dasharray: 0.74,0.32; stroke-dashoffset: 0; stroke: #808080; stroke-width: 0.2"/>
     </g>
     <g id="line2d_58">
      <g>
       <use xlink:href="#m2962ae9dbf" x="621.393927" y="504.209573" style="stroke: #000000; stroke-width: 0.4"/>
      </g>
     </g>
    </g>
    <g id="xtick_30">
     <g id="line2d_59">
      <path d="M 642.138939 504.209573 
L 642.138939 69.344727 
" clip-path="url(#pe813bc63bc)" style="fill: none; stroke-dasharray: 0.74,0.32; stroke-dashoffset: 0; stroke: #808080; stroke-width: 0.2"/>
     </g>
     <g id="line2d_60">
      <g>
       <use xlink:href="#m2962ae9dbf" x="642.138939" y="504.209573" style="stroke: #000000; stroke-width: 0.4"/>
      </g>
     </g>
    </g>
    <g id="xtick_31">
     <g id="line2d_61">
      <path d="M 658.23002 504.209573 
L 658.23002 69.344727 
" clip-path="url(#pe813bc63bc)" style="fill: none; stroke-dasharray: 0.74,0.32; stroke-dashoffset: 0; stroke: #808080; stroke-width: 0.2"/>
     </g>
     <g id="line2d_62">
      <g>
       <use xlink:href="#m2962ae9dbf" x="658.23002" y="504.209573" style="stroke: #000000; stroke-width: 0.4"/>
      </g>
     </g>
    </g>
    <g id="xtick_32">
     <g id="line2d_63">
      <path d="M 671.377391 504.209573 
L 671.377391 69.344727 
" clip-path="url(#pe813bc63bc)" style="fill: none; stroke-dasharray: 0.74,0.32; stroke-dashoffset: 0; stroke: #808080; stroke-width: 0.2"/>
     </g>
     <g id="line2d_64">
      <g>
       <use xlink:href="#m2962ae9dbf" x="671.377391" y="504.209573" style="stroke: #000000; stroke-width: 0.4"/>
      </g>
     </g>
    </g>
    <g id="xtick_33">
     <g id="line2d_65">
      <path d="M 682.493334 504.209573 
L 682.493334 69.344727 
" clip-path="url(#pe813bc63bc)" style="fill: none; stroke-dasharray: 0.74,0.32; stroke-dashoffset: 0; stroke: #808080; stroke-width: 0.2"/>
     </g>
     <g id="line2d_66">
      <g>
       <use xlink:href="#m2962ae9dbf" x="682.493334" y="504.209573" style="stroke: #000000; stroke-width: 0.4"/>
      </g>
     </g>
    </g>
    <g id="xtick_34">
     <g id="line2d_67">
      <path d="M 692.122403 504.209573 
L 692.122403 69.344727 
" clip-path="url(#pe813bc63bc)" style="fill: none; stroke-dasharray: 0.74,0.32; stroke-dashoffset: 0; stroke: #808080; stroke-width: 0.2"/>
     </g>
     <g id="line2d_68">
      <g>
       <use xlink:href="#m2962ae9dbf" x="692.122403" y="504.209573" style="stroke: #000000; stroke-width: 0.4"/>
      </g>
     </g>
    </g>
    <g id="xtick_35">
     <g id="line2d_69">
      <path d="M 700.615843 504.209573 
L 700.615843 69.344727 
" clip-path="url(#pe813bc63bc)" style="fill: none; stroke-dasharray: 0.74,0.32; stroke-dashoffset: 0; stroke: #808080; stroke-width: 0.2"/>
     </g>
     <g id="line2d_70">
      <g>
       <use xlink:href="#m2962ae9dbf" x="700.615843" y="504.209573" style="stroke: #000000; stroke-width: 0.4"/>
      </g>
     </g>
    </g>
    <g id="xtick_36">
     <g id="line2d_71">
      <path d="M 758.196948 504.209573 
L 758.196948 69.344727 
" clip-path="url(#pe813bc63bc)" style="fill: none; stroke-dasharray: 0.74,0.32; stroke-dashoffset: 0; stroke: #808080; stroke-width: 0.2"/>
     </g>
     <g id="line2d_72">
      <g>
       <use xlink:href="#m2962ae9dbf" x="758.196948" y="504.209573" style="stroke: #000000; stroke-width: 0.4"/>
      </g>
     </g>
    </g>
    <g id="xtick_37">
     <g id="line2d_73">
      <path d="M 787.4354 504.209573 
L 787.4354 69.344727 
" clip-path="url(#pe813bc63bc)" style="fill: none; stroke-dasharray: 0.74,0.32; stroke-dashoffset: 0; stroke: #808080; stroke-width: 0.2"/>
     </g>
     <g id="line2d_74">
      <g>
       <use xlink:href="#m2962ae9dbf" x="787.4354" y="504.209573" style="stroke: #000000; stroke-width: 0.4"/>
      </g>
     </g>
    </g>
    <g id="xtick_38">
     <g id="line2d_75">
      <path d="M 808.180412 504.209573 
L 808.180412 69.344727 
" clip-path="url(#pe813bc63bc)" style="fill: none; stroke-dasharray: 0.74,0.32; stroke-dashoffset: 0; stroke: #808080; stroke-width: 0.2"/>
     </g>
     <g id="line2d_76">
      <g>
       <use xlink:href="#m2962ae9dbf" x="808.180412" y="504.209573" style="stroke: #000000; stroke-width: 0.4"/>
      </g>
     </g>
    </g>
    <g id="xtick_39">
     <g id="line2d_77">
      <path d="M 824.271493 504.209573 
L 824.271493 69.344727 
" clip-path="url(#pe813bc63bc)" style="fill: none; stroke-dasharray: 0.74,0.32; stroke-dashoffset: 0; stroke: #808080; stroke-width: 0.2"/>
     </g>
     <g id="line2d_78">
      <g>
       <use xlink:href="#m2962ae9dbf" x="824.271493" y="504.209573" style="stroke: #000000; stroke-width: 0.4"/>
      </g>
     </g>
    </g>
    <g id="xtick_40">
     <g id="line2d_79">
      <path d="M 837.418864 504.209573 
L 837.418864 69.344727 
" clip-path="url(#pe813bc63bc)" style="fill: none; stroke-dasharray: 0.74,0.32; stroke-dashoffset: 0; stroke: #808080; stroke-width: 0.2"/>
     </g>
     <g id="line2d_80">
      <g>
       <use xlink:href="#m2962ae9dbf" x="837.418864" y="504.209573" style="stroke: #000000; stroke-width: 0.4"/>
      </g>
     </g>
    </g>
    <g id="xtick_41">
     <g id="line2d_81">
      <path d="M 848.534808 504.209573 
L 848.534808 69.344727 
" clip-path="url(#pe813bc63bc)" style="fill: none; stroke-dasharray: 0.74,0.32; stroke-dashoffset: 0; stroke: #808080; stroke-width: 0.2"/>
     </g>
     <g id="line2d_82">
      <g>
       <use xlink:href="#m2962ae9dbf" x="848.534808" y="504.209573" style="stroke: #000000; stroke-width: 0.4"/>
      </g>
     </g>
    </g>
    <g id="xtick_42">
     <g id="line2d_83">
      <path d="M 858.163876 504.209573 
L 858.163876 69.344727 
" clip-path="url(#pe813bc63bc)" style="fill: none; stroke-dasharray: 0.74,0.32; stroke-dashoffset: 0; stroke: #808080; stroke-width: 0.2"/>
     </g>
     <g id="line2d_84">
      <g>
       <use xlink:href="#m2962ae9dbf" x="858.163876" y="504.209573" style="stroke: #000000; stroke-width: 0.4"/>
      </g>
     </g>
    </g>
    <g id="xtick_43">
     <g id="line2d_85">
      <path d="M 866.657316 504.209573 
L 866.657316 69.344727 
" clip-path="url(#pe813bc63bc)" style="fill: none; stroke-dasharray: 0.74,0.32; stroke-dashoffset: 0; stroke: #808080; stroke-width: 0.2"/>
     </g>
     <g id="line2d_86">
      <g>
       <use xlink:href="#m2962ae9dbf" x="866.657316" y="504.209573" style="stroke: #000000; stroke-width: 0.4"/>
      </g>
     </g>
    </g>
    <g id="text_6">
     <!-- Flux (neutrons.cm⁻².s⁻¹) -->
     <g transform="translate(408.360594 544.120198) scale(0.2 -0.2)">
      <defs>
       <path id="DejaVuSans-46" d="M 628 4666 
L 3309 4666 
L 3309 4134 
L 1259 4134 
L 1259 2759 
L 3109 2759 
L 3109 2228 
L 1259 2228 
L 1259 0 
L 628 0 
L 628 4666 
z
" transform="scale(0.015625)"/>
       <path id="DejaVuSans-6c" d="M 603 4863 
L 1178 4863 
L 1178 0 
L 603 0 
L 603 4863 
z
" transform="scale(0.015625)"/>
       <path id="DejaVuSans-75" d="M 544 1381 
L 544 3500 
L 1119 3500 
L 1119 1403 
Q 1119 906 1312 657 
Q 1506 409 1894 409 
Q 2359 409 2629 706 
Q 2900 1003 2900 1516 
L 2900 3500 
L 3475 3500 
L 3475 0 
L 2900 0 
L 2900 538 
Q 2691 219 2414 64 
Q 2138 -91 1772 -91 
Q 1169 -91 856 284 
Q 544 659 544 1381 
z
M 1991 3584 
L 1991 3584 
z
" transform="scale(0.015625)"/>
       <path id="DejaVuSans-78" d="M 3513 3500 
L 2247 1797 
L 3578 0 
L 2900 0 
L 1881 1375 
L 863 0 
L 184 0 
L 1544 1831 
L 300 3500 
L 978 3500 
L 1906 2253 
L 2834 3500 
L 3513 3500 
z
" transform="scale(0.015625)"/>
       <path id="DejaVuSans-20" transform="scale(0.015625)"/>
       <path id="DejaVuSans-28" d="M 1984 4856 
Q 1566 4138 1362 3434 
Q 1159 2731 1159 2009 
Q 1159 1288 1364 580 
Q 1569 -128 1984 -844 
L 1484 -844 
Q 1016 -109 783 600 
Q 550 1309 550 2009 
Q 550 2706 781 3412 
Q 1013 4119 1484 4856 
L 1984 4856 
z
" transform="scale(0.015625)"/>
       <path id="DejaVuSans-6e" d="M 3513 2113 
L 3513 0 
L 2938 0 
L 2938 2094 
Q 2938 2591 2744 2837 
Q 2550 3084 2163 3084 
Q 1697 3084 1428 2787 
Q 1159 2491 1159 1978 
L 1159 0 
L 581 0 
L 581 3500 
L 1159 3500 
L 1159 2956 
Q 1366 3272 1645 3428 
Q 1925 3584 2291 3584 
Q 2894 3584 3203 3211 
Q 3513 2838 3513 2113 
z
" transform="scale(0.015625)"/>
       <path id="DejaVuSans-65" d="M 3597 1894 
L 3597 1613 
L 953 1613 
Q 991 1019 1311 708 
Q 1631 397 2203 397 
Q 2534 397 2845 478 
Q 3156 559 3463 722 
L 3463 178 
Q 3153 47 2828 -22 
Q 2503 -91 2169 -91 
Q 1331 -91 842 396 
Q 353 884 353 1716 
Q 353 2575 817 3079 
Q 1281 3584 2069 3584 
Q 2775 3584 3186 3129 
Q 3597 2675 3597 1894 
z
M 3022 2063 
Q 3016 2534 2758 2815 
Q 2500 3097 2075 3097 
Q 1594 3097 1305 2825 
Q 1016 2553 972 2059 
L 3022 2063 
z
" transform="scale(0.015625)"/>
       <path id="DejaVuSans-74" d="M 1172 4494 
L 1172 3500 
L 2356 3500 
L 2356 3053 
L 1172 3053 
L 1172 1153 
Q 1172 725 1289 603 
Q 1406 481 1766 481 
L 2356 481 
L 2356 0 
L 1766 0 
Q 1100 0 847 248 
Q 594 497 594 1153 
L 594 3053 
L 172 3053 
L 172 3500 
L 594 3500 
L 594 4494 
L 1172 4494 
z
" transform="scale(0.015625)"/>
       <path id="DejaVuSans-72" d="M 2631 2963 
Q 2534 3019 2420 3045 
Q 2306 3072 2169 3072 
Q 1681 3072 1420 2755 
Q 1159 2438 1159 1844 
L 1159 0 
L 581 0 
L 581 3500 
L 1159 3500 
L 1159 2956 
Q 1341 3275 1631 3429 
Q 1922 3584 2338 3584 
Q 2397 3584 2469 3576 
Q 2541 3569 2628 3553 
L 2631 2963 
z
" transform="scale(0.015625)"/>
       <path id="DejaVuSans-6f" d="M 1959 3097 
Q 1497 3097 1228 2736 
Q 959 2375 959 1747 
Q 959 1119 1226 758 
Q 1494 397 1959 397 
Q 2419 397 2687 759 
Q 2956 1122 2956 1747 
Q 2956 2369 2687 2733 
Q 2419 3097 1959 3097 
z
M 1959 3584 
Q 2709 3584 3137 3096 
Q 3566 2609 3566 1747 
Q 3566 888 3137 398 
Q 2709 -91 1959 -91 
Q 1206 -91 779 398 
Q 353 888 353 1747 
Q 353 2609 779 3096 
Q 1206 3584 1959 3584 
z
" transform="scale(0.015625)"/>
       <path id="DejaVuSans-73" d="M 2834 3397 
L 2834 2853 
Q 2591 2978 2328 3040 
Q 2066 3103 1784 3103 
Q 1356 3103 1142 2972 
Q 928 2841 928 2578 
Q 928 2378 1081 2264 
Q 1234 2150 1697 2047 
L 1894 2003 
Q 2506 1872 2764 1633 
Q 3022 1394 3022 966 
Q 3022 478 2636 193 
Q 2250 -91 1575 -91 
Q 1294 -91 989 -36 
Q 684 19 347 128 
L 347 722 
Q 666 556 975 473 
Q 1284 391 1588 391 
Q 1994 391 2212 530 
Q 2431 669 2431 922 
Q 2431 1156 2273 1281 
Q 2116 1406 1581 1522 
L 1381 1569 
Q 847 1681 609 1914 
Q 372 2147 372 2553 
Q 372 3047 722 3315 
Q 1072 3584 1716 3584 
Q 2034 3584 2315 3537 
Q 2597 3491 2834 3397 
z
" transform="scale(0.015625)"/>
       <path id="DejaVuSans-2e" d="M 684 794 
L 1344 794 
L 1344 0 
L 684 0 
L 684 794 
z
" transform="scale(0.015625)"/>
       <path id="DejaVuSans-63" d="M 3122 3366 
L 3122 2828 
Q 2878 2963 2633 3030 
Q 2388 3097 2138 3097 
Q 1578 3097 1268 2742 
Q 959 2388 959 1747 
Q 959 1106 1268 751 
Q 1578 397 2138 397 
Q 2388 397 2633 464 
Q 2878 531 3122 666 
L 3122 134 
Q 2881 22 2623 -34 
Q 2366 -91 2075 -91 
Q 1284 -91 818 406 
Q 353 903 353 1747 
Q 353 2603 823 3093 
Q 1294 3584 2113 3584 
Q 2378 3584 2631 3529 
Q 2884 3475 3122 3366 
z
" transform="scale(0.015625)"/>
       <path id="DejaVuSans-6d" d="M 3328 2828 
Q 3544 3216 3844 3400 
Q 4144 3584 4550 3584 
Q 5097 3584 5394 3201 
Q 5691 2819 5691 2113 
L 5691 0 
L 5113 0 
L 5113 2094 
Q 5113 2597 4934 2840 
Q 4756 3084 4391 3084 
Q 3944 3084 3684 2787 
Q 3425 2491 3425 1978 
L 3425 0 
L 2847 0 
L 2847 2094 
Q 2847 2600 2669 2842 
Q 2491 3084 2119 3084 
Q 1678 3084 1418 2786 
Q 1159 2488 1159 1978 
L 1159 0 
L 581 0 
L 581 3500 
L 1159 3500 
L 1159 2956 
Q 1356 3278 1631 3431 
Q 1906 3584 2284 3584 
Q 2666 3584 2933 3390 
Q 3200 3197 3328 2828 
z
" transform="scale(0.015625)"/>
       <path id="DejaVuSans-207b" d="M 428 3359 
L 2950 3359 
L 2950 3063 
L 428 3063 
L 428 3359 
z
" transform="scale(0.015625)"/>
       <path id="DejaVuSans-b2" d="M 838 2444 
L 2163 2444 
L 2163 2088 
L 294 2088 
L 294 2431 
Q 400 2528 597 2703 
Q 1672 3656 1672 3950 
Q 1672 4156 1509 4282 
Q 1347 4409 1081 4409 
Q 919 4409 728 4354 
Q 538 4300 313 4191 
L 313 4575 
Q 553 4663 761 4706 
Q 969 4750 1147 4750 
Q 1600 4750 1872 4544 
Q 2144 4338 2144 4000 
Q 2144 3566 1109 2678 
Q 934 2528 838 2444 
z
" transform="scale(0.015625)"/>
       <path id="DejaVuSans-b9" d="M 488 2431 
L 1125 2431 
L 1125 4341 
L 428 4213 
L 428 4575 
L 1147 4697 
L 1575 4697 
L 1575 2431 
L 2216 2431 
L 2216 2088 
L 488 2088 
L 488 2431 
z
" transform="scale(0.015625)"/>
       <path id="DejaVuSans-29" d="M 513 4856 
L 1013 4856 
Q 1481 4119 1714 3412 
Q 1947 2706 1947 2009 
Q 1947 1309 1714 600 
Q 1481 -109 1013 -844 
L 513 -844 
Q 928 -128 1133 580 
Q 1338 1288 1338 2009 
Q 1338 2731 1133 3434 
Q 928 4138 513 4856 
z
" transform="scale(0.015625)"/>
      </defs>
      <use xlink:href="#DejaVuSans-46"/>
      <use xlink:href="#DejaVuSans-6c" x="57.519531"/>
      <use xlink:href="#DejaVuSans-75" x="85.302734"/>
      <use xlink:href="#DejaVuSans-78" x="148.681641"/>
      <use xlink:href="#DejaVuSans-20" x="207.861328"/>
      <use xlink:href="#DejaVuSans-28" x="239.648438"/>
      <use xlink:href="#DejaVuSans-6e" x="278.662109"/>
      <use xlink:href="#DejaVuSans-65" x="342.041016"/>
      <use xlink:href="#DejaVuSans-75" x="403.564453"/>
      <use xlink:href="#DejaVuSans-74" x="466.943359"/>
      <use xlink:href="#DejaVuSans-72" x="506.152344"/>
      <use xlink:href="#DejaVuSans-6f" x="545.015625"/>
      <use xlink:href="#DejaVuSans-6e" x="606.197266"/>
      <use xlink:href="#DejaVuSans-73" x="669.576172"/>
      <use xlink:href="#DejaVuSans-2e" x="721.675781"/>
      <use xlink:href="#DejaVuSans-63" x="753.462891"/>
      <use xlink:href="#DejaVuSans-6d" x="808.443359"/>
      <use xlink:href="#DejaVuSans-207b" x="905.855469"/>
      <use xlink:href="#DejaVuSans-b2" x="958.638672"/>
      <use xlink:href="#DejaVuSans-2e" x="998.726562"/>
      <use xlink:href="#DejaVuSans-73" x="1030.513672"/>
      <use xlink:href="#DejaVuSans-207b" x="1082.613281"/>
      <use xlink:href="#DejaVuSans-b9" x="1135.396484"/>
      <use xlink:href="#DejaVuSans-29" x="1175.484375"/>
     </g>
    </g>
   </g>
   <g id="matplotlib.axis_2">
    <g id="ytick_1">
     <g id="line2d_87">
      <path d="M 141.333688 458.63468 
L 918.28125 458.63468 
" clip-path="url(#pe813bc63bc)" style="fill: none; stroke-dasharray: 0.74,0.32; stroke-dashoffset: 0; stroke: #808080; stroke-width: 0.2"/>
     </g>
     <g id="line2d_88">
      <defs>
       <path id="mf46d53c88c" d="M 0 0 
L -3.5 0 
" style="stroke: #000000; stroke-width: 0.8"/>
      </defs>
      <g>
       <use xlink:href="#mf46d53c88c" x="141.333688" y="458.63468" style="stroke: #000000; stroke-width: 0.8"/>
      </g>
     </g>
     <g id="text_7">
      <!-- −75 -->
      <g transform="translate(106.908063 463.193742) scale(0.12 -0.12)">
       <defs>
        <path id="DejaVuSans-2212" d="M 678 2272 
L 4684 2272 
L 4684 1741 
L 678 1741 
L 678 2272 
z
" transform="scale(0.015625)"/>
        <path id="DejaVuSans-37" d="M 525 4666 
L 3525 4666 
L 3525 4397 
L 1831 0 
L 1172 0 
L 2766 4134 
L 525 4134 
L 525 4666 
z
" transform="scale(0.015625)"/>
       </defs>
       <use xlink:href="#DejaVuSans-2212"/>
       <use xlink:href="#DejaVuSans-37" x="83.789062"/>
       <use xlink:href="#DejaVuSans-35" x="147.412109"/>
      </g>
     </g>
    </g>
    <g id="ytick_2">
     <g id="line2d_89">
      <path d="M 141.333688 401.282882 
L 918.28125 401.282882 
" clip-path="url(#pe813bc63bc)" style="fill: none; stroke-dasharray: 0.74,0.32; stroke-dashoffset: 0; stroke: #808080; stroke-width: 0.2"/>
     </g>
     <g id="line2d_90">
      <g>
       <use xlink:href="#mf46d53c88c" x="141.333688" y="401.282882" style="stroke: #000000; stroke-width: 0.8"/>
      </g>
     </g>
     <g id="text_8">
      <!-- −50 -->
      <g transform="translate(106.908063 405.841944) scale(0.12 -0.12)">
       <use xlink:href="#DejaVuSans-2212"/>
       <use xlink:href="#DejaVuSans-35" x="83.789062"/>
       <use xlink:href="#DejaVuSans-30" x="147.412109"/>
      </g>
     </g>
    </g>
    <g id="ytick_3">
     <g id="line2d_91">
      <path d="M 141.333688 343.931084 
L 918.28125 343.931084 
" clip-path="url(#pe813bc63bc)" style="fill: none; stroke-dasharray: 0.74,0.32; stroke-dashoffset: 0; stroke: #808080; stroke-width: 0.2"/>
     </g>
     <g id="line2d_92">
      <g>
       <use xlink:href="#mf46d53c88c" x="141.333688" y="343.931084" style="stroke: #000000; stroke-width: 0.8"/>
      </g>
     </g>
     <g id="text_9">
      <!-- −25 -->
      <g transform="translate(106.908063 348.490147) scale(0.12 -0.12)">
       <use xlink:href="#DejaVuSans-2212"/>
       <use xlink:href="#DejaVuSans-32" x="83.789062"/>
       <use xlink:href="#DejaVuSans-35" x="147.412109"/>
      </g>
     </g>
    </g>
    <g id="ytick_4">
     <g id="line2d_93">
      <path d="M 141.333688 286.579286 
L 918.28125 286.579286 
" clip-path="url(#pe813bc63bc)" style="fill: none; stroke-dasharray: 0.74,0.32; stroke-dashoffset: 0; stroke: #808080; stroke-width: 0.2"/>
     </g>
     <g id="line2d_94">
      <g>
       <use xlink:href="#mf46d53c88c" x="141.333688" y="286.579286" style="stroke: #000000; stroke-width: 0.8"/>
      </g>
     </g>
     <g id="text_10">
      <!-- 0 -->
      <g transform="translate(124.598688 291.138349) scale(0.12 -0.12)">
       <use xlink:href="#DejaVuSans-30"/>
      </g>
     </g>
    </g>
    <g id="ytick_5">
     <g id="line2d_95">
      <path d="M 141.333688 229.227488 
L 918.28125 229.227488 
" clip-path="url(#pe813bc63bc)" style="fill: none; stroke-dasharray: 0.74,0.32; stroke-dashoffset: 0; stroke: #808080; stroke-width: 0.2"/>
     </g>
     <g id="line2d_96">
      <g>
       <use xlink:href="#mf46d53c88c" x="141.333688" y="229.227488" style="stroke: #000000; stroke-width: 0.8"/>
      </g>
     </g>
     <g id="text_11">
      <!-- 25 -->
      <g transform="translate(116.963688 233.786551) scale(0.12 -0.12)">
       <use xlink:href="#DejaVuSans-32"/>
       <use xlink:href="#DejaVuSans-35" x="63.623047"/>
      </g>
     </g>
    </g>
    <g id="ytick_6">
     <g id="line2d_97">
      <path d="M 141.333688 171.875691 
L 918.28125 171.875691 
" clip-path="url(#pe813bc63bc)" style="fill: none; stroke-dasharray: 0.74,0.32; stroke-dashoffset: 0; stroke: #808080; stroke-width: 0.2"/>
     </g>
     <g id="line2d_98">
      <g>
       <use xlink:href="#mf46d53c88c" x="141.333688" y="171.875691" style="stroke: #000000; stroke-width: 0.8"/>
      </g>
     </g>
     <g id="text_12">
      <!-- 50 -->
      <g transform="translate(116.963688 176.434753) scale(0.12 -0.12)">
       <use xlink:href="#DejaVuSans-35"/>
       <use xlink:href="#DejaVuSans-30" x="63.623047"/>
      </g>
     </g>
    </g>
    <g id="ytick_7">
     <g id="line2d_99">
      <path d="M 141.333688 114.523893 
L 918.28125 114.523893 
" clip-path="url(#pe813bc63bc)" style="fill: none; stroke-dasharray: 0.74,0.32; stroke-dashoffset: 0; stroke: #808080; stroke-width: 0.2"/>
     </g>
     <g id="line2d_100">
      <g>
       <use xlink:href="#mf46d53c88c" x="141.333688" y="114.523893" style="stroke: #000000; stroke-width: 0.8"/>
      </g>
     </g>
     <g id="text_13">
      <!-- 75 -->
      <g transform="translate(116.963688 119.082955) scale(0.12 -0.12)">
       <use xlink:href="#DejaVuSans-37"/>
       <use xlink:href="#DejaVuSans-35" x="63.623047"/>
      </g>
     </g>
    </g>
    <g id="text_14">
     <!-- Axial position (cm) -->
     <g transform="translate(98.748688 380.228713) rotate(-90) scale(0.2 -0.2)">
      <defs>
       <path id="DejaVuSans-41" d="M 2188 4044 
L 1331 1722 
L 3047 1722 
L 2188 4044 
z
M 1831 4666 
L 2547 4666 
L 4325 0 
L 3669 0 
L 3244 1197 
L 1141 1197 
L 716 0 
L 50 0 
L 1831 4666 
z
" transform="scale(0.015625)"/>
       <path id="DejaVuSans-69" d="M 603 3500 
L 1178 3500 
L 1178 0 
L 603 0 
L 603 3500 
z
M 603 4863 
L 1178 4863 
L 1178 4134 
L 603 4134 
L 603 4863 
z
" transform="scale(0.015625)"/>
       <path id="DejaVuSans-61" d="M 2194 1759 
Q 1497 1759 1228 1600 
Q 959 1441 959 1056 
Q 959 750 1161 570 
Q 1363 391 1709 391 
Q 2188 391 2477 730 
Q 2766 1069 2766 1631 
L 2766 1759 
L 2194 1759 
z
M 3341 1997 
L 3341 0 
L 2766 0 
L 2766 531 
Q 2569 213 2275 61 
Q 1981 -91 1556 -91 
Q 1019 -91 701 211 
Q 384 513 384 1019 
Q 384 1609 779 1909 
Q 1175 2209 1959 2209 
L 2766 2209 
L 2766 2266 
Q 2766 2663 2505 2880 
Q 2244 3097 1772 3097 
Q 1472 3097 1187 3025 
Q 903 2953 641 2809 
L 641 3341 
Q 956 3463 1253 3523 
Q 1550 3584 1831 3584 
Q 2591 3584 2966 3190 
Q 3341 2797 3341 1997 
z
" transform="scale(0.015625)"/>
       <path id="DejaVuSans-70" d="M 1159 525 
L 1159 -1331 
L 581 -1331 
L 581 3500 
L 1159 3500 
L 1159 2969 
Q 1341 3281 1617 3432 
Q 1894 3584 2278 3584 
Q 2916 3584 3314 3078 
Q 3713 2572 3713 1747 
Q 3713 922 3314 415 
Q 2916 -91 2278 -91 
Q 1894 -91 1617 61 
Q 1341 213 1159 525 
z
M 3116 1747 
Q 3116 2381 2855 2742 
Q 2594 3103 2138 3103 
Q 1681 3103 1420 2742 
Q 1159 2381 1159 1747 
Q 1159 1113 1420 752 
Q 1681 391 2138 391 
Q 2594 391 2855 752 
Q 3116 1113 3116 1747 
z
" transform="scale(0.015625)"/>
      </defs>
      <use xlink:href="#DejaVuSans-41"/>
      <use xlink:href="#DejaVuSans-78" x="68.408203"/>
      <use xlink:href="#DejaVuSans-69" x="127.587891"/>
      <use xlink:href="#DejaVuSans-61" x="155.371094"/>
      <use xlink:href="#DejaVuSans-6c" x="216.650391"/>
      <use xlink:href="#DejaVuSans-20" x="244.433594"/>
      <use xlink:href="#DejaVuSans-70" x="276.220703"/>
      <use xlink:href="#DejaVuSans-6f" x="339.697266"/>
      <use xlink:href="#DejaVuSans-73" x="400.878906"/>
      <use xlink:href="#DejaVuSans-69" x="452.978516"/>
      <use xlink:href="#DejaVuSans-74" x="480.761719"/>
      <use xlink:href="#DejaVuSans-69" x="519.970703"/>
      <use xlink:href="#DejaVuSans-6f" x="547.753906"/>
      <use xlink:href="#DejaVuSans-6e" x="608.935547"/>
      <use xlink:href="#DejaVuSans-20" x="672.314453"/>
      <use xlink:href="#DejaVuSans-28" x="704.101562"/>
      <use xlink:href="#DejaVuSans-63" x="743.115234"/>
      <use xlink:href="#DejaVuSans-6d" x="798.095703"/>
      <use xlink:href="#DejaVuSans-29" x="895.507812"/>
     </g>
    </g>
   </g>
   <g id="line2d_101">
    <path d="M 766.512624 268.375826 
L 772.022165 267.584371 
L 774.88396 266.792916 
L 776.392085 266.001461 
L 776.847098 265.605734 
L 777.158297 264.814279 
L 776.985615 264.022824 
L 776.426691 263.231369 
L 774.930156 262.044187 
L 773.671553 261.252732 
L 771.44586 260.06555 
L 767.12892 258.086913 
L 764.336349 256.899731 
L 756.346699 253.733912 
L 733.925792 245.027909 
L 722.147474 240.27918 
L 717.319455 238.300543 
L 709.828073 235.134724 
L 703.539502 232.364632 
L 698.120342 229.990267 
L 694.611447 228.407358 
L 688.560855 225.637266 
L 686.081457 224.450084 
L 669.699613 216.535536 
L 658.898892 211.786807 
L 653.327146 209.412442 
L 628.258261 198.727802 
L 625.484253 197.54062 
L 597.843118 186.460253 
L 595.626331 185.668798 
L 590.09857 183.690161 
L 583.2791 181.315797 
L 580.879577 180.524342 
L 579.985044 180.128614 
L 571.840351 177.358522 
L 570.964849 176.962795 
L 567.529067 175.775613 
L 565.459395 174.984158 
L 563.176533 174.192703 
L 561.299629 173.401248 
L 553.027724 170.235429 
L 551.094262 169.443974 
L 550.325645 169.048247 
L 545.196852 167.06961 
L 542.627116 165.882428 
L 533.562658 162.716609 
L 531.041008 161.925154 
L 530.005909 161.529426 
L 517.955307 158.363607 
L 507.081937 155.989243 
L 489.886188 153.219151 
L 468.418724 150.844786 
L 459.180993 150.053332 
L 440.804754 148.866149 
L 424.804182 148.074695 
L 399.687485 147.28324 
L 378.601799 146.887512 
L 371.306032 146.491785 
L 373.045983 146.096057 
L 374.961298 145.304603 
L 376.82548 144.908875 
L 377.813303 144.513148 
L 378.286455 144.11742 
L 382.293581 142.534511 
L 382.569406 142.138783 
L 383.372506 141.743056 
L 383.791131 141.347329 
L 383.727553 140.555874 
L 383.888617 140.160146 
L 384.672469 139.368692 
L 384.688541 138.972964 
L 384.042359 137.785782 
L 384.222667 137.390055 
L 383.942462 136.994327 
L 383.948296 136.5986 
L 383.725144 136.202872 
L 383.806921 135.807145 
L 383.661473 135.411418 
L 383.039715 135.01569 
L 383.039762 134.619963 
L 382.287991 133.828508 
L 382.476698 133.432781 
L 382.111347 133.037053 
L 382.018389 132.641326 
L 381.571582 131.849871 
L 380.696528 131.058416 
L 380.515675 130.662689 
L 379.922537 129.871234 
L 379.343241 129.475506 
L 378.465133 129.079779 
L 378.3721 128.684052 
L 377.70496 127.496869 
L 376.965723 127.101142 
L 375.890723 125.518232 
L 374.575748 124.726778 
L 374.492607 124.33105 
L 373.646406 123.935323 
L 371.423837 121.956686 
L 371.2177 121.560958 
L 370.052176 120.373776 
L 369.39564 119.978049 
L 368.681854 119.186594 
L 367.866596 118.790867 
L 367.744169 118.395139 
L 366.689311 117.603684 
L 365.840114 116.81223 
L 365.40557 116.416502 
L 364.61637 116.020775 
L 363.043244 114.437865 
L 362.097034 114.042138 
L 362.134644 113.64641 
L 359.006487 111.272046 
L 358.32557 110.480591 
L 358.05338 110.084864 
L 356.761365 109.293409 
L 356.469004 108.897681 
L 355.773058 108.501954 
L 355.1444 107.710499 
L 352.722475 106.12759 
L 351.432373 104.940407 
L 350.518034 104.148953 
L 346.961326 100.587406 
L 346.453578 100.191678 
L 345.63255 99.004496 
L 343.377209 96.630132 
L 343.242259 96.234404 
L 342.808915 95.838677 
L 341.02853 94.651495 
L 339.457701 93.068585 
L 338.497101 92.27713 
L 337.673516 91.485676 
L 336.316444 90.298493 
L 335.041479 89.111311 
L 335.041479 89.111311 
" clip-path="url(#pe813bc63bc)" style="fill: none; stroke: #c04e01; stroke-width: 1.5; stroke-linecap: square"/>
   </g>
   <g id="line2d_102">
    <path d="M 176.649486 484.442989 
L 177.618407 482.860079 
L 179.398497 481.672897 
L 179.814572 481.27717 
L 179.602348 480.881442 
L 180.185233 480.485715 
L 181.170071 480.089987 
L 181.571088 479.69426 
L 181.797297 479.298533 
L 181.676797 478.902805 
L 183.147799 478.507078 
L 184.331641 477.715623 
L 184.497565 477.319896 
L 185.243916 476.924168 
L 184.394703 476.528441 
L 184.746292 476.132713 
L 184.754112 475.736986 
L 184.56542 475.341259 
L 185.347723 474.549804 
L 185.358456 474.154076 
L 186.231552 473.758349 
L 186.458326 473.362622 
L 185.865261 472.966894 
L 186.464411 472.175439 
L 187.691535 471.779712 
L 188.538755 471.383984 
L 188.92096 470.988257 
L 188.690454 470.196802 
L 189.767087 469.801075 
L 191.494417 468.613893 
L 191.603582 468.218165 
L 190.771705 467.822438 
L 190.392426 467.42671 
L 191.793083 466.635256 
L 192.588664 466.239528 
L 194.296084 465.843801 
L 195.007441 465.448073 
L 193.564219 464.656619 
L 193.658265 464.260891 
L 195.267521 463.865164 
L 195.189423 463.469436 
L 196.140909 463.073709 
L 195.535232 462.677982 
L 196.822209 462.282254 
L 195.20532 461.886527 
L 210.357828 461.490799 
L 230.550157 461.095072 
L 270.141233 459.90789 
L 328.888384 457.929253 
L 344.934918 457.137798 
L 362.379511 455.950616 
L 367.270841 455.554888 
L 381.878674 453.971979 
L 385.87733 453.576251 
L 387.84479 453.180524 
L 390.432386 452.784796 
L 392.25159 452.389069 
L 397.573525 451.597614 
L 399.400444 451.201887 
L 407.581041 450.014705 
L 433.862333 446.453158 
L 441.009574 445.265976 
L 446.468328 444.474521 
L 451.158864 443.683066 
L 456.744372 442.891611 
L 472.299573 440.121519 
L 504.126369 434.185608 
L 513.549096 432.206971 
L 517.237881 431.415517 
L 522.159773 430.228334 
L 522.539069 429.832607 
L 529.964994 428.249697 
L 542.012745 425.083878 
L 550.955904 422.313786 
L 553.204645 421.522331 
L 556.1064 420.335149 
L 561.909105 417.565057 
L 562.309231 417.16933 
L 563.747259 416.377875 
L 564.908423 415.58642 
L 567.025881 414.399238 
L 568.063859 413.607783 
L 569.35665 412.816329 
L 570.311517 412.024874 
L 574.272125 409.650509 
L 576.55809 408.463327 
L 577.833344 407.671872 
L 579.600273 406.880417 
L 582.846449 405.297508 
L 585.451148 404.110326 
L 587.843306 402.923143 
L 589.593182 402.131689 
L 591.204485 401.340234 
L 593.558301 400.153052 
L 594.287467 399.757324 
L 595.961535 398.965869 
L 598.82132 397.38296 
L 601.99043 395.404323 
L 602.794081 394.612868 
L 603.70272 392.634231 
L 603.790039 392.238503 
L 603.498786 391.447049 
L 603.0963 391.051321 
L 603.250908 390.655594 
L 603.747226 390.259866 
L 604.477792 389.864139 
L 605.56749 389.468412 
L 607.002191 389.072684 
L 619.862718 386.302592 
L 624.191274 385.11541 
L 631.810821 382.741046 
L 641.44626 379.179499 
L 667.716879 368.099132 
L 678.603318 362.954675 
L 682.483365 360.976038 
L 685.757575 359.393129 
L 688.361626 358.205947 
L 695.067977 355.040127 
L 705.68 350.291399 
L 713.082594 347.125579 
L 719.610974 344.355487 
L 727.299045 341.189668 
L 738.179072 336.836667 
L 755.549856 330.109301 
L 761.602576 327.734936 
L 769.961403 324.17339 
L 773.078279 322.59048 
L 775.031804 321.403298 
L 776.079576 320.611843 
L 777.062536 319.424661 
L 777.220096 318.633206 
L 777.078461 318.237479 
L 776.787368 317.841751 
L 776.343092 317.446024 
L 775.626057 317.050296 
L 774.621099 316.654569 
L 773.301494 316.258842 
L 771.562484 315.863114 
L 769.083641 315.467387 
L 765.518961 315.071659 
L 760.481796 314.675932 
L 760.481796 314.675932 
" clip-path="url(#pe813bc63bc)" style="fill: none; stroke: #c04e01; stroke-width: 1.5; stroke-linecap: square"/>
   </g>
   <g id="line2d_103">
    <path d="M 869.834714 268.375826 
L 853.895806 267.584371 
L 835.986239 266.397189 
L 822.256861 265.210006 
L 811.124632 264.022824 
L 801.751695 262.835642 
L 791.14672 261.252732 
L 782.101549 259.669823 
L 772.210622 257.691186 
L 761.928832 255.316821 
L 751.354867 252.546729 
L 741.952303 249.776638 
L 734.454441 247.402273 
L 720.734393 242.653544 
L 714.340631 240.27918 
L 706.010167 237.113361 
L 699.957678 234.738996 
L 659.072961 218.118445 
L 641.268482 209.80817 
L 632.81673 205.850896 
L 630.300567 204.663713 
L 628.648556 203.872259 
L 618.870002 199.519257 
L 598.057311 190.813254 
L 595.837369 190.021799 
L 590.76928 188.043162 
L 587.387935 186.85598 
L 581.749815 184.877343 
L 568.55413 180.524342 
L 551.160515 175.775613 
L 544.619077 174.192703 
L 528.080899 170.631157 
L 496.882913 164.695246 
L 493.075796 163.903791 
L 489.050112 163.112336 
L 481.222555 161.529426 
L 463.583228 157.96788 
L 459.431553 157.176425 
L 444.857572 154.406333 
L 443.313413 154.010606 
L 438.543671 153.219151 
L 432.120609 152.031969 
L 426.85339 151.240514 
L 422.11132 150.449059 
L 409.68694 148.866149 
L 393.322197 147.28324 
L 386.095848 146.887512 
L 384.712881 146.491785 
L 386.603199 145.70033 
L 388.648562 144.908875 
L 390.021605 144.11742 
L 390.808381 143.721693 
L 390.855069 143.325966 
L 391.775996 142.534511 
L 392.49829 141.743056 
L 392.721032 140.951601 
L 392.875106 140.555874 
L 393.445257 140.160146 
L 392.796196 139.368692 
L 393.143024 138.972964 
L 392.755657 138.181509 
L 393.059001 137.785782 
L 393.107262 137.390055 
L 392.64788 136.994327 
L 392.372503 136.5986 
L 392.620219 136.202872 
L 392.18643 135.807145 
L 392.048198 135.01569 
L 391.736054 134.619963 
L 391.781791 134.224235 
L 391.56644 133.828508 
L 390.046932 132.641326 
L 389.926739 132.245598 
L 388.700694 130.266961 
L 387.250979 129.079779 
L 386.998143 128.684052 
L 386.706286 127.892597 
L 385.861487 127.101142 
L 385.424448 126.309687 
L 385.353308 125.91396 
L 384.597645 125.518232 
L 384.429188 125.122505 
L 383.379498 124.33105 
L 383.274504 123.935323 
L 383.035543 123.539595 
L 382.578599 123.143868 
L 381.827939 122.748141 
L 381.064039 121.956686 
L 380.919084 121.560958 
L 380.249803 120.769504 
L 379.50022 120.373776 
L 379.37183 119.978049 
L 378.61391 119.186594 
L 378.126515 118.790867 
L 378.000739 118.395139 
L 377.656301 117.999412 
L 376.718849 117.207957 
L 374.558203 115.22932 
L 373.754574 114.833592 
L 373.317496 114.042138 
L 372.141306 113.250683 
L 370.357006 112.063501 
L 370.181303 111.667773 
L 369.049655 110.876318 
L 368.982349 110.480591 
L 368.478505 110.084864 
L 367.043622 109.293409 
L 366.223495 108.897681 
L 366.04776 108.501954 
L 364.94503 107.710499 
L 364.113183 106.919044 
L 363.597367 106.523317 
L 363.465183 106.12759 
L 362.363181 104.940407 
L 361.428728 104.148953 
L 360.793194 103.357498 
L 358.972905 101.774588 
L 358.907289 101.378861 
L 357.85177 100.191678 
L 356.993782 99.004496 
L 355.518811 97.817314 
L 354.837403 97.025859 
L 352.496661 94.651495 
L 351.545434 93.464313 
L 350.727812 92.672858 
L 349.779976 91.089948 
L 348.996859 90.298493 
L 348.874146 89.902766 
L 348.590892 89.507039 
L 348.110842 89.111311 
L 348.110842 89.111311 
" clip-path="url(#pe813bc63bc)" style="fill: none; stroke: #0485d1; stroke-width: 1.5; stroke-linecap: square"/>
   </g>
   <g id="line2d_104">
    <path d="M 190.416572 484.442989 
L 190.238193 484.047261 
L 190.667688 482.860079 
L 191.138674 482.464352 
L 190.765775 482.068624 
L 190.895085 481.672897 
L 192.18787 480.881442 
L 192.231837 480.485715 
L 192.794508 480.089987 
L 192.72441 479.69426 
L 193.929364 478.902805 
L 195.09857 478.507078 
L 195.886761 478.11135 
L 196.574554 477.319896 
L 198.984758 476.132713 
L 199.011754 475.736986 
L 199.2992 475.341259 
L 199.323892 474.945531 
L 199.888258 474.549804 
L 200.042108 474.154076 
L 200.798079 473.758349 
L 200.912385 473.362622 
L 201.511855 472.966894 
L 201.222316 472.571167 
L 201.887958 472.175439 
L 202.109231 471.779712 
L 201.963572 471.383984 
L 202.291821 470.988257 
L 202.942408 470.59253 
L 203.222317 470.196802 
L 204.700974 469.801075 
L 205.481991 469.405347 
L 206.558721 469.00962 
L 206.619568 468.218165 
L 208.795036 467.42671 
L 209.334903 467.030983 
L 211.150475 466.239528 
L 210.652569 465.843801 
L 209.735824 465.448073 
L 210.347479 465.052346 
L 210.324702 464.656619 
L 210.633411 463.865164 
L 210.331622 463.469436 
L 211.618982 463.073709 
L 210.880035 462.677982 
L 211.84386 462.282254 
L 214.320368 461.886527 
L 241.917657 460.303617 
L 244.737783 459.90789 
L 253.785151 459.116435 
L 257.773329 458.720708 
L 258.483911 458.32498 
L 264.224627 457.137798 
L 272.918993 455.950616 
L 274.786968 455.554888 
L 280.514751 454.763433 
L 282.188294 454.367706 
L 286.867943 453.576251 
L 288.425244 453.180524 
L 293.040329 452.389069 
L 297.953301 451.597614 
L 300.526446 450.806159 
L 302.444851 450.410432 
L 307.890604 449.618977 
L 309.483749 449.22325 
L 316.965659 448.036068 
L 318.584116 447.64034 
L 323.621791 446.848885 
L 326.376005 446.057431 
L 329.451901 445.661703 
L 333.759889 444.870248 
L 339.48044 444.078794 
L 340.819671 443.683066 
L 344.831405 442.891611 
L 350.007065 442.100156 
L 351.767539 441.704429 
L 415.783449 431.811244 
L 427.48417 430.228334 
L 428.93643 429.832607 
L 433.352783 429.041152 
L 441.741513 427.85397 
L 457.757092 425.479605 
L 468.767033 423.896696 
L 487.270345 421.126604 
L 512.636656 417.16933 
L 519.720754 415.982148 
L 526.285391 414.794966 
L 534.728081 413.212056 
L 538.684801 412.420601 
L 549.608227 410.046237 
L 558.969908 407.671872 
L 576.536349 402.527416 
L 578.894849 401.735961 
L 582.551654 400.548779 
L 587.009277 398.965869 
L 590.495055 397.778687 
L 592.604625 396.987232 
L 608.932519 391.051321 
L 611.718387 389.468412 
L 614.872893 387.489775 
L 617.017353 386.302592 
L 635.679396 376.805135 
L 644.561257 372.452133 
L 649.43768 370.077769 
L 651.068968 369.286314 
L 666.232197 362.558948 
L 677.710573 357.810219 
L 688.653354 353.457218 
L 694.385412 351.082853 
L 715.743301 342.772578 
L 731.213421 337.232394 
L 740.960035 334.066575 
L 750.252579 331.296483 
L 757.621654 329.317846 
L 763.954724 327.734936 
L 772.659624 325.756299 
L 782.561312 323.777662 
L 791.726341 322.194753 
L 802.397904 320.611843 
L 811.858233 319.424661 
L 823.139015 318.237479 
L 837.139459 317.050296 
L 848.706457 316.258842 
L 863.076935 315.467387 
L 882.965452 314.675932 
L 882.965452 314.675932 
" clip-path="url(#pe813bc63bc)" style="fill: none; stroke: #0485d1; stroke-width: 1.5; stroke-linecap: square"/>
   </g>
   <g id="line2d_105">
    <path d="M 229.225019 484.442989 
L 230.116926 484.047261 
L 230.484948 483.651534 
L 229.375731 483.255807 
L 229.963594 482.860079 
L 231.545133 482.464352 
L 231.765074 482.068624 
L 232.790937 481.672897 
L 231.905843 481.27717 
L 229.467549 480.881442 
L 228.958977 480.485715 
L 229.115555 479.69426 
L 230.201566 479.298533 
L 230.563607 478.902805 
L 231.328333 478.507078 
L 231.463951 478.11135 
L 232.423947 477.715623 
L 230.944999 477.319896 
L 230.078343 476.924168 
L 233.004549 476.528441 
L 235.937515 475.341259 
L 235.626845 474.945531 
L 236.936257 474.549804 
L 237.405874 474.154076 
L 236.033162 473.758349 
L 235.136645 473.362622 
L 233.793709 472.966894 
L 234.143707 472.571167 
L 234.901061 472.175439 
L 234.570263 471.779712 
L 233.857096 471.383984 
L 234.393229 470.988257 
L 236.07785 470.59253 
L 234.955554 470.196802 
L 234.787217 469.801075 
L 235.421404 469.405347 
L 235.275899 469.00962 
L 236.469124 468.613893 
L 236.51937 468.218165 
L 236.888406 467.822438 
L 237.076853 467.42671 
L 238.827094 467.030983 
L 238.318573 466.635256 
L 236.12124 466.239528 
L 235.081667 465.843801 
L 233.163419 465.448073 
L 233.626936 465.052346 
L 233.251202 464.656619 
L 232.111772 464.260891 
L 229.880535 463.865164 
L 227.216635 463.073709 
L 236.810587 461.490799 
L 269.70178 460.699345 
L 300.098029 459.512162 
L 306.122506 459.116435 
L 325.395642 458.720708 
L 346.418334 457.929253 
L 355.644225 457.533525 
L 359.766924 457.137798 
L 373.876392 456.346343 
L 386.107445 455.159161 
L 395.975485 454.367706 
L 396.168995 453.971979 
L 399.035449 453.576251 
L 404.055957 453.180524 
L 416.313114 452.784796 
L 414.415303 452.389069 
L 408.724653 451.993342 
L 417.222697 451.201887 
L 419.590497 450.806159 
L 427.399506 450.014705 
L 429.490364 449.618977 
L 435.418452 448.827522 
L 437.008515 448.431795 
L 449.373319 446.848885 
L 451.282256 446.453158 
L 459.657686 445.265976 
L 488.128316 440.517247 
L 489.750933 440.121519 
L 492.553202 439.725792 
L 494.470534 439.330065 
L 499.110864 438.53861 
L 500.785243 438.142882 
L 505.234779 437.351428 
L 511.694538 436.164245 
L 514.025747 435.768518 
L 520.790126 434.185608 
L 528.794378 432.602699 
L 530.329079 432.206971 
L 534.339716 431.415517 
L 535.690222 431.019789 
L 538.109439 430.624062 
L 539.236002 430.228334 
L 545.955487 428.645425 
L 549.194669 427.85397 
L 556.523338 425.875333 
L 557.662486 425.479605 
L 560.224977 424.688151 
L 560.900977 424.292423 
L 561.855126 423.896696 
L 563.634206 423.500968 
L 566.111612 422.709514 
L 567.252452 422.313786 
L 567.859685 421.918059 
L 570.180265 420.730877 
L 570.783646 420.335149 
L 571.133399 419.939422 
L 571.728147 419.543694 
L 572.055572 419.147967 
L 572.525553 417.960785 
L 571.645194 417.565057 
L 571.484852 417.16933 
L 569.047787 416.377875 
L 566.866239 415.982148 
L 563.355702 415.58642 
L 551.886848 414.794966 
L 544.754507 414.399238 
L 537.005087 412.816329 
L 534.69146 412.024874 
L 534.634275 411.629146 
L 533.059471 410.837691 
L 532.265899 410.046237 
L 532.353016 409.650509 
L 532.251174 409.254782 
L 532.542939 408.859054 
L 532.528688 408.463327 
L 532.760682 408.0676 
L 533.172894 407.671872 
L 533.100661 407.276145 
L 533.939715 406.48469 
L 534.905778 405.297508 
L 535.304344 404.90178 
L 535.957175 404.506053 
L 536.971193 403.714598 
L 537.82667 403.318871 
L 538.646148 402.527416 
L 539.606367 402.131689 
L 540.147034 401.735961 
L 542.771146 400.548779 
L 543.075508 400.153052 
L 543.535152 399.757324 
L 545.253763 398.965869 
L 546.215583 398.174415 
L 546.441587 397.778687 
L 547.825227 397.38296 
L 548.359697 396.987232 
L 548.669754 396.591505 
L 549.363814 396.195778 
L 550.417066 395.80005 
L 551.438675 395.008595 
L 552.27256 394.612868 
L 553.334472 393.821413 
L 554.286222 393.425686 
L 554.491965 393.029958 
L 555.170745 392.634231 
L 555.467784 392.238503 
L 555.269401 391.842776 
L 555.727139 391.447049 
L 555.923478 391.051321 
L 556.957313 390.655594 
L 557.088236 390.259866 
L 559.710877 389.072684 
L 562.555526 388.281229 
L 568.15338 386.69832 
L 573.198238 385.11541 
L 574.703151 384.719683 
L 578.129279 383.532501 
L 580.434613 382.741046 
L 581.073033 382.345318 
L 584.788932 381.158136 
L 585.161191 380.762409 
L 587.888619 379.970954 
L 590.943649 378.783772 
L 593.929733 377.596589 
L 595.307725 377.200862 
L 598.000087 376.01368 
L 599.443925 375.617952 
L 600.29973 375.222225 
L 602.405421 374.43077 
L 603.11087 374.035043 
L 604.103687 373.639315 
L 605.486035 373.243588 
L 607.581667 372.452133 
L 608.604582 372.056406 
L 609.944668 371.660678 
L 610.878314 371.264951 
L 620.304825 368.494859 
L 628.194951 366.91195 
L 631.893416 366.120495 
L 633.152791 365.32904 
L 633.133156 364.933313 
L 632.773338 364.537585 
L 631.518401 364.141858 
L 630.796242 363.74613 
L 630.480956 362.954675 
L 630.6213 362.163221 
L 630.967851 361.767493 
L 631.569031 361.371766 
L 631.909285 360.976038 
L 632.438368 360.580311 
L 635.245674 358.997401 
L 637.863089 357.414492 
L 639.401766 356.623037 
L 640.091122 356.22731 
L 641.990818 355.435855 
L 643.399097 354.6444 
L 643.964945 354.248673 
L 646.70744 353.06149 
L 647.313674 352.665763 
L 650.175254 351.478581 
L 660.292963 346.729852 
L 661.354314 346.334124 
L 662.909375 345.54267 
L 664.783139 344.751215 
L 666.514035 343.95976 
L 671.227896 341.981123 
L 673.112579 341.189668 
L 679.153491 338.419576 
L 681.245793 337.628122 
L 683.238184 336.836667 
L 684.958935 336.045212 
L 689.557806 334.066575 
L 722.565843 320.216116 
L 725.148067 319.424661 
L 727.888308 318.633206 
L 735.36224 317.050296 
L 736.338258 316.654569 
L 736.640551 316.258842 
L 736.485687 315.863114 
L 735.886616 315.467387 
L 733.597594 314.675932 
L 732.276454 313.884477 
L 731.660955 312.697295 
L 731.594326 312.301568 
L 731.784764 311.90584 
L 731.794654 311.510113 
L 732.436113 309.927203 
L 733.765372 307.948566 
L 734.272781 307.157111 
L 734.762976 306.365657 
L 734.959163 305.969929 
L 736.11515 304.38702 
L 737.71614 302.012655 
L 738.369635 300.825473 
L 739.027543 299.638291 
L 739.264657 299.242563 
L 739.774443 297.659654 
L 740.15426 296.868199 
L 740.535374 294.889562 
L 740.95485 292.910925 
L 740.974754 292.11947 
L 740.938991 290.932288 
L 740.780161 289.349378 
L 740.760476 288.953651 
L 740.420636 287.766469 
L 740.33317 287.370741 
L 740.079578 286.975014 
L 740.147673 286.579286 
L 739.847968 285.787831 
L 739.75838 285.392104 
L 739.404987 284.600649 
L 739.245624 284.204922 
L 738.394038 283.01774 
L 738.277867 282.622012 
L 738.0262 282.226285 
L 737.909951 281.830557 
L 737.432826 281.039103 
L 736.83777 280.247648 
L 736.422254 279.85192 
L 735.844035 278.664738 
L 735.219562 277.873283 
L 735.050028 277.477556 
L 734.628781 277.081829 
L 734.412162 276.686101 
L 733.795141 275.894646 
L 732.223973 273.124555 
L 732.149176 272.728827 
L 731.57781 271.541645 
L 731.691508 271.145917 
L 731.48052 270.75019 
L 732.422905 269.563008 
L 733.094431 269.16728 
L 735.159228 268.375826 
L 736.29109 267.980098 
L 736.741955 267.584371 
L 736.634445 267.188643 
L 736.100754 266.792916 
L 735.048904 266.397189 
L 731.284946 265.605734 
L 727.73701 264.814279 
L 723.496965 263.627097 
L 719.279369 262.044187 
L 688.367284 248.985183 
L 687.599825 248.589455 
L 685.471612 247.798001 
L 678.192348 244.632181 
L 677.141832 244.236454 
L 675.484277 243.444999 
L 669.736533 241.070635 
L 668.149767 240.27918 
L 665.301535 239.091998 
L 662.120321 237.509088 
L 659.267698 236.321906 
L 658.461538 235.926178 
L 656.453842 235.134724 
L 655.786617 234.738996 
L 653.072071 233.551814 
L 652.371834 233.156087 
L 648.692326 231.573177 
L 647.077271 230.781722 
L 644.344328 229.59454 
L 640.563106 227.615903 
L 638.222952 226.428721 
L 634.83645 224.450084 
L 633.870591 224.054356 
L 631.480648 222.471447 
L 630.902805 222.075719 
L 630.373225 221.284264 
L 630.122834 220.888537 
L 630.202141 220.49281 
L 629.992109 220.097082 
L 630.343266 219.701355 
L 631.227216 219.305627 
L 632.385674 218.9099 
L 632.751022 218.514173 
L 632.863334 218.118445 
L 631.281304 217.32699 
L 627.29269 216.535536 
L 622.805117 215.744081 
L 615.175346 213.765444 
L 610.115582 212.182534 
L 608.639096 211.786807 
L 605.750444 210.599625 
L 603.975378 209.80817 
L 597.746727 207.433805 
L 595.861996 206.64235 
L 593.793193 205.850896 
L 591.921516 205.059441 
L 585.224523 202.289349 
L 583.626391 201.497894 
L 580.736237 200.310712 
L 579.800102 199.914985 
L 578.35669 199.519257 
L 571.790425 196.749165 
L 570.63361 196.353438 
L 569.32926 195.561983 
L 568.426072 195.166256 
L 567.074091 194.770528 
L 566.469327 194.374801 
L 563.233872 193.187619 
L 562.559682 192.791891 
L 561.431647 192.396164 
L 560.672225 192.000436 
L 559.156088 191.604709 
L 558.370898 191.208982 
L 557.877039 190.813254 
L 556.72661 190.417527 
L 555.997869 190.021799 
L 554.753882 189.626072 
L 553.961372 189.230345 
L 551.769358 188.43889 
L 548.77559 187.251708 
L 546.688526 186.460253 
L 544.125211 185.668798 
L 541.20587 184.481616 
L 538.130749 183.294434 
L 536.811983 182.898706 
L 534.940276 182.107251 
L 534.103133 181.711524 
L 531.560372 180.920069 
L 530.800317 180.524342 
L 525.430784 178.545705 
L 524.736765 178.149977 
L 523.686011 177.75425 
L 522.957206 177.358522 
L 522.579927 176.962795 
L 519.826405 175.775613 
L 519.409665 175.379885 
L 517.156163 174.588431 
L 516.704776 174.192703 
L 515.706103 173.796976 
L 515.179237 173.401248 
L 515.297991 173.005521 
L 514.944921 172.214066 
L 515.315716 171.818339 
L 514.993352 171.422611 
L 515.379177 171.026884 
L 516.165047 170.631157 
L 517.261409 170.235429 
L 521.051452 169.443974 
L 521.434661 169.048247 
L 523.471255 168.65252 
L 528.160378 168.256792 
L 529.755761 167.861065 
L 528.634476 167.06961 
L 521.258106 164.695246 
L 520.45173 164.299518 
L 515.56486 162.716609 
L 511.537622 161.529426 
L 511.287344 161.133699 
L 507.924085 160.342244 
L 507.114955 159.946517 
L 505.504414 159.550789 
L 504.579647 159.155062 
L 502.525503 158.759334 
L 497.520786 157.176425 
L 486.315312 154.80206 
L 478.179342 153.219151 
L 472.536685 152.427696 
L 465.52136 151.240514 
L 454.195822 150.053332 
L 450.928904 149.657604 
L 446.412206 149.261877 
L 443.184782 148.866149 
L 434.028477 148.074695 
L 423.412266 147.28324 
L 418.405961 146.887512 
L 414.817361 146.491785 
L 401.705785 144.513148 
L 400.289891 144.11742 
L 396.501337 143.325966 
L 396.380574 142.930238 
L 395.085052 142.534511 
L 393.593902 141.743056 
L 393.703908 141.347329 
L 391.47109 140.160146 
L 390.107833 139.764419 
L 389.425232 139.368692 
L 389.738994 138.972964 
L 388.953637 138.577237 
L 388.579808 138.181509 
L 388.85745 137.785782 
L 388.430922 137.390055 
L 387.583329 136.994327 
L 387.743074 136.5986 
L 387.325744 136.202872 
L 385.957254 135.807145 
L 386.15548 135.411418 
L 384.963408 134.619963 
L 384.91161 134.224235 
L 384.732323 133.828508 
L 383.883613 133.432781 
L 382.580537 133.037053 
L 382.146542 132.641326 
L 383.28613 131.849871 
L 381.578031 131.058416 
L 380.462187 130.662689 
L 380.826197 130.266961 
L 380.050394 129.871234 
L 379.790612 129.475506 
L 379.080354 129.079779 
L 378.921778 128.684052 
L 378.458255 128.288324 
L 378.184676 127.892597 
L 378.57096 127.496869 
L 377.822492 127.101142 
L 375.679046 126.705415 
L 375.237245 126.309687 
L 373.310943 125.518232 
L 372.794019 124.726778 
L 372.055915 124.33105 
L 372.44762 123.935323 
L 372.029335 123.539595 
L 371.818759 123.143868 
L 372.059274 122.748141 
L 371.051538 122.352413 
L 370.630069 121.956686 
L 369.852142 121.560958 
L 369.573873 121.165231 
L 368.936903 120.769504 
L 368.906622 120.373776 
L 367.507437 119.186594 
L 365.704275 118.395139 
L 365.861396 117.999412 
L 364.376469 117.603684 
L 363.997816 117.207957 
L 362.861792 116.81223 
L 363.011956 116.416502 
L 362.796659 116.020775 
L 363.157392 115.625047 
L 363.0856 115.22932 
L 362.231138 114.833592 
L 362.021678 114.437865 
L 360.795174 114.042138 
L 359.492507 113.250683 
L 359.346916 112.854955 
L 357.141235 111.667773 
L 356.808743 111.272046 
L 356.704029 110.876318 
L 356.258689 110.480591 
L 356.152126 110.084864 
L 354.859851 109.689136 
L 353.811763 108.897681 
L 355.038847 108.501954 
L 370.943551 107.710499 
L 381.651781 106.919044 
L 388.56938 106.12759 
L 390.763722 105.731862 
L 393.415971 104.940407 
L 395.32736 104.148953 
L 395.850275 103.753225 
L 395.825541 103.357498 
L 396.386191 102.566043 
L 396.642044 102.170316 
L 397.712457 101.378861 
L 397.749499 100.983133 
L 397.573351 100.191678 
L 397.280967 99.795951 
L 397.482019 99.400224 
L 397.310145 99.004496 
L 396.669972 98.213041 
L 396.485329 97.817314 
L 395.652979 97.025859 
L 395.871951 96.630132 
L 395.780494 95.838677 
L 395.066137 95.44295 
L 394.442683 94.651495 
L 394.255913 93.86004 
L 394.669069 93.068585 
L 394.401065 92.672858 
L 393.893577 92.27713 
L 393.722271 91.881403 
L 393.900604 91.485676 
L 393.094369 90.694221 
L 393.032688 89.902766 
L 392.49118 89.111311 
L 392.49118 89.111311 
" clip-path="url(#pe813bc63bc)" style="fill: none; stroke-dasharray: 5.55,2.4; stroke-dashoffset: 0; stroke: #e50000; stroke-width: 1.5"/>
   </g>
   <g id="line2d_106">
    <path d="M 243.8412 484.442989 
L 244.467282 484.047261 
L 244.879751 483.255807 
L 244.940721 482.860079 
L 243.909811 482.464352 
L 244.393208 482.068624 
L 245.270414 481.672897 
L 246.51066 481.27717 
L 246.40808 480.881442 
L 246.174116 480.485715 
L 246.675227 480.089987 
L 247.373803 479.69426 
L 247.827553 479.298533 
L 247.38475 478.902805 
L 247.463327 478.507078 
L 248.116574 478.11135 
L 248.107039 477.715623 
L 248.829665 477.319896 
L 250.057427 476.924168 
L 250.685466 476.528441 
L 251.02988 476.132713 
L 250.696539 475.736986 
L 251.726552 475.341259 
L 250.823278 474.945531 
L 250.87554 474.549804 
L 251.702416 474.154076 
L 251.379 473.758349 
L 251.783986 473.362622 
L 251.624091 472.966894 
L 251.8914 472.571167 
L 252.604378 472.175439 
L 252.007104 471.779712 
L 253.317056 470.988257 
L 252.005994 470.196802 
L 252.613136 469.801075 
L 252.001466 469.405347 
L 251.987683 469.00962 
L 253.223412 468.613893 
L 252.830831 468.218165 
L 252.913619 467.822438 
L 252.200102 467.42671 
L 252.392053 467.030983 
L 251.17414 466.635256 
L 251.13584 466.239528 
L 252.171164 465.843801 
L 252.063901 465.448073 
L 249.938801 465.052346 
L 248.772797 464.656619 
L 249.424396 464.260891 
L 248.053364 463.865164 
L 238.739439 463.073709 
L 236.797701 462.677982 
L 230.916682 462.282254 
L 219.930443 461.886527 
L 251.124977 461.490799 
L 260.281425 461.095072 
L 262.28076 460.699345 
L 266.306987 460.303617 
L 268.666961 459.90789 
L 265.571836 459.116435 
L 282.694934 458.720708 
L 284.612747 458.32498 
L 289.285999 457.929253 
L 289.964074 457.533525 
L 294.521648 457.137798 
L 298.123149 456.346343 
L 301.982071 455.950616 
L 302.60842 455.554888 
L 306.073946 455.159161 
L 307.639787 454.763433 
L 307.900961 454.367706 
L 306.603401 453.971979 
L 304.515509 453.576251 
L 306.917344 453.180524 
L 316.976136 452.784796 
L 313.761236 452.389069 
L 322.459292 451.993342 
L 326.527133 451.597614 
L 328.783143 451.201887 
L 330.21828 450.806159 
L 335.117203 450.014705 
L 336.922245 449.618977 
L 347.72587 448.036068 
L 350.695867 447.244613 
L 355.988808 446.453158 
L 362.668145 445.265976 
L 369.172133 444.078794 
L 370.785937 443.683066 
L 373.857635 443.287339 
L 375.765852 442.891611 
L 376.766966 442.495884 
L 379.063378 442.100156 
L 382.274826 441.704429 
L 383.72428 441.308702 
L 394.948304 439.725792 
L 400.81955 438.934337 
L 402.786408 438.53861 
L 404.185504 438.142882 
L 411.641618 436.9557 
L 416.301221 436.164245 
L 421.464139 435.372791 
L 424.244772 434.977063 
L 428.138669 434.185608 
L 433.882204 433.394154 
L 435.659912 432.998426 
L 442.064786 432.206971 
L 447.645248 431.415517 
L 449.734639 431.019789 
L 462.274643 429.43688 
L 464.062361 429.041152 
L 519.06643 421.522331 
L 528.552149 420.335149 
L 534.221518 419.543694 
L 551.739171 417.16933 
L 555.955966 416.377875 
L 556.8827 415.982148 
L 556.204548 415.58642 
L 555.793442 415.190693 
L 548.666758 414.399238 
L 563.165373 412.420601 
L 570.825988 410.837691 
L 574.459744 410.046237 
L 579.01455 408.859054 
L 580.191977 408.463327 
L 583.051622 407.671872 
L 591.819922 404.90178 
L 592.749341 404.506053 
L 595.142587 403.714598 
L 597.436749 402.923143 
L 598.306988 402.527416 
L 600.966125 401.735961 
L 602.212507 401.340234 
L 602.90225 400.944506 
L 604.32927 400.548779 
L 616.356037 395.80005 
L 618.428646 395.008595 
L 625.027045 392.238503 
L 626.144446 391.842776 
L 628.32213 390.655594 
L 647.379161 381.553864 
L 648.394775 381.158136 
L 649.854072 380.366681 
L 651.643992 379.575226 
L 654.134149 378.388044 
L 655.130269 377.992317 
L 655.676451 377.596589 
L 660.156039 375.617952 
L 661.153748 375.222225 
L 663.359519 374.035043 
L 668.370772 371.660678 
L 675.73744 367.703404 
L 676.196217 367.307677 
L 676.734013 366.120495 
L 677.152332 365.724767 
L 677.805437 365.32904 
L 680.287506 364.537585 
L 684.503822 363.350403 
L 688.275087 362.163221 
L 691.258851 360.976038 
L 697.960852 358.205947 
L 700.782688 357.018764 
L 702.62595 356.22731 
L 705.523481 355.040127 
L 718.623178 349.499944 
L 721.475438 348.312761 
L 723.350595 347.521307 
L 727.091219 345.938397 
L 732.090671 343.95976 
L 733.946361 343.168305 
L 739.958588 340.793941 
L 763.096638 332.087938 
L 771.011562 329.317846 
L 784.154676 324.964845 
L 804.747635 318.237479 
L 805.695662 317.841751 
L 807.602538 316.654569 
L 809.65415 315.863114 
L 812.579338 315.071659 
L 817.316462 313.884477 
L 823.397345 311.90584 
L 827.435511 310.322931 
L 833.002967 307.552839 
L 835.604666 305.969929 
L 837.271833 304.782747 
L 839.61791 302.80411 
L 842.673237 299.242563 
L 844.095313 296.472471 
L 844.750924 294.098107 
L 844.9567 292.515197 
L 844.972173 291.328015 
L 844.463952 288.162196 
L 843.692028 286.183559 
L 843.302651 285.392104 
L 842.031181 283.413467 
L 841.079948 282.226285 
L 837.183991 278.664738 
L 835.511302 277.477556 
L 829.791091 274.311737 
L 826.191356 272.728827 
L 821.996293 271.145917 
L 816.869216 269.563008 
L 812.182527 268.375826 
L 809.329773 267.584371 
L 807.367365 266.792916 
L 806.604572 266.397189 
L 806.106139 266.001461 
L 805.41501 265.605734 
L 802.333671 264.418552 
L 793.780813 261.64846 
L 775.357512 255.712549 
L 771.958937 254.525366 
L 768.402167 253.338184 
L 757.36124 249.38091 
L 744.695927 244.632181 
L 740.664057 243.049272 
L 736.609098 241.466362 
L 725.972515 237.113361 
L 722.302229 235.530451 
L 719.327107 234.343269 
L 708.004263 229.59454 
L 705.936959 228.803085 
L 700.306353 226.428721 
L 696.535682 224.845811 
L 692.496265 223.262901 
L 689.752463 222.075719 
L 687.593549 221.284264 
L 684.953822 220.49281 
L 682.491177 219.701355 
L 679.572454 218.9099 
L 677.391965 218.118445 
L 676.189462 217.32699 
L 675.95152 216.931263 
L 675.844958 216.535536 
L 675.618841 216.139808 
L 675.209644 215.744081 
L 670.038787 212.973989 
L 667.488613 211.786807 
L 666.068779 210.995352 
L 664.261925 210.203897 
L 663.491037 209.80817 
L 660.706814 208.620987 
L 652.834066 205.059441 
L 651.054946 204.267986 
L 649.509614 203.476531 
L 634.062019 196.749165 
L 631.331912 195.561983 
L 625.766009 193.187619 
L 615.775335 189.230345 
L 614.964494 188.834617 
L 609.139771 186.85598 
L 606.053058 185.668798 
L 603.60461 184.877343 
L 599.080392 183.294434 
L 593.371939 181.315797 
L 589.465435 180.128614 
L 588.385709 179.732887 
L 584.103715 178.545705 
L 583.190309 178.149977 
L 580.00361 177.358522 
L 574.277843 175.775613 
L 562.364342 173.005521 
L 553.713574 171.422611 
L 548.348813 170.631157 
L 534.903548 169.048247 
L 535.8919 168.65252 
L 542.826513 168.256792 
L 545.337442 167.861065 
L 545.014975 167.465337 
L 543.872803 167.06961 
L 537.206466 165.882428 
L 511.89555 161.925154 
L 487.793753 157.572152 
L 486.424945 157.176425 
L 481.675784 156.38497 
L 470.144158 154.010606 
L 466.23319 153.219151 
L 444.987426 149.261877 
L 436.932452 148.074695 
L 432.09377 147.28324 
L 428.802372 146.887512 
L 425.16533 145.70033 
L 419.934638 144.513148 
L 414.976075 142.930238 
L 414.648107 142.534511 
L 413.839592 142.138783 
L 412.488316 141.743056 
L 409.896151 140.160146 
L 410.051768 139.764419 
L 408.826242 139.368692 
L 408.320938 138.972964 
L 406.708047 138.181509 
L 406.918211 137.785782 
L 404.87578 136.994327 
L 403.890603 136.202872 
L 402.887501 135.807145 
L 402.843006 135.411418 
L 403.09592 135.01569 
L 401.49085 133.432781 
L 402.156297 133.037053 
L 401.489889 132.641326 
L 400.696024 131.849871 
L 399.747722 131.454144 
L 399.739188 131.058416 
L 399.281996 130.662689 
L 397.330292 129.475506 
L 396.811913 129.079779 
L 395.54182 128.684052 
L 395.237152 128.288324 
L 394.479005 127.892597 
L 393.450439 127.496869 
L 393.932511 127.101142 
L 393.556346 126.705415 
L 392.235866 126.309687 
L 392.151725 125.91396 
L 391.622965 125.518232 
L 391.321398 125.122505 
L 391.239156 124.726778 
L 389.433758 123.539595 
L 389.886958 123.143868 
L 389.506011 122.748141 
L 388.318298 121.956686 
L 386.925238 121.165231 
L 386.597159 120.769504 
L 385.922158 120.373776 
L 385.567076 119.978049 
L 384.662165 119.582321 
L 384.048076 119.186594 
L 384.160862 118.790867 
L 382.511284 117.603684 
L 381.63887 117.207957 
L 381.589935 116.81223 
L 382.023603 116.416502 
L 380.796419 116.020775 
L 380.659357 115.625047 
L 379.87708 115.22932 
L 379.087836 114.437865 
L 379.211971 114.042138 
L 378.84473 113.64641 
L 379.099048 113.250683 
L 378.067626 112.854955 
L 377.790183 112.459228 
L 375.55916 111.667773 
L 375.847926 111.272046 
L 374.477166 110.480591 
L 374.031846 110.084864 
L 372.913946 109.689136 
L 372.592293 109.293409 
L 371.009836 108.501954 
L 374.652504 108.106227 
L 387.129037 107.314772 
L 391.928422 106.919044 
L 397.810636 106.12759 
L 401.809877 105.336135 
L 404.585249 104.54468 
L 405.39284 104.148953 
L 405.790493 103.753225 
L 407.146427 102.96177 
L 407.357472 102.566043 
L 407.596325 101.774588 
L 407.927494 101.378861 
L 407.944446 100.983133 
L 408.288609 100.191678 
L 407.796115 99.004496 
L 408.193933 97.421587 
L 407.734431 97.025859 
L 407.748298 96.630132 
L 407.556062 96.234404 
L 407.698745 95.838677 
L 407.153968 95.047222 
L 406.419147 93.86004 
L 406.373857 93.464313 
L 405.991196 92.672858 
L 405.932325 91.485676 
L 404.633317 89.507039 
L 404.516007 89.111311 
L 404.516007 89.111311 
" clip-path="url(#pe813bc63bc)" style="fill: none; stroke-dasharray: 5.55,2.4; stroke-dashoffset: 0; stroke: #0504aa; stroke-width: 1.5"/>
   </g>
   <g id="patch_3">
    <path d="M 141.333688 504.209573 
L 141.333688 69.344727 
" style="fill: none; stroke: #000000; stroke-width: 0.8; stroke-linejoin: miter; stroke-linecap: square"/>
   </g>
   <g id="patch_4">
    <path d="M 918.28125 504.209573 
L 918.28125 69.344727 
" style="fill: none; stroke: #000000; stroke-width: 0.8; stroke-linejoin: miter; stroke-linecap: square"/>
   </g>
   <g id="patch_5">
    <path d="M 141.333688 504.209573 
L 918.28125 504.209573 
" style="fill: none; stroke: #000000; stroke-width: 0.8; stroke-linejoin: miter; stroke-linecap: square"/>
   </g>
   <g id="patch_6">
    <path d="M 141.333688 69.344727 
L 918.28125 69.344727 
" style="fill: none; stroke: #000000; stroke-width: 0.8; stroke-linejoin: miter; stroke-linecap: square"/>
   </g>
   <g id="text_15">
    <!-- Axial flux distribution at Irradiation Positions -->
    <g transform="translate(263.893094 63.344727) scale(0.24 -0.24)">
     <defs>
      <path id="DejaVuSans-66" d="M 2375 4863 
L 2375 4384 
L 1825 4384 
Q 1516 4384 1395 4259 
Q 1275 4134 1275 3809 
L 1275 3500 
L 2222 3500 
L 2222 3053 
L 1275 3053 
L 1275 0 
L 697 0 
L 697 3053 
L 147 3053 
L 147 3500 
L 697 3500 
L 697 3744 
Q 697 4328 969 4595 
Q 1241 4863 1831 4863 
L 2375 4863 
z
" transform="scale(0.015625)"/>
      <path id="DejaVuSans-64" d="M 2906 2969 
L 2906 4863 
L 3481 4863 
L 3481 0 
L 2906 0 
L 2906 525 
Q 2725 213 2448 61 
Q 2172 -91 1784 -91 
Q 1150 -91 751 415 
Q 353 922 353 1747 
Q 353 2572 751 3078 
Q 1150 3584 1784 3584 
Q 2172 3584 2448 3432 
Q 2725 3281 2906 2969 
z
M 947 1747 
Q 947 1113 1208 752 
Q 1469 391 1925 391 
Q 2381 391 2643 752 
Q 2906 1113 2906 1747 
Q 2906 2381 2643 2742 
Q 2381 3103 1925 3103 
Q 1469 3103 1208 2742 
Q 947 2381 947 1747 
z
" transform="scale(0.015625)"/>
      <path id="DejaVuSans-62" d="M 3116 1747 
Q 3116 2381 2855 2742 
Q 2594 3103 2138 3103 
Q 1681 3103 1420 2742 
Q 1159 2381 1159 1747 
Q 1159 1113 1420 752 
Q 1681 391 2138 391 
Q 2594 391 2855 752 
Q 3116 1113 3116 1747 
z
M 1159 2969 
Q 1341 3281 1617 3432 
Q 1894 3584 2278 3584 
Q 2916 3584 3314 3078 
Q 3713 2572 3713 1747 
Q 3713 922 3314 415 
Q 2916 -91 2278 -91 
Q 1894 -91 1617 61 
Q 1341 213 1159 525 
L 1159 0 
L 581 0 
L 581 4863 
L 1159 4863 
L 1159 2969 
z
" transform="scale(0.015625)"/>
      <path id="DejaVuSans-49" d="M 628 4666 
L 1259 4666 
L 1259 0 
L 628 0 
L 628 4666 
z
" transform="scale(0.015625)"/>
      <path id="DejaVuSans-50" d="M 1259 4147 
L 1259 2394 
L 2053 2394 
Q 2494 2394 2734 2622 
Q 2975 2850 2975 3272 
Q 2975 3691 2734 3919 
Q 2494 4147 2053 4147 
L 1259 4147 
z
M 628 4666 
L 2053 4666 
Q 2838 4666 3239 4311 
Q 3641 3956 3641 3272 
Q 3641 2581 3239 2228 
Q 2838 1875 2053 1875 
L 1259 1875 
L 1259 0 
L 628 0 
L 628 4666 
z
" transform="scale(0.015625)"/>
     </defs>
     <use xlink:href="#DejaVuSans-41"/>
     <use xlink:href="#DejaVuSans-78" x="68.408203"/>
     <use xlink:href="#DejaVuSans-69" x="127.587891"/>
     <use xlink:href="#DejaVuSans-61" x="155.371094"/>
     <use xlink:href="#DejaVuSans-6c" x="216.650391"/>
     <use xlink:href="#DejaVuSans-20" x="244.433594"/>
     <use xlink:href="#DejaVuSans-66" x="276.220703"/>
     <use xlink:href="#DejaVuSans-6c" x="311.425781"/>
     <use xlink:href="#DejaVuSans-75" x="339.208984"/>
     <use xlink:href="#DejaVuSans-78" x="402.587891"/>
     <use xlink:href="#DejaVuSans-20" x="461.767578"/>
     <use xlink:href="#DejaVuSans-64" x="493.554688"/>
     <use xlink:href="#DejaVuSans-69" x="557.03125"/>
     <use xlink:href="#DejaVuSans-73" x="584.814453"/>
     <use xlink:href="#DejaVuSans-74" x="636.914062"/>
     <use xlink:href="#DejaVuSans-72" x="676.123047"/>
     <use xlink:href="#DejaVuSans-69" x="717.236328"/>
     <use xlink:href="#DejaVuSans-62" x="745.019531"/>
     <use xlink:href="#DejaVuSans-75" x="808.496094"/>
     <use xlink:href="#DejaVuSans-74" x="871.875"/>
     <use xlink:href="#DejaVuSans-69" x="911.083984"/>
     <use xlink:href="#DejaVuSans-6f" x="938.867188"/>
     <use xlink:href="#DejaVuSans-6e" x="1000.048828"/>
     <use xlink:href="#DejaVuSans-20" x="1063.427734"/>
     <use xlink:href="#DejaVuSans-61" x="1095.214844"/>
     <use xlink:href="#DejaVuSans-74" x="1156.494141"/>
     <use xlink:href="#DejaVuSans-20" x="1195.703125"/>
     <use xlink:href="#DejaVuSans-49" x="1227.490234"/>
     <use xlink:href="#DejaVuSans-72" x="1256.982422"/>
     <use xlink:href="#DejaVuSans-72" x="1296.345703"/>
     <use xlink:href="#DejaVuSans-61" x="1337.458984"/>
     <use xlink:href="#DejaVuSans-64" x="1398.738281"/>
     <use xlink:href="#DejaVuSans-69" x="1462.214844"/>
     <use xlink:href="#DejaVuSans-61" x="1489.998047"/>
     <use xlink:href="#DejaVuSans-74" x="1551.277344"/>
     <use xlink:href="#DejaVuSans-69" x="1590.486328"/>
     <use xlink:href="#DejaVuSans-6f" x="1618.269531"/>
     <use xlink:href="#DejaVuSans-6e" x="1679.451172"/>
     <use xlink:href="#DejaVuSans-20" x="1742.830078"/>
     <use xlink:href="#DejaVuSans-50" x="1774.617188"/>
     <use xlink:href="#DejaVuSans-6f" x="1831.294922"/>
     <use xlink:href="#DejaVuSans-73" x="1892.476562"/>
     <use xlink:href="#DejaVuSans-69" x="1944.576172"/>
     <use xlink:href="#DejaVuSans-74" x="1972.359375"/>
     <use xlink:href="#DejaVuSans-69" x="2011.568359"/>
     <use xlink:href="#DejaVuSans-6f" x="2039.351562"/>
     <use xlink:href="#DejaVuSans-6e" x="2100.533203"/>
     <use xlink:href="#DejaVuSans-73" x="2163.912109"/>
    </g>
   </g>
   <g id="legend_1">
    <g id="patch_7">
     <path d="M 678.740625 202.769727 
L 904.28125 202.769727 
Q 908.28125 202.769727 908.28125 198.769727 
L 908.28125 83.344727 
Q 908.28125 79.344727 904.28125 79.344727 
L 678.740625 79.344727 
Q 674.740625 79.344727 674.740625 83.344727 
L 674.740625 198.769727 
Q 674.740625 202.769727 678.740625 202.769727 
z
" style="fill: #ffffff; opacity: 0.8; stroke: #cccccc; stroke-width: 0.24; stroke-linejoin: miter"/>
    </g>
    <g id="line2d_107">
     <path d="M 682.740625 95.541602 
L 702.740625 95.541602 
L 722.740625 95.541602 
" style="fill: none; stroke: #c04e01; stroke-width: 1.5; stroke-linecap: square"/>
    </g>
    <g id="text_16">
     <!-- Central Thermal -->
     <g transform="translate(738.740625 102.541602) scale(0.2 -0.2)">
      <defs>
       <path id="DejaVuSans-43" d="M 4122 4306 
L 4122 3641 
Q 3803 3938 3442 4084 
Q 3081 4231 2675 4231 
Q 1875 4231 1450 3742 
Q 1025 3253 1025 2328 
Q 1025 1406 1450 917 
Q 1875 428 2675 428 
Q 3081 428 3442 575 
Q 3803 722 4122 1019 
L 4122 359 
Q 3791 134 3420 21 
Q 3050 -91 2638 -91 
Q 1578 -91 968 557 
Q 359 1206 359 2328 
Q 359 3453 968 4101 
Q 1578 4750 2638 4750 
Q 3056 4750 3426 4639 
Q 3797 4528 4122 4306 
z
" transform="scale(0.015625)"/>
       <path id="DejaVuSans-54" d="M -19 4666 
L 3928 4666 
L 3928 4134 
L 2272 4134 
L 2272 0 
L 1638 0 
L 1638 4134 
L -19 4134 
L -19 4666 
z
" transform="scale(0.015625)"/>
       <path id="DejaVuSans-68" d="M 3513 2113 
L 3513 0 
L 2938 0 
L 2938 2094 
Q 2938 2591 2744 2837 
Q 2550 3084 2163 3084 
Q 1697 3084 1428 2787 
Q 1159 2491 1159 1978 
L 1159 0 
L 581 0 
L 581 4863 
L 1159 4863 
L 1159 2956 
Q 1366 3272 1645 3428 
Q 1925 3584 2291 3584 
Q 2894 3584 3203 3211 
Q 3513 2838 3513 2113 
z
" transform="scale(0.015625)"/>
      </defs>
      <use xlink:href="#DejaVuSans-43"/>
      <use xlink:href="#DejaVuSans-65" x="69.824219"/>
      <use xlink:href="#DejaVuSans-6e" x="131.347656"/>
      <use xlink:href="#DejaVuSans-74" x="194.726562"/>
      <use xlink:href="#DejaVuSans-72" x="233.935547"/>
      <use xlink:href="#DejaVuSans-61" x="275.048828"/>
      <use xlink:href="#DejaVuSans-6c" x="336.328125"/>
      <use xlink:href="#DejaVuSans-20" x="364.111328"/>
      <use xlink:href="#DejaVuSans-54" x="395.898438"/>
      <use xlink:href="#DejaVuSans-68" x="456.982422"/>
      <use xlink:href="#DejaVuSans-65" x="520.361328"/>
      <use xlink:href="#DejaVuSans-72" x="581.884766"/>
      <use xlink:href="#DejaVuSans-6d" x="621.248047"/>
      <use xlink:href="#DejaVuSans-61" x="718.660156"/>
      <use xlink:href="#DejaVuSans-6c" x="779.939453"/>
     </g>
    </g>
    <g id="line2d_108">
     <path d="M 682.740625 124.897852 
L 702.740625 124.897852 
L 722.740625 124.897852 
" style="fill: none; stroke: #0485d1; stroke-width: 1.5; stroke-linecap: square"/>
    </g>
    <g id="text_17">
     <!-- Central Fast -->
     <g transform="translate(738.740625 131.897852) scale(0.2 -0.2)">
      <use xlink:href="#DejaVuSans-43"/>
      <use xlink:href="#DejaVuSans-65" x="69.824219"/>
      <use xlink:href="#DejaVuSans-6e" x="131.347656"/>
      <use xlink:href="#DejaVuSans-74" x="194.726562"/>
      <use xlink:href="#DejaVuSans-72" x="233.935547"/>
      <use xlink:href="#DejaVuSans-61" x="275.048828"/>
      <use xlink:href="#DejaVuSans-6c" x="336.328125"/>
      <use xlink:href="#DejaVuSans-20" x="364.111328"/>
      <use xlink:href="#DejaVuSans-46" x="395.898438"/>
      <use xlink:href="#DejaVuSans-61" x="444.292969"/>
      <use xlink:href="#DejaVuSans-73" x="505.572266"/>
      <use xlink:href="#DejaVuSans-74" x="557.671875"/>
     </g>
    </g>
    <g id="line2d_109">
     <path d="M 682.740625 154.254102 
L 702.740625 154.254102 
L 722.740625 154.254102 
" style="fill: none; stroke-dasharray: 5.55,2.4; stroke-dashoffset: 0; stroke: #e50000; stroke-width: 1.5"/>
    </g>
    <g id="text_18">
     <!-- Comb Thermal -->
     <g transform="translate(738.740625 161.254102) scale(0.2 -0.2)">
      <use xlink:href="#DejaVuSans-43"/>
      <use xlink:href="#DejaVuSans-6f" x="69.824219"/>
      <use xlink:href="#DejaVuSans-6d" x="131.005859"/>
      <use xlink:href="#DejaVuSans-62" x="228.417969"/>
      <use xlink:href="#DejaVuSans-20" x="291.894531"/>
      <use xlink:href="#DejaVuSans-54" x="323.681641"/>
      <use xlink:href="#DejaVuSans-68" x="384.765625"/>
      <use xlink:href="#DejaVuSans-65" x="448.144531"/>
      <use xlink:href="#DejaVuSans-72" x="509.667969"/>
      <use xlink:href="#DejaVuSans-6d" x="549.03125"/>
      <use xlink:href="#DejaVuSans-61" x="646.443359"/>
      <use xlink:href="#DejaVuSans-6c" x="707.722656"/>
     </g>
    </g>
    <g id="line2d_110">
     <path d="M 682.740625 183.610352 
L 702.740625 183.610352 
L 722.740625 183.610352 
" style="fill: none; stroke-dasharray: 5.55,2.4; stroke-dashoffset: 0; stroke: #0504aa; stroke-width: 1.5"/>
    </g>
    <g id="text_19">
     <!-- Comb Fast -->
     <g transform="translate(738.740625 190.610352) scale(0.2 -0.2)">
      <use xlink:href="#DejaVuSans-43"/>
      <use xlink:href="#DejaVuSans-6f" x="69.824219"/>
      <use xlink:href="#DejaVuSans-6d" x="131.005859"/>
      <use xlink:href="#DejaVuSans-62" x="228.417969"/>
      <use xlink:href="#DejaVuSans-20" x="291.894531"/>
      <use xlink:href="#DejaVuSans-46" x="323.681641"/>
      <use xlink:href="#DejaVuSans-61" x="372.076172"/>
      <use xlink:href="#DejaVuSans-73" x="433.355469"/>
      <use xlink:href="#DejaVuSans-74" x="485.455078"/>
     </g>
    </g>
   </g>
  </g>
 </g>
 <defs>
  <clipPath id="pe813bc63bc">
   <rect x="141.333688" y="69.344727" width="776.947563" height="434.864845"/>
  </clipPath>
 </defs>
</svg>
