<?xml version="1.0" encoding="utf-8" standalone="no"?>
<!DOCTYPE svg PUBLIC "-//W3C//DTD SVG 1.1//EN"
  "http://www.w3.org/Graphics/SVG/1.1/DTD/svg11.dtd">
<svg xmlns:xlink="http://www.w3.org/1999/xlink" width="970.56pt" height="640.8pt" viewBox="0 0 970.56 640.8" xmlns="http://www.w3.org/2000/svg" version="1.1">
 <metadata>
  <rdf:RDF xmlns:dc="http://purl.org/dc/elements/1.1/" xmlns:cc="http://creativecommons.org/ns#" xmlns:rdf="http://www.w3.org/1999/02/22-rdf-syntax-ns#">
   <cc:Work>
    <dc:type rdf:resource="http://purl.org/dc/dcmitype/StillImage"/>
    <dc:date>2024-09-12T20:44:02.657906</dc:date>
    <dc:format>image/svg+xml</dc:format>
    <dc:creator>
     <cc:Agent>
      <dc:title>Matplotlib v3.9.0, https://matplotlib.org/</dc:title>
     </cc:Agent>
    </dc:creator>
   </cc:Work>
  </rdf:RDF>
 </metadata>
 <defs>
  <style type="text/css">*{stroke-linejoin: round; stroke-linecap: butt}</style>
 </defs>
 <g id="figure_1">
  <g id="patch_1">
   <path d="M 0 640.8 
L 970.56 640.8 
L 970.56 0 
L 0 0 
z
" style="fill: #ffffff"/>
  </g>
  <g id="axes_1">
   <g id="patch_2">
    <path d="M 145.878875 522.405727 
L 947.8125 522.405727 
L 947.8125 71.847273 
L 145.878875 71.847273 
z
" style="fill: #ffffff"/>
   </g>
   <g id="matplotlib.axis_1">
    <g id="xtick_1">
     <g id="line2d_1">
      <path d="M 216.845374 522.405727 
L 216.845374 71.847273 
" clip-path="url(#p476a75ab6e)" style="fill: none; stroke-dasharray: 0.74,0.32; stroke-dashoffset: 0; stroke: #808080; stroke-width: 0.2"/>
     </g>
     <g id="line2d_2">
      <defs>
       <path id="m8a1d740ab6" d="M 0 0 
L 0 3.5 
" style="stroke: #000000; stroke-width: 0.8"/>
      </defs>
      <g>
       <use xlink:href="#m8a1d740ab6" x="216.845374" y="522.405727" style="stroke: #000000; stroke-width: 0.8"/>
      </g>
     </g>
     <g id="text_1">
      <!-- $\mathdefault{10^{1}}$ -->
      <g transform="translate(206.285374 540.623852) scale(0.12 -0.12)">
       <defs>
        <path id="DejaVuSans-31" d="M 794 531 
L 1825 531 
L 1825 4091 
L 703 3866 
L 703 4441 
L 1819 4666 
L 2450 4666 
L 2450 531 
L 3481 531 
L 3481 0 
L 794 0 
L 794 531 
z
" transform="scale(0.015625)"/>
        <path id="DejaVuSans-30" d="M 2034 4250 
Q 1547 4250 1301 3770 
Q 1056 3291 1056 2328 
Q 1056 1369 1301 889 
Q 1547 409 2034 409 
Q 2525 409 2770 889 
Q 3016 1369 3016 2328 
Q 3016 3291 2770 3770 
Q 2525 4250 2034 4250 
z
M 2034 4750 
Q 2819 4750 3233 4129 
Q 3647 3509 3647 2328 
Q 3647 1150 3233 529 
Q 2819 -91 2034 -91 
Q 1250 -91 836 529 
Q 422 1150 422 2328 
Q 422 3509 836 4129 
Q 1250 4750 2034 4750 
z
" transform="scale(0.015625)"/>
       </defs>
       <use xlink:href="#DejaVuSans-31" transform="translate(0 0.684375)"/>
       <use xlink:href="#DejaVuSans-30" transform="translate(63.623047 0.684375)"/>
       <use xlink:href="#DejaVuSans-31" transform="translate(128.203125 38.965625) scale(0.7)"/>
      </g>
     </g>
    </g>
    <g id="xtick_2">
     <g id="line2d_3">
      <path d="M 388.226619 522.405727 
L 388.226619 71.847273 
" clip-path="url(#p476a75ab6e)" style="fill: none; stroke-dasharray: 0.74,0.32; stroke-dashoffset: 0; stroke: #808080; stroke-width: 0.2"/>
     </g>
     <g id="line2d_4">
      <g>
       <use xlink:href="#m8a1d740ab6" x="388.226619" y="522.405727" style="stroke: #000000; stroke-width: 0.8"/>
      </g>
     </g>
     <g id="text_2">
      <!-- $\mathdefault{10^{2}}$ -->
      <g transform="translate(377.666619 540.623852) scale(0.12 -0.12)">
       <defs>
        <path id="DejaVuSans-32" d="M 1228 531 
L 3431 531 
L 3431 0 
L 469 0 
L 469 531 
Q 828 903 1448 1529 
Q 2069 2156 2228 2338 
Q 2531 2678 2651 2914 
Q 2772 3150 2772 3378 
Q 2772 3750 2511 3984 
Q 2250 4219 1831 4219 
Q 1534 4219 1204 4116 
Q 875 4013 500 3803 
L 500 4441 
Q 881 4594 1212 4672 
Q 1544 4750 1819 4750 
Q 2544 4750 2975 4387 
Q 3406 4025 3406 3419 
Q 3406 3131 3298 2873 
Q 3191 2616 2906 2266 
Q 2828 2175 2409 1742 
Q 1991 1309 1228 531 
z
" transform="scale(0.015625)"/>
       </defs>
       <use xlink:href="#DejaVuSans-31" transform="translate(0 0.765625)"/>
       <use xlink:href="#DejaVuSans-30" transform="translate(63.623047 0.765625)"/>
       <use xlink:href="#DejaVuSans-32" transform="translate(128.203125 39.046875) scale(0.7)"/>
      </g>
     </g>
    </g>
    <g id="xtick_3">
     <g id="line2d_5">
      <path d="M 559.607864 522.405727 
L 559.607864 71.847273 
" clip-path="url(#p476a75ab6e)" style="fill: none; stroke-dasharray: 0.74,0.32; stroke-dashoffset: 0; stroke: #808080; stroke-width: 0.2"/>
     </g>
     <g id="line2d_6">
      <g>
       <use xlink:href="#m8a1d740ab6" x="559.607864" y="522.405727" style="stroke: #000000; stroke-width: 0.8"/>
      </g>
     </g>
     <g id="text_3">
      <!-- $\mathdefault{10^{3}}$ -->
      <g transform="translate(549.047864 540.623852) scale(0.12 -0.12)">
       <defs>
        <path id="DejaVuSans-33" d="M 2597 2516 
Q 3050 2419 3304 2112 
Q 3559 1806 3559 1356 
Q 3559 666 3084 287 
Q 2609 -91 1734 -91 
Q 1441 -91 1130 -33 
Q 819 25 488 141 
L 488 750 
Q 750 597 1062 519 
Q 1375 441 1716 441 
Q 2309 441 2620 675 
Q 2931 909 2931 1356 
Q 2931 1769 2642 2001 
Q 2353 2234 1838 2234 
L 1294 2234 
L 1294 2753 
L 1863 2753 
Q 2328 2753 2575 2939 
Q 2822 3125 2822 3475 
Q 2822 3834 2567 4026 
Q 2313 4219 1838 4219 
Q 1578 4219 1281 4162 
Q 984 4106 628 3988 
L 628 4550 
Q 988 4650 1302 4700 
Q 1616 4750 1894 4750 
Q 2613 4750 3031 4423 
Q 3450 4097 3450 3541 
Q 3450 3153 3228 2886 
Q 3006 2619 2597 2516 
z
" transform="scale(0.015625)"/>
       </defs>
       <use xlink:href="#DejaVuSans-31" transform="translate(0 0.765625)"/>
       <use xlink:href="#DejaVuSans-30" transform="translate(63.623047 0.765625)"/>
       <use xlink:href="#DejaVuSans-33" transform="translate(128.203125 39.046875) scale(0.7)"/>
      </g>
     </g>
    </g>
    <g id="xtick_4">
     <g id="line2d_7">
      <path d="M 730.989109 522.405727 
L 730.989109 71.847273 
" clip-path="url(#p476a75ab6e)" style="fill: none; stroke-dasharray: 0.74,0.32; stroke-dashoffset: 0; stroke: #808080; stroke-width: 0.2"/>
     </g>
     <g id="line2d_8">
      <g>
       <use xlink:href="#m8a1d740ab6" x="730.989109" y="522.405727" style="stroke: #000000; stroke-width: 0.8"/>
      </g>
     </g>
     <g id="text_4">
      <!-- $\mathdefault{10^{4}}$ -->
      <g transform="translate(720.429109 540.623852) scale(0.12 -0.12)">
       <defs>
        <path id="DejaVuSans-34" d="M 2419 4116 
L 825 1625 
L 2419 1625 
L 2419 4116 
z
M 2253 4666 
L 3047 4666 
L 3047 1625 
L 3713 1625 
L 3713 1100 
L 3047 1100 
L 3047 0 
L 2419 0 
L 2419 1100 
L 313 1100 
L 313 1709 
L 2253 4666 
z
" transform="scale(0.015625)"/>
       </defs>
       <use xlink:href="#DejaVuSans-31" transform="translate(0 0.684375)"/>
       <use xlink:href="#DejaVuSans-30" transform="translate(63.623047 0.684375)"/>
       <use xlink:href="#DejaVuSans-34" transform="translate(128.203125 38.965625) scale(0.7)"/>
      </g>
     </g>
    </g>
    <g id="xtick_5">
     <g id="line2d_9">
      <path d="M 902.370354 522.405727 
L 902.370354 71.847273 
" clip-path="url(#p476a75ab6e)" style="fill: none; stroke-dasharray: 0.74,0.32; stroke-dashoffset: 0; stroke: #808080; stroke-width: 0.2"/>
     </g>
     <g id="line2d_10">
      <g>
       <use xlink:href="#m8a1d740ab6" x="902.370354" y="522.405727" style="stroke: #000000; stroke-width: 0.8"/>
      </g>
     </g>
     <g id="text_5">
      <!-- $\mathdefault{10^{5}}$ -->
      <g transform="translate(891.810354 540.623852) scale(0.12 -0.12)">
       <defs>
        <path id="DejaVuSans-35" d="M 691 4666 
L 3169 4666 
L 3169 4134 
L 1269 4134 
L 1269 2991 
Q 1406 3038 1543 3061 
Q 1681 3084 1819 3084 
Q 2600 3084 3056 2656 
Q 3513 2228 3513 1497 
Q 3513 744 3044 326 
Q 2575 -91 1722 -91 
Q 1428 -91 1123 -41 
Q 819 9 494 109 
L 494 744 
Q 775 591 1075 516 
Q 1375 441 1709 441 
Q 2250 441 2565 725 
Q 2881 1009 2881 1497 
Q 2881 1984 2565 2268 
Q 2250 2553 1709 2553 
Q 1456 2553 1204 2497 
Q 953 2441 691 2322 
L 691 4666 
z
" transform="scale(0.015625)"/>
       </defs>
       <use xlink:href="#DejaVuSans-31" transform="translate(0 0.684375)"/>
       <use xlink:href="#DejaVuSans-30" transform="translate(63.623047 0.684375)"/>
       <use xlink:href="#DejaVuSans-35" transform="translate(128.203125 38.965625) scale(0.7)"/>
      </g>
     </g>
    </g>
    <g id="xtick_6">
     <g id="line2d_11">
      <path d="M 148.645919 522.405727 
L 148.645919 71.847273 
" clip-path="url(#p476a75ab6e)" style="fill: none; stroke-dasharray: 0.74,0.32; stroke-dashoffset: 0; stroke: #808080; stroke-width: 0.2"/>
     </g>
     <g id="line2d_12">
      <defs>
       <path id="m241e326659" d="M 0 0 
L 0 2 
" style="stroke: #000000; stroke-width: 0.4"/>
      </defs>
      <g>
       <use xlink:href="#m241e326659" x="148.645919" y="522.405727" style="stroke: #000000; stroke-width: 0.4"/>
      </g>
     </g>
    </g>
    <g id="xtick_7">
     <g id="line2d_13">
      <path d="M 165.254478 522.405727 
L 165.254478 71.847273 
" clip-path="url(#p476a75ab6e)" style="fill: none; stroke-dasharray: 0.74,0.32; stroke-dashoffset: 0; stroke: #808080; stroke-width: 0.2"/>
     </g>
     <g id="line2d_14">
      <g>
       <use xlink:href="#m241e326659" x="165.254478" y="522.405727" style="stroke: #000000; stroke-width: 0.4"/>
      </g>
     </g>
    </g>
    <g id="xtick_8">
     <g id="line2d_15">
      <path d="M 178.824659 522.405727 
L 178.824659 71.847273 
" clip-path="url(#p476a75ab6e)" style="fill: none; stroke-dasharray: 0.74,0.32; stroke-dashoffset: 0; stroke: #808080; stroke-width: 0.2"/>
     </g>
     <g id="line2d_16">
      <g>
       <use xlink:href="#m241e326659" x="178.824659" y="522.405727" style="stroke: #000000; stroke-width: 0.4"/>
      </g>
     </g>
    </g>
    <g id="xtick_9">
     <g id="line2d_17">
      <path d="M 190.298083 522.405727 
L 190.298083 71.847273 
" clip-path="url(#p476a75ab6e)" style="fill: none; stroke-dasharray: 0.74,0.32; stroke-dashoffset: 0; stroke: #808080; stroke-width: 0.2"/>
     </g>
     <g id="line2d_18">
      <g>
       <use xlink:href="#m241e326659" x="190.298083" y="522.405727" style="stroke: #000000; stroke-width: 0.4"/>
      </g>
     </g>
    </g>
    <g id="xtick_10">
     <g id="line2d_19">
      <path d="M 200.236815 522.405727 
L 200.236815 71.847273 
" clip-path="url(#p476a75ab6e)" style="fill: none; stroke-dasharray: 0.74,0.32; stroke-dashoffset: 0; stroke: #808080; stroke-width: 0.2"/>
     </g>
     <g id="line2d_20">
      <g>
       <use xlink:href="#m241e326659" x="200.236815" y="522.405727" style="stroke: #000000; stroke-width: 0.4"/>
      </g>
     </g>
    </g>
    <g id="xtick_11">
     <g id="line2d_21">
      <path d="M 209.003398 522.405727 
L 209.003398 71.847273 
" clip-path="url(#p476a75ab6e)" style="fill: none; stroke-dasharray: 0.74,0.32; stroke-dashoffset: 0; stroke: #808080; stroke-width: 0.2"/>
     </g>
     <g id="line2d_22">
      <g>
       <use xlink:href="#m241e326659" x="209.003398" y="522.405727" style="stroke: #000000; stroke-width: 0.4"/>
      </g>
     </g>
    </g>
    <g id="xtick_12">
     <g id="line2d_23">
      <path d="M 268.436269 522.405727 
L 268.436269 71.847273 
" clip-path="url(#p476a75ab6e)" style="fill: none; stroke-dasharray: 0.74,0.32; stroke-dashoffset: 0; stroke: #808080; stroke-width: 0.2"/>
     </g>
     <g id="line2d_24">
      <g>
       <use xlink:href="#m241e326659" x="268.436269" y="522.405727" style="stroke: #000000; stroke-width: 0.4"/>
      </g>
     </g>
    </g>
    <g id="xtick_13">
     <g id="line2d_25">
      <path d="M 298.615008 522.405727 
L 298.615008 71.847273 
" clip-path="url(#p476a75ab6e)" style="fill: none; stroke-dasharray: 0.74,0.32; stroke-dashoffset: 0; stroke: #808080; stroke-width: 0.2"/>
     </g>
     <g id="line2d_26">
      <g>
       <use xlink:href="#m241e326659" x="298.615008" y="522.405727" style="stroke: #000000; stroke-width: 0.4"/>
      </g>
     </g>
    </g>
    <g id="xtick_14">
     <g id="line2d_27">
      <path d="M 320.027165 522.405727 
L 320.027165 71.847273 
" clip-path="url(#p476a75ab6e)" style="fill: none; stroke-dasharray: 0.74,0.32; stroke-dashoffset: 0; stroke: #808080; stroke-width: 0.2"/>
     </g>
     <g id="line2d_28">
      <g>
       <use xlink:href="#m241e326659" x="320.027165" y="522.405727" style="stroke: #000000; stroke-width: 0.4"/>
      </g>
     </g>
    </g>
    <g id="xtick_15">
     <g id="line2d_29">
      <path d="M 336.635723 522.405727 
L 336.635723 71.847273 
" clip-path="url(#p476a75ab6e)" style="fill: none; stroke-dasharray: 0.74,0.32; stroke-dashoffset: 0; stroke: #808080; stroke-width: 0.2"/>
     </g>
     <g id="line2d_30">
      <g>
       <use xlink:href="#m241e326659" x="336.635723" y="522.405727" style="stroke: #000000; stroke-width: 0.4"/>
      </g>
     </g>
    </g>
    <g id="xtick_16">
     <g id="line2d_31">
      <path d="M 350.205904 522.405727 
L 350.205904 71.847273 
" clip-path="url(#p476a75ab6e)" style="fill: none; stroke-dasharray: 0.74,0.32; stroke-dashoffset: 0; stroke: #808080; stroke-width: 0.2"/>
     </g>
     <g id="line2d_32">
      <g>
       <use xlink:href="#m241e326659" x="350.205904" y="522.405727" style="stroke: #000000; stroke-width: 0.4"/>
      </g>
     </g>
    </g>
    <g id="xtick_17">
     <g id="line2d_33">
      <path d="M 361.679328 522.405727 
L 361.679328 71.847273 
" clip-path="url(#p476a75ab6e)" style="fill: none; stroke-dasharray: 0.74,0.32; stroke-dashoffset: 0; stroke: #808080; stroke-width: 0.2"/>
     </g>
     <g id="line2d_34">
      <g>
       <use xlink:href="#m241e326659" x="361.679328" y="522.405727" style="stroke: #000000; stroke-width: 0.4"/>
      </g>
     </g>
    </g>
    <g id="xtick_18">
     <g id="line2d_35">
      <path d="M 371.61806 522.405727 
L 371.61806 71.847273 
" clip-path="url(#p476a75ab6e)" style="fill: none; stroke-dasharray: 0.74,0.32; stroke-dashoffset: 0; stroke: #808080; stroke-width: 0.2"/>
     </g>
     <g id="line2d_36">
      <g>
       <use xlink:href="#m241e326659" x="371.61806" y="522.405727" style="stroke: #000000; stroke-width: 0.4"/>
      </g>
     </g>
    </g>
    <g id="xtick_19">
     <g id="line2d_37">
      <path d="M 380.384643 522.405727 
L 380.384643 71.847273 
" clip-path="url(#p476a75ab6e)" style="fill: none; stroke-dasharray: 0.74,0.32; stroke-dashoffset: 0; stroke: #808080; stroke-width: 0.2"/>
     </g>
     <g id="line2d_38">
      <g>
       <use xlink:href="#m241e326659" x="380.384643" y="522.405727" style="stroke: #000000; stroke-width: 0.4"/>
      </g>
     </g>
    </g>
    <g id="xtick_20">
     <g id="line2d_39">
      <path d="M 439.817514 522.405727 
L 439.817514 71.847273 
" clip-path="url(#p476a75ab6e)" style="fill: none; stroke-dasharray: 0.74,0.32; stroke-dashoffset: 0; stroke: #808080; stroke-width: 0.2"/>
     </g>
     <g id="line2d_40">
      <g>
       <use xlink:href="#m241e326659" x="439.817514" y="522.405727" style="stroke: #000000; stroke-width: 0.4"/>
      </g>
     </g>
    </g>
    <g id="xtick_21">
     <g id="line2d_41">
      <path d="M 469.996253 522.405727 
L 469.996253 71.847273 
" clip-path="url(#p476a75ab6e)" style="fill: none; stroke-dasharray: 0.74,0.32; stroke-dashoffset: 0; stroke: #808080; stroke-width: 0.2"/>
     </g>
     <g id="line2d_42">
      <g>
       <use xlink:href="#m241e326659" x="469.996253" y="522.405727" style="stroke: #000000; stroke-width: 0.4"/>
      </g>
     </g>
    </g>
    <g id="xtick_22">
     <g id="line2d_43">
      <path d="M 491.40841 522.405727 
L 491.40841 71.847273 
" clip-path="url(#p476a75ab6e)" style="fill: none; stroke-dasharray: 0.74,0.32; stroke-dashoffset: 0; stroke: #808080; stroke-width: 0.2"/>
     </g>
     <g id="line2d_44">
      <g>
       <use xlink:href="#m241e326659" x="491.40841" y="522.405727" style="stroke: #000000; stroke-width: 0.4"/>
      </g>
     </g>
    </g>
    <g id="xtick_23">
     <g id="line2d_45">
      <path d="M 508.016968 522.405727 
L 508.016968 71.847273 
" clip-path="url(#p476a75ab6e)" style="fill: none; stroke-dasharray: 0.74,0.32; stroke-dashoffset: 0; stroke: #808080; stroke-width: 0.2"/>
     </g>
     <g id="line2d_46">
      <g>
       <use xlink:href="#m241e326659" x="508.016968" y="522.405727" style="stroke: #000000; stroke-width: 0.4"/>
      </g>
     </g>
    </g>
    <g id="xtick_24">
     <g id="line2d_47">
      <path d="M 521.587149 522.405727 
L 521.587149 71.847273 
" clip-path="url(#p476a75ab6e)" style="fill: none; stroke-dasharray: 0.74,0.32; stroke-dashoffset: 0; stroke: #808080; stroke-width: 0.2"/>
     </g>
     <g id="line2d_48">
      <g>
       <use xlink:href="#m241e326659" x="521.587149" y="522.405727" style="stroke: #000000; stroke-width: 0.4"/>
      </g>
     </g>
    </g>
    <g id="xtick_25">
     <g id="line2d_49">
      <path d="M 533.060573 522.405727 
L 533.060573 71.847273 
" clip-path="url(#p476a75ab6e)" style="fill: none; stroke-dasharray: 0.74,0.32; stroke-dashoffset: 0; stroke: #808080; stroke-width: 0.2"/>
     </g>
     <g id="line2d_50">
      <g>
       <use xlink:href="#m241e326659" x="533.060573" y="522.405727" style="stroke: #000000; stroke-width: 0.4"/>
      </g>
     </g>
    </g>
    <g id="xtick_26">
     <g id="line2d_51">
      <path d="M 542.999305 522.405727 
L 542.999305 71.847273 
" clip-path="url(#p476a75ab6e)" style="fill: none; stroke-dasharray: 0.74,0.32; stroke-dashoffset: 0; stroke: #808080; stroke-width: 0.2"/>
     </g>
     <g id="line2d_52">
      <g>
       <use xlink:href="#m241e326659" x="542.999305" y="522.405727" style="stroke: #000000; stroke-width: 0.4"/>
      </g>
     </g>
    </g>
    <g id="xtick_27">
     <g id="line2d_53">
      <path d="M 551.765888 522.405727 
L 551.765888 71.847273 
" clip-path="url(#p476a75ab6e)" style="fill: none; stroke-dasharray: 0.74,0.32; stroke-dashoffset: 0; stroke: #808080; stroke-width: 0.2"/>
     </g>
     <g id="line2d_54">
      <g>
       <use xlink:href="#m241e326659" x="551.765888" y="522.405727" style="stroke: #000000; stroke-width: 0.4"/>
      </g>
     </g>
    </g>
    <g id="xtick_28">
     <g id="line2d_55">
      <path d="M 611.198759 522.405727 
L 611.198759 71.847273 
" clip-path="url(#p476a75ab6e)" style="fill: none; stroke-dasharray: 0.74,0.32; stroke-dashoffset: 0; stroke: #808080; stroke-width: 0.2"/>
     </g>
     <g id="line2d_56">
      <g>
       <use xlink:href="#m241e326659" x="611.198759" y="522.405727" style="stroke: #000000; stroke-width: 0.4"/>
      </g>
     </g>
    </g>
    <g id="xtick_29">
     <g id="line2d_57">
      <path d="M 641.377499 522.405727 
L 641.377499 71.847273 
" clip-path="url(#p476a75ab6e)" style="fill: none; stroke-dasharray: 0.74,0.32; stroke-dashoffset: 0; stroke: #808080; stroke-width: 0.2"/>
     </g>
     <g id="line2d_58">
      <g>
       <use xlink:href="#m241e326659" x="641.377499" y="522.405727" style="stroke: #000000; stroke-width: 0.4"/>
      </g>
     </g>
    </g>
    <g id="xtick_30">
     <g id="line2d_59">
      <path d="M 662.789655 522.405727 
L 662.789655 71.847273 
" clip-path="url(#p476a75ab6e)" style="fill: none; stroke-dasharray: 0.74,0.32; stroke-dashoffset: 0; stroke: #808080; stroke-width: 0.2"/>
     </g>
     <g id="line2d_60">
      <g>
       <use xlink:href="#m241e326659" x="662.789655" y="522.405727" style="stroke: #000000; stroke-width: 0.4"/>
      </g>
     </g>
    </g>
    <g id="xtick_31">
     <g id="line2d_61">
      <path d="M 679.398214 522.405727 
L 679.398214 71.847273 
" clip-path="url(#p476a75ab6e)" style="fill: none; stroke-dasharray: 0.74,0.32; stroke-dashoffset: 0; stroke: #808080; stroke-width: 0.2"/>
     </g>
     <g id="line2d_62">
      <g>
       <use xlink:href="#m241e326659" x="679.398214" y="522.405727" style="stroke: #000000; stroke-width: 0.4"/>
      </g>
     </g>
    </g>
    <g id="xtick_32">
     <g id="line2d_63">
      <path d="M 692.968394 522.405727 
L 692.968394 71.847273 
" clip-path="url(#p476a75ab6e)" style="fill: none; stroke-dasharray: 0.74,0.32; stroke-dashoffset: 0; stroke: #808080; stroke-width: 0.2"/>
     </g>
     <g id="line2d_64">
      <g>
       <use xlink:href="#m241e326659" x="692.968394" y="522.405727" style="stroke: #000000; stroke-width: 0.4"/>
      </g>
     </g>
    </g>
    <g id="xtick_33">
     <g id="line2d_65">
      <path d="M 704.441818 522.405727 
L 704.441818 71.847273 
" clip-path="url(#p476a75ab6e)" style="fill: none; stroke-dasharray: 0.74,0.32; stroke-dashoffset: 0; stroke: #808080; stroke-width: 0.2"/>
     </g>
     <g id="line2d_66">
      <g>
       <use xlink:href="#m241e326659" x="704.441818" y="522.405727" style="stroke: #000000; stroke-width: 0.4"/>
      </g>
     </g>
    </g>
    <g id="xtick_34">
     <g id="line2d_67">
      <path d="M 714.38055 522.405727 
L 714.38055 71.847273 
" clip-path="url(#p476a75ab6e)" style="fill: none; stroke-dasharray: 0.74,0.32; stroke-dashoffset: 0; stroke: #808080; stroke-width: 0.2"/>
     </g>
     <g id="line2d_68">
      <g>
       <use xlink:href="#m241e326659" x="714.38055" y="522.405727" style="stroke: #000000; stroke-width: 0.4"/>
      </g>
     </g>
    </g>
    <g id="xtick_35">
     <g id="line2d_69">
      <path d="M 723.147133 522.405727 
L 723.147133 71.847273 
" clip-path="url(#p476a75ab6e)" style="fill: none; stroke-dasharray: 0.74,0.32; stroke-dashoffset: 0; stroke: #808080; stroke-width: 0.2"/>
     </g>
     <g id="line2d_70">
      <g>
       <use xlink:href="#m241e326659" x="723.147133" y="522.405727" style="stroke: #000000; stroke-width: 0.4"/>
      </g>
     </g>
    </g>
    <g id="xtick_36">
     <g id="line2d_71">
      <path d="M 782.580005 522.405727 
L 782.580005 71.847273 
" clip-path="url(#p476a75ab6e)" style="fill: none; stroke-dasharray: 0.74,0.32; stroke-dashoffset: 0; stroke: #808080; stroke-width: 0.2"/>
     </g>
     <g id="line2d_72">
      <g>
       <use xlink:href="#m241e326659" x="782.580005" y="522.405727" style="stroke: #000000; stroke-width: 0.4"/>
      </g>
     </g>
    </g>
    <g id="xtick_37">
     <g id="line2d_73">
      <path d="M 812.758744 522.405727 
L 812.758744 71.847273 
" clip-path="url(#p476a75ab6e)" style="fill: none; stroke-dasharray: 0.74,0.32; stroke-dashoffset: 0; stroke: #808080; stroke-width: 0.2"/>
     </g>
     <g id="line2d_74">
      <g>
       <use xlink:href="#m241e326659" x="812.758744" y="522.405727" style="stroke: #000000; stroke-width: 0.4"/>
      </g>
     </g>
    </g>
    <g id="xtick_38">
     <g id="line2d_75">
      <path d="M 834.1709 522.405727 
L 834.1709 71.847273 
" clip-path="url(#p476a75ab6e)" style="fill: none; stroke-dasharray: 0.74,0.32; stroke-dashoffset: 0; stroke: #808080; stroke-width: 0.2"/>
     </g>
     <g id="line2d_76">
      <g>
       <use xlink:href="#m241e326659" x="834.1709" y="522.405727" style="stroke: #000000; stroke-width: 0.4"/>
      </g>
     </g>
    </g>
    <g id="xtick_39">
     <g id="line2d_77">
      <path d="M 850.779459 522.405727 
L 850.779459 71.847273 
" clip-path="url(#p476a75ab6e)" style="fill: none; stroke-dasharray: 0.74,0.32; stroke-dashoffset: 0; stroke: #808080; stroke-width: 0.2"/>
     </g>
     <g id="line2d_78">
      <g>
       <use xlink:href="#m241e326659" x="850.779459" y="522.405727" style="stroke: #000000; stroke-width: 0.4"/>
      </g>
     </g>
    </g>
    <g id="xtick_40">
     <g id="line2d_79">
      <path d="M 864.349639 522.405727 
L 864.349639 71.847273 
" clip-path="url(#p476a75ab6e)" style="fill: none; stroke-dasharray: 0.74,0.32; stroke-dashoffset: 0; stroke: #808080; stroke-width: 0.2"/>
     </g>
     <g id="line2d_80">
      <g>
       <use xlink:href="#m241e326659" x="864.349639" y="522.405727" style="stroke: #000000; stroke-width: 0.4"/>
      </g>
     </g>
    </g>
    <g id="xtick_41">
     <g id="line2d_81">
      <path d="M 875.823064 522.405727 
L 875.823064 71.847273 
" clip-path="url(#p476a75ab6e)" style="fill: none; stroke-dasharray: 0.74,0.32; stroke-dashoffset: 0; stroke: #808080; stroke-width: 0.2"/>
     </g>
     <g id="line2d_82">
      <g>
       <use xlink:href="#m241e326659" x="875.823064" y="522.405727" style="stroke: #000000; stroke-width: 0.4"/>
      </g>
     </g>
    </g>
    <g id="xtick_42">
     <g id="line2d_83">
      <path d="M 885.761796 522.405727 
L 885.761796 71.847273 
" clip-path="url(#p476a75ab6e)" style="fill: none; stroke-dasharray: 0.74,0.32; stroke-dashoffset: 0; stroke: #808080; stroke-width: 0.2"/>
     </g>
     <g id="line2d_84">
      <g>
       <use xlink:href="#m241e326659" x="885.761796" y="522.405727" style="stroke: #000000; stroke-width: 0.4"/>
      </g>
     </g>
    </g>
    <g id="xtick_43">
     <g id="line2d_85">
      <path d="M 894.528379 522.405727 
L 894.528379 71.847273 
" clip-path="url(#p476a75ab6e)" style="fill: none; stroke-dasharray: 0.74,0.32; stroke-dashoffset: 0; stroke: #808080; stroke-width: 0.2"/>
     </g>
     <g id="line2d_86">
      <g>
       <use xlink:href="#m241e326659" x="894.528379" y="522.405727" style="stroke: #000000; stroke-width: 0.4"/>
      </g>
     </g>
    </g>
    <g id="text_6">
     <!-- Flux (neutrons.cm⁻².s⁻¹) -->
     <g transform="translate(425.398813 562.316352) scale(0.2 -0.2)">
      <defs>
       <path id="DejaVuSans-46" d="M 628 4666 
L 3309 4666 
L 3309 4134 
L 1259 4134 
L 1259 2759 
L 3109 2759 
L 3109 2228 
L 1259 2228 
L 1259 0 
L 628 0 
L 628 4666 
z
" transform="scale(0.015625)"/>
       <path id="DejaVuSans-6c" d="M 603 4863 
L 1178 4863 
L 1178 0 
L 603 0 
L 603 4863 
z
" transform="scale(0.015625)"/>
       <path id="DejaVuSans-75" d="M 544 1381 
L 544 3500 
L 1119 3500 
L 1119 1403 
Q 1119 906 1312 657 
Q 1506 409 1894 409 
Q 2359 409 2629 706 
Q 2900 1003 2900 1516 
L 2900 3500 
L 3475 3500 
L 3475 0 
L 2900 0 
L 2900 538 
Q 2691 219 2414 64 
Q 2138 -91 1772 -91 
Q 1169 -91 856 284 
Q 544 659 544 1381 
z
M 1991 3584 
L 1991 3584 
z
" transform="scale(0.015625)"/>
       <path id="DejaVuSans-78" d="M 3513 3500 
L 2247 1797 
L 3578 0 
L 2900 0 
L 1881 1375 
L 863 0 
L 184 0 
L 1544 1831 
L 300 3500 
L 978 3500 
L 1906 2253 
L 2834 3500 
L 3513 3500 
z
" transform="scale(0.015625)"/>
       <path id="DejaVuSans-20" transform="scale(0.015625)"/>
       <path id="DejaVuSans-28" d="M 1984 4856 
Q 1566 4138 1362 3434 
Q 1159 2731 1159 2009 
Q 1159 1288 1364 580 
Q 1569 -128 1984 -844 
L 1484 -844 
Q 1016 -109 783 600 
Q 550 1309 550 2009 
Q 550 2706 781 3412 
Q 1013 4119 1484 4856 
L 1984 4856 
z
" transform="scale(0.015625)"/>
       <path id="DejaVuSans-6e" d="M 3513 2113 
L 3513 0 
L 2938 0 
L 2938 2094 
Q 2938 2591 2744 2837 
Q 2550 3084 2163 3084 
Q 1697 3084 1428 2787 
Q 1159 2491 1159 1978 
L 1159 0 
L 581 0 
L 581 3500 
L 1159 3500 
L 1159 2956 
Q 1366 3272 1645 3428 
Q 1925 3584 2291 3584 
Q 2894 3584 3203 3211 
Q 3513 2838 3513 2113 
z
" transform="scale(0.015625)"/>
       <path id="DejaVuSans-65" d="M 3597 1894 
L 3597 1613 
L 953 1613 
Q 991 1019 1311 708 
Q 1631 397 2203 397 
Q 2534 397 2845 478 
Q 3156 559 3463 722 
L 3463 178 
Q 3153 47 2828 -22 
Q 2503 -91 2169 -91 
Q 1331 -91 842 396 
Q 353 884 353 1716 
Q 353 2575 817 3079 
Q 1281 3584 2069 3584 
Q 2775 3584 3186 3129 
Q 3597 2675 3597 1894 
z
M 3022 2063 
Q 3016 2534 2758 2815 
Q 2500 3097 2075 3097 
Q 1594 3097 1305 2825 
Q 1016 2553 972 2059 
L 3022 2063 
z
" transform="scale(0.015625)"/>
       <path id="DejaVuSans-74" d="M 1172 4494 
L 1172 3500 
L 2356 3500 
L 2356 3053 
L 1172 3053 
L 1172 1153 
Q 1172 725 1289 603 
Q 1406 481 1766 481 
L 2356 481 
L 2356 0 
L 1766 0 
Q 1100 0 847 248 
Q 594 497 594 1153 
L 594 3053 
L 172 3053 
L 172 3500 
L 594 3500 
L 594 4494 
L 1172 4494 
z
" transform="scale(0.015625)"/>
       <path id="DejaVuSans-72" d="M 2631 2963 
Q 2534 3019 2420 3045 
Q 2306 3072 2169 3072 
Q 1681 3072 1420 2755 
Q 1159 2438 1159 1844 
L 1159 0 
L 581 0 
L 581 3500 
L 1159 3500 
L 1159 2956 
Q 1341 3275 1631 3429 
Q 1922 3584 2338 3584 
Q 2397 3584 2469 3576 
Q 2541 3569 2628 3553 
L 2631 2963 
z
" transform="scale(0.015625)"/>
       <path id="DejaVuSans-6f" d="M 1959 3097 
Q 1497 3097 1228 2736 
Q 959 2375 959 1747 
Q 959 1119 1226 758 
Q 1494 397 1959 397 
Q 2419 397 2687 759 
Q 2956 1122 2956 1747 
Q 2956 2369 2687 2733 
Q 2419 3097 1959 3097 
z
M 1959 3584 
Q 2709 3584 3137 3096 
Q 3566 2609 3566 1747 
Q 3566 888 3137 398 
Q 2709 -91 1959 -91 
Q 1206 -91 779 398 
Q 353 888 353 1747 
Q 353 2609 779 3096 
Q 1206 3584 1959 3584 
z
" transform="scale(0.015625)"/>
       <path id="DejaVuSans-73" d="M 2834 3397 
L 2834 2853 
Q 2591 2978 2328 3040 
Q 2066 3103 1784 3103 
Q 1356 3103 1142 2972 
Q 928 2841 928 2578 
Q 928 2378 1081 2264 
Q 1234 2150 1697 2047 
L 1894 2003 
Q 2506 1872 2764 1633 
Q 3022 1394 3022 966 
Q 3022 478 2636 193 
Q 2250 -91 1575 -91 
Q 1294 -91 989 -36 
Q 684 19 347 128 
L 347 722 
Q 666 556 975 473 
Q 1284 391 1588 391 
Q 1994 391 2212 530 
Q 2431 669 2431 922 
Q 2431 1156 2273 1281 
Q 2116 1406 1581 1522 
L 1381 1569 
Q 847 1681 609 1914 
Q 372 2147 372 2553 
Q 372 3047 722 3315 
Q 1072 3584 1716 3584 
Q 2034 3584 2315 3537 
Q 2597 3491 2834 3397 
z
" transform="scale(0.015625)"/>
       <path id="DejaVuSans-2e" d="M 684 794 
L 1344 794 
L 1344 0 
L 684 0 
L 684 794 
z
" transform="scale(0.015625)"/>
       <path id="DejaVuSans-63" d="M 3122 3366 
L 3122 2828 
Q 2878 2963 2633 3030 
Q 2388 3097 2138 3097 
Q 1578 3097 1268 2742 
Q 959 2388 959 1747 
Q 959 1106 1268 751 
Q 1578 397 2138 397 
Q 2388 397 2633 464 
Q 2878 531 3122 666 
L 3122 134 
Q 2881 22 2623 -34 
Q 2366 -91 2075 -91 
Q 1284 -91 818 406 
Q 353 903 353 1747 
Q 353 2603 823 3093 
Q 1294 3584 2113 3584 
Q 2378 3584 2631 3529 
Q 2884 3475 3122 3366 
z
" transform="scale(0.015625)"/>
       <path id="DejaVuSans-6d" d="M 3328 2828 
Q 3544 3216 3844 3400 
Q 4144 3584 4550 3584 
Q 5097 3584 5394 3201 
Q 5691 2819 5691 2113 
L 5691 0 
L 5113 0 
L 5113 2094 
Q 5113 2597 4934 2840 
Q 4756 3084 4391 3084 
Q 3944 3084 3684 2787 
Q 3425 2491 3425 1978 
L 3425 0 
L 2847 0 
L 2847 2094 
Q 2847 2600 2669 2842 
Q 2491 3084 2119 3084 
Q 1678 3084 1418 2786 
Q 1159 2488 1159 1978 
L 1159 0 
L 581 0 
L 581 3500 
L 1159 3500 
L 1159 2956 
Q 1356 3278 1631 3431 
Q 1906 3584 2284 3584 
Q 2666 3584 2933 3390 
Q 3200 3197 3328 2828 
z
" transform="scale(0.015625)"/>
       <path id="DejaVuSans-207b" d="M 428 3359 
L 2950 3359 
L 2950 3063 
L 428 3063 
L 428 3359 
z
" transform="scale(0.015625)"/>
       <path id="DejaVuSans-b2" d="M 838 2444 
L 2163 2444 
L 2163 2088 
L 294 2088 
L 294 2431 
Q 400 2528 597 2703 
Q 1672 3656 1672 3950 
Q 1672 4156 1509 4282 
Q 1347 4409 1081 4409 
Q 919 4409 728 4354 
Q 538 4300 313 4191 
L 313 4575 
Q 553 4663 761 4706 
Q 969 4750 1147 4750 
Q 1600 4750 1872 4544 
Q 2144 4338 2144 4000 
Q 2144 3566 1109 2678 
Q 934 2528 838 2444 
z
" transform="scale(0.015625)"/>
       <path id="DejaVuSans-b9" d="M 488 2431 
L 1125 2431 
L 1125 4341 
L 428 4213 
L 428 4575 
L 1147 4697 
L 1575 4697 
L 1575 2431 
L 2216 2431 
L 2216 2088 
L 488 2088 
L 488 2431 
z
" transform="scale(0.015625)"/>
       <path id="DejaVuSans-29" d="M 513 4856 
L 1013 4856 
Q 1481 4119 1714 3412 
Q 1947 2706 1947 2009 
Q 1947 1309 1714 600 
Q 1481 -109 1013 -844 
L 513 -844 
Q 928 -128 1133 580 
Q 1338 1288 1338 2009 
Q 1338 2731 1133 3434 
Q 928 4138 513 4856 
z
" transform="scale(0.015625)"/>
      </defs>
      <use xlink:href="#DejaVuSans-46"/>
      <use xlink:href="#DejaVuSans-6c" x="57.519531"/>
      <use xlink:href="#DejaVuSans-75" x="85.302734"/>
      <use xlink:href="#DejaVuSans-78" x="148.681641"/>
      <use xlink:href="#DejaVuSans-20" x="207.861328"/>
      <use xlink:href="#DejaVuSans-28" x="239.648438"/>
      <use xlink:href="#DejaVuSans-6e" x="278.662109"/>
      <use xlink:href="#DejaVuSans-65" x="342.041016"/>
      <use xlink:href="#DejaVuSans-75" x="403.564453"/>
      <use xlink:href="#DejaVuSans-74" x="466.943359"/>
      <use xlink:href="#DejaVuSans-72" x="506.152344"/>
      <use xlink:href="#DejaVuSans-6f" x="545.015625"/>
      <use xlink:href="#DejaVuSans-6e" x="606.197266"/>
      <use xlink:href="#DejaVuSans-73" x="669.576172"/>
      <use xlink:href="#DejaVuSans-2e" x="721.675781"/>
      <use xlink:href="#DejaVuSans-63" x="753.462891"/>
      <use xlink:href="#DejaVuSans-6d" x="808.443359"/>
      <use xlink:href="#DejaVuSans-207b" x="905.855469"/>
      <use xlink:href="#DejaVuSans-b2" x="958.638672"/>
      <use xlink:href="#DejaVuSans-2e" x="998.726562"/>
      <use xlink:href="#DejaVuSans-73" x="1030.513672"/>
      <use xlink:href="#DejaVuSans-207b" x="1082.613281"/>
      <use xlink:href="#DejaVuSans-b9" x="1135.396484"/>
      <use xlink:href="#DejaVuSans-29" x="1175.484375"/>
     </g>
    </g>
   </g>
   <g id="matplotlib.axis_2">
    <g id="ytick_1">
     <g id="line2d_87">
      <path d="M 145.878875 475.186106 
L 947.8125 475.186106 
" clip-path="url(#p476a75ab6e)" style="fill: none; stroke-dasharray: 0.74,0.32; stroke-dashoffset: 0; stroke: #808080; stroke-width: 0.2"/>
     </g>
     <g id="line2d_88">
      <defs>
       <path id="me96dd66d8b" d="M 0 0 
L -3.5 0 
" style="stroke: #000000; stroke-width: 0.8"/>
      </defs>
      <g>
       <use xlink:href="#me96dd66d8b" x="145.878875" y="475.186106" style="stroke: #000000; stroke-width: 0.8"/>
      </g>
     </g>
     <g id="text_7">
      <!-- −75 -->
      <g transform="translate(111.45325 479.745168) scale(0.12 -0.12)">
       <defs>
        <path id="DejaVuSans-2212" d="M 678 2272 
L 4684 2272 
L 4684 1741 
L 678 1741 
L 678 2272 
z
" transform="scale(0.015625)"/>
        <path id="DejaVuSans-37" d="M 525 4666 
L 3525 4666 
L 3525 4397 
L 1831 0 
L 1172 0 
L 2766 4134 
L 525 4134 
L 525 4666 
z
" transform="scale(0.015625)"/>
       </defs>
       <use xlink:href="#DejaVuSans-2212"/>
       <use xlink:href="#DejaVuSans-37" x="83.789062"/>
       <use xlink:href="#DejaVuSans-35" x="147.412109"/>
      </g>
     </g>
    </g>
    <g id="ytick_2">
     <g id="line2d_89">
      <path d="M 145.878875 415.764569 
L 947.8125 415.764569 
" clip-path="url(#p476a75ab6e)" style="fill: none; stroke-dasharray: 0.74,0.32; stroke-dashoffset: 0; stroke: #808080; stroke-width: 0.2"/>
     </g>
     <g id="line2d_90">
      <g>
       <use xlink:href="#me96dd66d8b" x="145.878875" y="415.764569" style="stroke: #000000; stroke-width: 0.8"/>
      </g>
     </g>
     <g id="text_8">
      <!-- −50 -->
      <g transform="translate(111.45325 420.323632) scale(0.12 -0.12)">
       <use xlink:href="#DejaVuSans-2212"/>
       <use xlink:href="#DejaVuSans-35" x="83.789062"/>
       <use xlink:href="#DejaVuSans-30" x="147.412109"/>
      </g>
     </g>
    </g>
    <g id="ytick_3">
     <g id="line2d_91">
      <path d="M 145.878875 356.343032 
L 947.8125 356.343032 
" clip-path="url(#p476a75ab6e)" style="fill: none; stroke-dasharray: 0.74,0.32; stroke-dashoffset: 0; stroke: #808080; stroke-width: 0.2"/>
     </g>
     <g id="line2d_92">
      <g>
       <use xlink:href="#me96dd66d8b" x="145.878875" y="356.343032" style="stroke: #000000; stroke-width: 0.8"/>
      </g>
     </g>
     <g id="text_9">
      <!-- −25 -->
      <g transform="translate(111.45325 360.902095) scale(0.12 -0.12)">
       <use xlink:href="#DejaVuSans-2212"/>
       <use xlink:href="#DejaVuSans-32" x="83.789062"/>
       <use xlink:href="#DejaVuSans-35" x="147.412109"/>
      </g>
     </g>
    </g>
    <g id="ytick_4">
     <g id="line2d_93">
      <path d="M 145.878875 296.921496 
L 947.8125 296.921496 
" clip-path="url(#p476a75ab6e)" style="fill: none; stroke-dasharray: 0.74,0.32; stroke-dashoffset: 0; stroke: #808080; stroke-width: 0.2"/>
     </g>
     <g id="line2d_94">
      <g>
       <use xlink:href="#me96dd66d8b" x="145.878875" y="296.921496" style="stroke: #000000; stroke-width: 0.8"/>
      </g>
     </g>
     <g id="text_10">
      <!-- 0 -->
      <g transform="translate(129.143875 301.480558) scale(0.12 -0.12)">
       <use xlink:href="#DejaVuSans-30"/>
      </g>
     </g>
    </g>
    <g id="ytick_5">
     <g id="line2d_95">
      <path d="M 145.878875 237.499959 
L 947.8125 237.499959 
" clip-path="url(#p476a75ab6e)" style="fill: none; stroke-dasharray: 0.74,0.32; stroke-dashoffset: 0; stroke: #808080; stroke-width: 0.2"/>
     </g>
     <g id="line2d_96">
      <g>
       <use xlink:href="#me96dd66d8b" x="145.878875" y="237.499959" style="stroke: #000000; stroke-width: 0.8"/>
      </g>
     </g>
     <g id="text_11">
      <!-- 25 -->
      <g transform="translate(121.508875 242.059021) scale(0.12 -0.12)">
       <use xlink:href="#DejaVuSans-32"/>
       <use xlink:href="#DejaVuSans-35" x="63.623047"/>
      </g>
     </g>
    </g>
    <g id="ytick_6">
     <g id="line2d_97">
      <path d="M 145.878875 178.078422 
L 947.8125 178.078422 
" clip-path="url(#p476a75ab6e)" style="fill: none; stroke-dasharray: 0.74,0.32; stroke-dashoffset: 0; stroke: #808080; stroke-width: 0.2"/>
     </g>
     <g id="line2d_98">
      <g>
       <use xlink:href="#me96dd66d8b" x="145.878875" y="178.078422" style="stroke: #000000; stroke-width: 0.8"/>
      </g>
     </g>
     <g id="text_12">
      <!-- 50 -->
      <g transform="translate(121.508875 182.637485) scale(0.12 -0.12)">
       <use xlink:href="#DejaVuSans-35"/>
       <use xlink:href="#DejaVuSans-30" x="63.623047"/>
      </g>
     </g>
    </g>
    <g id="ytick_7">
     <g id="line2d_99">
      <path d="M 145.878875 118.656885 
L 947.8125 118.656885 
" clip-path="url(#p476a75ab6e)" style="fill: none; stroke-dasharray: 0.74,0.32; stroke-dashoffset: 0; stroke: #808080; stroke-width: 0.2"/>
     </g>
     <g id="line2d_100">
      <g>
       <use xlink:href="#me96dd66d8b" x="145.878875" y="118.656885" style="stroke: #000000; stroke-width: 0.8"/>
      </g>
     </g>
     <g id="text_13">
      <!-- 75 -->
      <g transform="translate(121.508875 123.215948) scale(0.12 -0.12)">
       <use xlink:href="#DejaVuSans-37"/>
       <use xlink:href="#DejaVuSans-35" x="63.623047"/>
      </g>
     </g>
    </g>
    <g id="text_14">
     <!-- Axial position (cm) -->
     <g transform="translate(103.293875 390.578063) rotate(-90) scale(0.2 -0.2)">
      <defs>
       <path id="DejaVuSans-41" d="M 2188 4044 
L 1331 1722 
L 3047 1722 
L 2188 4044 
z
M 1831 4666 
L 2547 4666 
L 4325 0 
L 3669 0 
L 3244 1197 
L 1141 1197 
L 716 0 
L 50 0 
L 1831 4666 
z
" transform="scale(0.015625)"/>
       <path id="DejaVuSans-69" d="M 603 3500 
L 1178 3500 
L 1178 0 
L 603 0 
L 603 3500 
z
M 603 4863 
L 1178 4863 
L 1178 4134 
L 603 4134 
L 603 4863 
z
" transform="scale(0.015625)"/>
       <path id="DejaVuSans-61" d="M 2194 1759 
Q 1497 1759 1228 1600 
Q 959 1441 959 1056 
Q 959 750 1161 570 
Q 1363 391 1709 391 
Q 2188 391 2477 730 
Q 2766 1069 2766 1631 
L 2766 1759 
L 2194 1759 
z
M 3341 1997 
L 3341 0 
L 2766 0 
L 2766 531 
Q 2569 213 2275 61 
Q 1981 -91 1556 -91 
Q 1019 -91 701 211 
Q 384 513 384 1019 
Q 384 1609 779 1909 
Q 1175 2209 1959 2209 
L 2766 2209 
L 2766 2266 
Q 2766 2663 2505 2880 
Q 2244 3097 1772 3097 
Q 1472 3097 1187 3025 
Q 903 2953 641 2809 
L 641 3341 
Q 956 3463 1253 3523 
Q 1550 3584 1831 3584 
Q 2591 3584 2966 3190 
Q 3341 2797 3341 1997 
z
" transform="scale(0.015625)"/>
       <path id="DejaVuSans-70" d="M 1159 525 
L 1159 -1331 
L 581 -1331 
L 581 3500 
L 1159 3500 
L 1159 2969 
Q 1341 3281 1617 3432 
Q 1894 3584 2278 3584 
Q 2916 3584 3314 3078 
Q 3713 2572 3713 1747 
Q 3713 922 3314 415 
Q 2916 -91 2278 -91 
Q 1894 -91 1617 61 
Q 1341 213 1159 525 
z
M 3116 1747 
Q 3116 2381 2855 2742 
Q 2594 3103 2138 3103 
Q 1681 3103 1420 2742 
Q 1159 2381 1159 1747 
Q 1159 1113 1420 752 
Q 1681 391 2138 391 
Q 2594 391 2855 752 
Q 3116 1113 3116 1747 
z
" transform="scale(0.015625)"/>
      </defs>
      <use xlink:href="#DejaVuSans-41"/>
      <use xlink:href="#DejaVuSans-78" x="68.408203"/>
      <use xlink:href="#DejaVuSans-69" x="127.587891"/>
      <use xlink:href="#DejaVuSans-61" x="155.371094"/>
      <use xlink:href="#DejaVuSans-6c" x="216.650391"/>
      <use xlink:href="#DejaVuSans-20" x="244.433594"/>
      <use xlink:href="#DejaVuSans-70" x="276.220703"/>
      <use xlink:href="#DejaVuSans-6f" x="339.697266"/>
      <use xlink:href="#DejaVuSans-73" x="400.878906"/>
      <use xlink:href="#DejaVuSans-69" x="452.978516"/>
      <use xlink:href="#DejaVuSans-74" x="480.761719"/>
      <use xlink:href="#DejaVuSans-69" x="519.970703"/>
      <use xlink:href="#DejaVuSans-6f" x="547.753906"/>
      <use xlink:href="#DejaVuSans-6e" x="608.935547"/>
      <use xlink:href="#DejaVuSans-20" x="672.314453"/>
      <use xlink:href="#DejaVuSans-28" x="704.101562"/>
      <use xlink:href="#DejaVuSans-63" x="743.115234"/>
      <use xlink:href="#DejaVuSans-6d" x="798.095703"/>
      <use xlink:href="#DejaVuSans-29" x="895.507812"/>
     </g>
    </g>
   </g>
   <g id="line2d_101">
    <path d="M 791.163106 278.0611 
L 796.84983 277.241083 
L 799.803659 276.421066 
L 801.360284 275.601048 
L 801.82993 275.19104 
L 802.151136 274.371022 
L 801.972902 273.551005 
L 801.396002 272.730988 
L 799.85134 271.500962 
L 798.552261 270.680945 
L 796.254992 269.450919 
L 791.799223 267.400876 
L 788.916844 266.17085 
L 780.670253 262.890782 
L 757.528306 253.870592 
L 745.371206 248.950489 
L 740.387922 246.900446 
L 732.655622 243.620377 
L 727.123331 241.160326 
L 718.741866 237.470248 
L 710.704466 233.780171 
L 708.145332 232.550145 
L 693.086271 225.16999 
L 691.23666 224.349973 
L 680.088596 219.42987 
L 674.337667 216.969818 
L 648.462584 205.899586 
L 645.599366 204.66956 
L 617.069313 193.189319 
L 614.781236 192.369302 
L 609.075706 190.319259 
L 602.036927 187.859207 
L 599.560237 187.03919 
L 598.636937 186.629181 
L 590.230317 183.759121 
L 589.326659 183.349112 
L 585.780384 182.119087 
L 583.644153 181.299069 
L 581.287876 180.479052 
L 579.350612 179.659035 
L 570.812689 176.378966 
L 568.817049 175.558949 
L 568.023713 175.14894 
L 562.729982 173.098897 
L 560.077605 171.868872 
L 550.721641 168.588803 
L 548.118896 167.768786 
L 547.050509 167.358777 
L 534.612369 164.078708 
L 523.389319 161.618656 
L 505.640567 158.748596 
L 483.482726 156.288545 
L 473.947916 155.468527 
L 454.980711 154.238502 
L 438.465572 153.418484 
L 412.541141 152.598467 
L 390.777354 152.188459 
L 383.246961 151.77845 
L 385.042867 151.368441 
L 387.019778 150.548424 
L 388.94391 150.138416 
L 389.963502 149.728407 
L 390.45187 149.318398 
L 394.587862 147.678364 
L 394.872557 147.268355 
L 395.701484 146.858347 
L 396.133572 146.448338 
L 396.067949 145.628321 
L 396.234193 145.218312 
L 397.043253 144.398295 
L 397.059842 143.988287 
L 396.392879 142.758261 
L 396.578985 142.348252 
L 396.289769 141.938244 
L 396.295791 141.528235 
L 396.065463 141.118226 
L 396.14987 140.708218 
L 395.999744 140.298209 
L 395.357991 139.888201 
L 395.35804 139.478192 
L 394.582092 138.658175 
L 394.776867 138.248166 
L 394.399767 137.838157 
L 394.303819 137.428149 
L 393.842644 136.608132 
L 392.939449 135.788114 
L 392.752779 135.378106 
L 392.140566 134.558089 
L 391.542641 134.14808 
L 390.636294 133.738071 
L 390.540268 133.328063 
L 389.851674 132.098037 
L 389.088664 131.688028 
L 387.979092 130.047994 
L 386.621829 129.227977 
L 386.536014 128.817968 
L 385.6626 128.40796 
L 383.368555 126.357917 
L 383.155788 125.947908 
L 382.796806 125.537899 
L 382.590133 125.127891 
L 380.833256 123.897865 
L 380.538391 123.487856 
L 379.696915 123.077848 
L 379.570551 122.667839 
L 378.481769 121.847822 
L 377.605264 121.027805 
L 377.156744 120.617796 
L 376.342164 120.207788 
L 374.718448 118.567753 
L 373.741808 118.157745 
L 373.780628 117.747736 
L 370.551872 115.287684 
L 369.849057 114.467667 
L 369.568113 114.057658 
L 368.234548 113.237641 
L 367.932785 112.827633 
L 367.214458 112.417624 
L 366.565583 111.597607 
L 364.06577 109.957572 
L 362.734179 108.727547 
L 361.790436 107.907529 
L 358.119347 104.217452 
L 357.59527 103.807443 
L 356.747839 102.577418 
L 354.419967 100.117366 
L 354.280678 99.707357 
L 353.833398 99.297349 
L 351.995757 98.067323 
L 350.374411 96.427289 
L 349.382919 95.607271 
L 348.532848 94.787254 
L 347.132134 93.557228 
L 345.816167 92.327202 
L 345.816167 92.327202 
" clip-path="url(#p476a75ab6e)" style="fill: none; stroke: #c04e01; stroke-width: 1.5; stroke-linecap: square"/>
   </g>
   <g id="line2d_102">
    <path d="M 182.330403 501.925798 
L 183.330484 500.285763 
L 185.167821 499.055737 
L 185.597276 498.645729 
L 185.378228 498.23572 
L 185.979858 497.825711 
L 186.996367 497.415703 
L 187.410281 497.005694 
L 187.643764 496.595686 
L 187.51939 496.185677 
L 189.037697 495.775668 
L 190.259611 494.955651 
L 190.430871 494.545643 
L 191.201225 494.135634 
L 190.324701 493.725625 
L 190.687597 493.315617 
L 190.695668 492.905608 
L 190.500908 492.4956 
L 191.30837 491.675582 
L 191.319448 491.265574 
L 192.220622 490.855565 
L 192.454689 490.445557 
L 191.842551 490.035548 
L 192.46097 489.215531 
L 193.727557 488.805522 
L 194.602023 488.395514 
L 194.996519 487.985505 
L 194.758601 487.165488 
L 195.869857 486.755479 
L 197.652737 485.525453 
L 197.765412 485.115445 
L 196.906783 484.705436 
L 196.515306 484.295428 
L 197.961008 483.47541 
L 198.782174 483.065402 
L 200.544503 482.655393 
L 201.278737 482.245385 
L 199.789102 481.425367 
L 199.886172 481.015359 
L 201.547181 480.60535 
L 201.466571 480.195342 
L 202.448656 479.785333 
L 201.823501 479.375324 
L 203.151867 478.965316 
L 201.48298 478.555307 
L 217.122781 478.145299 
L 237.964481 477.73529 
L 278.828776 476.505264 
L 331.107627 474.86523 
L 362.577355 473.225195 
L 379.082001 471.995169 
L 394.159611 470.355135 
L 398.286861 469.945126 
L 400.317593 469.535118 
L 402.988405 469.125109 
L 404.866112 468.715101 
L 410.359198 467.895083 
L 412.244868 467.485075 
L 420.688548 466.255049 
L 447.815027 462.564972 
L 455.192118 461.334946 
L 460.826422 460.514929 
L 465.667801 459.694911 
L 471.432936 458.874894 
L 487.488381 456.004834 
L 520.338702 449.854705 
L 526.049473 448.624679 
L 530.064457 447.804662 
L 533.871871 446.984645 
L 538.952047 445.754619 
L 539.343541 445.34461 
L 547.008279 443.704576 
L 559.443477 440.424507 
L 565.91471 438.374464 
L 568.674241 437.554447 
L 570.9953 436.73443 
L 573.990373 435.504404 
L 579.979689 432.634344 
L 580.392683 432.224335 
L 581.876957 431.404318 
L 583.075463 430.5843 
L 585.261017 429.354275 
L 586.332376 428.534257 
L 587.666742 427.71424 
L 588.652316 426.894223 
L 592.740294 424.434171 
L 595.099774 423.204146 
L 596.41604 422.384128 
L 598.239791 421.564111 
L 601.590362 419.924077 
L 604.278827 418.694051 
L 606.747915 417.464025 
L 608.554065 416.644008 
L 610.217187 415.823991 
L 612.6467 414.593965 
L 613.399315 414.183956 
L 615.12722 413.363939 
L 618.078974 411.723905 
L 621.35 409.673862 
L 622.179496 408.853844 
L 623.117356 406.803801 
L 623.207482 406.393793 
L 622.906863 405.573776 
L 622.491433 405.163767 
L 622.651013 404.753758 
L 623.163293 404.34375 
L 623.917353 403.933741 
L 625.042095 403.523733 
L 626.522935 403.113724 
L 639.797047 400.243664 
L 644.264806 399.013638 
L 652.129392 396.553586 
L 662.0747 392.863509 
L 666.224256 391.223475 
L 669.086688 389.993449 
L 671.013608 389.173432 
L 679.942276 385.483354 
L 681.845175 384.663337 
L 691.890524 380.153242 
L 713.128528 369.903027 
L 715.756335 368.673001 
L 720.958774 366.21295 
L 746.700244 355.142717 
L 771.273585 345.302511 
L 786.095155 339.56239 
L 794.722795 335.872313 
L 797.939909 334.232279 
L 799.956257 333.002253 
L 801.037724 332.182236 
L 802.052296 330.95221 
L 802.214923 330.132193 
L 802.068734 329.722184 
L 801.768279 329.312175 
L 801.309715 328.902167 
L 800.56962 328.492158 
L 799.532344 328.08215 
L 798.170301 327.672141 
L 796.375366 327.262132 
L 793.816806 326.852124 
L 790.137488 326.442115 
L 784.938331 326.032107 
L 784.938331 326.032107 
" clip-path="url(#p476a75ab6e)" style="fill: none; stroke: #c04e01; stroke-width: 1.5; stroke-linecap: square"/>
   </g>
   <g id="line2d_103">
    <path d="M 897.807959 278.0611 
L 881.356467 277.241083 
L 868.450825 276.421066 
L 853.040313 275.19104 
L 840.793873 273.961014 
L 830.584128 272.730988 
L 819.137149 271.090954 
L 809.465978 269.450919 
L 798.953991 267.400876 
L 789.851573 265.350833 
L 780.090824 262.890782 
L 771.25858 260.43073 
L 760.564845 257.150661 
L 745.017229 251.820549 
L 728.714935 245.67042 
L 723.559399 243.620377 
L 719.50763 241.980343 
L 709.271728 237.880257 
L 693.179206 231.320119 
L 680.268263 225.990007 
L 661.891205 217.379827 
L 653.167651 213.279741 
L 650.570569 212.049715 
L 648.865431 211.229698 
L 638.772406 206.719603 
L 617.290395 197.699414 
L 614.999061 196.879396 
L 609.767986 194.829353 
L 606.277899 193.599328 
L 600.458462 191.549285 
L 586.838413 187.03919 
L 568.885432 182.119087 
L 562.133626 180.479052 
L 545.063593 176.788975 
L 512.862302 170.638846 
L 508.932752 169.818829 
L 504.777604 168.998811 
L 500.768093 168.178794 
L 494.622537 166.948768 
L 474.206534 162.848682 
L 459.163864 159.978622 
L 457.570047 159.568613 
L 452.646914 158.748596 
L 446.01729 157.51857 
L 440.580681 156.698553 
L 435.68611 155.878536 
L 422.862171 154.238502 
L 405.97115 152.598467 
L 398.512407 152.188459 
L 397.084965 151.77845 
L 398.225018 151.368441 
L 399.036074 150.958433 
L 401.147214 150.138416 
L 402.564413 149.318398 
L 403.376491 148.90839 
L 403.424681 148.498381 
L 404.375224 147.678364 
L 405.120747 146.858347 
L 405.350652 146.03833 
L 405.509681 145.628321 
L 406.098167 145.218312 
L 405.428233 144.398295 
L 405.786214 143.988287 
L 405.38639 143.168269 
L 405.699489 142.758261 
L 405.749302 142.348252 
L 405.275147 141.938244 
L 404.990914 141.528235 
L 405.246597 141.118226 
L 404.798858 140.708218 
L 404.65618 139.888201 
L 404.333997 139.478192 
L 404.381206 139.068183 
L 404.158929 138.658175 
L 402.590555 137.428149 
L 402.466496 137.01814 
L 401.201023 134.968097 
L 399.704685 133.738071 
L 399.443719 133.328063 
L 399.142475 132.508046 
L 398.270508 131.688028 
L 397.819415 130.868011 
L 397.745987 130.458003 
L 396.966023 130.047994 
L 396.792149 129.637985 
L 395.708701 128.817968 
L 395.60033 128.40796 
L 395.353684 127.997951 
L 394.882045 127.587942 
L 394.107245 127.177934 
L 393.318779 126.357917 
L 393.169162 125.947908 
L 392.478357 125.127891 
L 391.704668 124.717882 
L 391.572149 124.307874 
L 391.251904 123.897865 
L 390.286786 123.077848 
L 390.156964 122.667839 
L 389.80145 122.257831 
L 388.83385 121.437813 
L 386.60372 119.38777 
L 385.774246 118.977762 
L 385.323112 118.157745 
L 384.109096 117.337727 
L 382.812211 116.51771 
L 382.267415 116.107701 
L 382.086061 115.697693 
L 380.918021 114.877676 
L 380.848551 114.467667 
L 380.328503 114.057658 
L 378.847475 113.237641 
L 378.000973 112.827633 
L 377.819587 112.417624 
L 376.681394 111.597607 
L 375.822795 110.77759 
L 375.290391 110.367581 
L 375.153956 109.957572 
L 374.016515 108.727547 
L 373.05201 107.907529 
L 372.396038 107.087512 
L 370.51721 105.447478 
L 370.449484 105.037469 
L 369.36002 103.807443 
L 368.474439 102.577418 
L 366.952034 101.347392 
L 366.248713 100.527375 
L 363.832695 98.067323 
L 362.850877 96.837297 
L 362.006961 96.01728 
L 361.028643 94.377245 
L 360.220341 93.557228 
L 360.093683 93.14722 
L 359.801319 92.737211 
L 359.305831 92.327202 
L 359.305831 92.327202 
" clip-path="url(#p476a75ab6e)" style="fill: none; stroke: #0485d1; stroke-width: 1.5; stroke-linecap: square"/>
   </g>
   <g id="line2d_104">
    <path d="M 196.540229 501.925798 
L 196.356113 501.515789 
L 196.79942 500.285763 
L 197.285553 499.875755 
L 196.900662 499.465746 
L 197.034131 499.055737 
L 197.826258 498.645729 
L 198.36849 498.23572 
L 198.413872 497.825711 
L 198.994637 497.415703 
L 198.922285 497.005694 
L 200.16599 496.185677 
L 201.372797 495.775668 
L 202.186335 495.36566 
L 202.896247 494.545643 
L 205.383962 493.315617 
L 205.411826 492.905608 
L 205.708516 492.4956 
L 205.734001 492.085591 
L 206.316518 491.675582 
L 206.475315 491.265574 
L 207.255598 490.855565 
L 207.37358 490.445557 
L 207.992328 490.035548 
L 207.693478 489.625539 
L 208.380526 489.215531 
L 208.608915 488.805522 
L 208.458572 488.395514 
L 208.797377 487.985505 
L 209.468886 487.575496 
L 209.757798 487.165488 
L 211.284007 486.755479 
L 212.090141 486.345471 
L 213.201497 485.935462 
L 213.264301 485.115445 
L 215.509731 484.295428 
L 216.066959 483.885419 
L 217.940919 483.065402 
L 217.427001 482.655393 
L 216.480774 482.245385 
L 217.112099 481.835376 
L 217.08859 481.425367 
L 217.407227 480.60535 
L 217.095732 480.195342 
L 218.424493 479.785333 
L 217.661782 479.375324 
L 218.656603 478.965316 
L 221.212753 478.555307 
L 228.449702 478.145299 
L 237.652551 477.73529 
L 249.697551 476.915273 
L 252.608371 476.505264 
L 261.946695 475.685247 
L 266.06313 475.275238 
L 266.796564 474.86523 
L 270.774664 474.045212 
L 272.721897 473.635204 
L 281.695867 472.405178 
L 283.623915 471.995169 
L 289.5359 471.175152 
L 291.263262 470.765144 
L 296.093405 469.945126 
L 297.700788 469.535118 
L 302.464291 468.715101 
L 307.53526 467.895083 
L 310.191156 467.075066 
L 312.171255 466.665058 
L 317.79214 465.84504 
L 319.436518 465.435032 
L 327.159042 464.205006 
L 328.829547 463.794997 
L 334.029229 462.97498 
L 336.872018 462.154963 
L 340.046832 461.744954 
L 344.493362 460.924937 
L 350.397882 460.10492 
L 351.780181 459.694911 
L 355.920929 458.874894 
L 361.263035 458.054877 
L 363.080125 457.644868 
L 429.154739 447.394653 
L 441.231747 445.754619 
L 442.73071 445.34461 
L 447.28909 444.524593 
L 455.947596 443.294567 
L 472.478223 440.834516 
L 483.842236 439.194481 
L 502.940601 436.324421 
L 529.122674 432.224335 
L 536.434591 430.994309 
L 543.210342 429.764283 
L 551.924543 428.124249 
L 556.008509 427.304232 
L 567.283224 424.84418 
L 576.94597 422.384128 
L 595.077335 417.054017 
L 597.511682 416.233999 
L 601.286087 415.003974 
L 605.887064 413.363939 
L 609.484942 412.133913 
L 611.662354 411.313896 
L 628.515342 405.163767 
L 630.668059 403.933741 
L 632.018787 403.113724 
L 633.963812 401.883698 
L 636.860177 400.243664 
L 655.251794 390.813466 
L 661.194726 387.943406 
L 662.83809 387.123389 
L 666.982081 385.073345 
L 675.430127 380.973259 
L 679.926074 378.923216 
L 698.458032 371.133053 
L 710.799939 366.21295 
L 716.716336 363.752898 
L 738.76108 355.142717 
L 754.728707 349.402597 
L 764.788765 346.122528 
L 774.38015 343.252468 
L 781.98621 341.202425 
L 788.522947 339.56239 
L 797.507789 337.512347 
L 807.727909 335.462304 
L 817.187678 333.82227 
L 825.246016 332.592244 
L 834.568416 331.362218 
L 845.46709 330.132193 
L 858.854701 328.902167 
L 869.746715 328.08215 
L 882.960895 327.262132 
L 899.936625 326.442115 
L 911.360972 326.032107 
L 911.360972 326.032107 
" clip-path="url(#p476a75ab6e)" style="fill: none; stroke: #0485d1; stroke-width: 1.5; stroke-linecap: square"/>
   </g>
   <g id="line2d_105">
    <path d="M 236.596727 501.925798 
L 237.517317 501.515789 
L 237.897175 501.10578 
L 236.752286 500.695772 
L 237.359054 500.285763 
L 238.991454 499.875755 
L 239.218468 499.465746 
L 240.277322 499.055737 
L 239.363764 498.645729 
L 236.847057 498.23572 
L 236.322129 497.825711 
L 236.483743 497.005694 
L 237.604679 496.595686 
L 237.978363 496.185677 
L 238.767682 495.775668 
L 238.907661 495.36566 
L 239.898531 494.955651 
L 238.372021 494.545643 
L 237.477493 494.135634 
L 240.497804 493.725625 
L 243.525092 492.4956 
L 243.204431 492.085591 
L 244.555953 491.675582 
L 245.040672 491.265574 
L 243.623815 490.855565 
L 242.698466 490.445557 
L 241.312343 490.035548 
L 241.673597 489.625539 
L 242.455307 489.215531 
L 242.113871 488.805522 
L 241.377768 488.395514 
L 241.931143 487.985505 
L 243.66994 487.575496 
L 242.511551 487.165488 
L 242.337801 486.755479 
L 242.992383 486.345471 
L 242.842199 485.935462 
L 244.073797 485.525453 
L 244.125659 485.115445 
L 244.506563 484.705436 
L 244.701071 484.295428 
L 246.507598 483.885419 
L 245.982723 483.47541 
L 243.714725 483.065402 
L 242.64172 482.655393 
L 240.661784 482.245385 
L 241.140207 481.835376 
L 240.752389 481.425367 
L 239.576316 481.015359 
L 237.273324 480.60535 
L 234.523755 479.785333 
L 244.426241 478.145299 
L 278.375191 477.325281 
L 309.748961 476.095255 
L 315.967181 475.685247 
L 335.860126 475.275238 
L 357.558893 474.455221 
L 367.081482 474.045212 
L 371.336764 473.635204 
L 385.899981 472.815187 
L 398.524377 471.585161 
L 408.709766 470.765144 
L 408.909499 470.355135 
L 411.868136 469.945126 
L 417.050099 469.535118 
L 429.701438 469.125109 
L 427.742595 468.715101 
L 421.868937 468.305092 
L 426.967356 467.895083 
L 430.640272 467.485075 
L 433.084219 467.075066 
L 441.144359 466.255049 
L 443.302458 465.84504 
L 449.42119 465.025023 
L 451.062388 464.615015 
L 460.605339 463.384989 
L 463.824834 462.97498 
L 465.795162 462.564972 
L 474.439939 461.334946 
L 503.826164 456.414843 
L 505.500963 456.004834 
L 508.393351 455.594825 
L 510.372342 455.184817 
L 515.161902 454.364799 
L 516.890129 453.954791 
L 521.482758 453.134774 
L 528.150258 451.904748 
L 530.556437 451.494739 
L 537.538354 449.854705 
L 545.800017 448.21467 
L 547.384073 447.804662 
L 551.523689 446.984645 
L 552.917626 446.574636 
L 555.414643 446.164627 
L 556.577436 445.754619 
L 563.513014 444.114584 
L 566.856366 443.294567 
L 574.420719 441.244524 
L 575.596501 440.834516 
L 578.2414 440.014498 
L 578.93914 439.60449 
L 579.923973 439.194481 
L 581.760268 438.784473 
L 584.317345 437.964455 
L 585.494874 437.554447 
L 586.121635 437.144438 
L 588.516843 435.914412 
L 589.139629 435.504404 
L 589.500629 435.094395 
L 590.114504 434.684387 
L 590.452458 434.274378 
L 590.937554 433.044352 
L 590.028883 432.634344 
L 589.863384 432.224335 
L 587.347946 431.404318 
L 585.09624 430.994309 
L 581.472807 430.5843 
L 569.635123 429.764283 
L 562.273411 429.354275 
L 554.274776 427.71424 
L 551.886745 426.894223 
L 551.82772 426.484214 
L 550.202272 425.664197 
L 549.383179 424.84418 
L 549.473097 424.434171 
L 549.367981 424.024163 
L 549.669128 423.614154 
L 549.654419 423.204146 
L 549.893873 422.794137 
L 550.319343 422.384128 
L 550.244787 421.97412 
L 551.110823 421.154103 
L 552.107955 419.924077 
L 552.519338 419.514068 
L 553.193164 419.10406 
L 554.239792 418.284042 
L 555.12278 417.874034 
L 555.968612 417.054017 
L 556.959711 416.644008 
L 557.517765 416.233999 
L 560.226267 415.003974 
L 560.540417 414.593965 
L 561.014843 414.183956 
L 562.788723 413.363939 
L 563.781474 412.543922 
L 564.014747 412.133913 
L 565.442883 411.723905 
L 565.994542 411.313896 
L 566.31457 410.903888 
L 567.030951 410.493879 
L 568.118074 410.08387 
L 569.172538 409.263853 
L 570.03324 408.853844 
L 571.129302 408.033827 
L 572.11166 407.623819 
L 572.324019 407.21381 
L 573.024628 406.803801 
L 573.33122 406.393793 
L 573.126457 405.983784 
L 573.598915 405.573776 
L 573.801568 405.163767 
L 574.868651 404.753758 
L 575.003784 404.34375 
L 577.710767 403.113724 
L 580.646898 402.293707 
L 586.424775 400.653672 
L 591.631872 399.013638 
L 593.185182 398.603629 
L 596.721491 397.373604 
L 599.100964 396.553586 
L 599.759915 396.143578 
L 603.595314 394.913552 
L 603.979545 394.503543 
L 606.794684 393.683526 
L 609.947962 392.4535 
L 613.030076 391.223475 
L 614.452384 390.813466 
L 617.23133 389.58344 
L 618.721601 389.173432 
L 619.604929 388.763423 
L 621.778336 387.943406 
L 622.506473 387.533397 
L 623.531217 387.123389 
L 624.958021 386.71338 
L 627.121047 385.893363 
L 628.176858 385.483354 
L 629.56004 385.073345 
L 630.523712 384.663337 
L 640.253372 381.793277 
L 648.397239 380.153242 
L 652.214644 379.333225 
L 653.514519 378.513208 
L 653.494253 378.103199 
L 653.122864 377.693191 
L 651.827568 377.283182 
L 651.082185 376.873173 
L 650.75676 376.053156 
L 650.901617 375.233139 
L 651.259314 374.82313 
L 651.879827 374.413122 
L 652.231023 374.003113 
L 652.777121 373.593105 
L 655.674708 371.95307 
L 658.376297 370.313036 
L 659.964457 369.493019 
L 660.675982 369.08301 
L 662.636771 368.262993 
L 664.090339 367.442976 
L 664.674384 367.032967 
L 667.505076 365.802941 
L 668.130806 365.392933 
L 671.084412 364.162907 
L 681.527499 359.242803 
L 682.622983 358.832795 
L 684.228054 358.012778 
L 686.162076 357.19276 
L 686.935878 356.782752 
L 692.814092 354.3227 
L 693.656487 353.912692 
L 695.659074 353.092674 
L 696.325176 352.682666 
L 698.299272 351.862649 
L 700.260567 351.042631 
L 700.994568 350.632623 
L 702.256745 350.222614 
L 707.882327 347.762563 
L 718.495875 343.252468 
L 724.41815 340.792416 
L 739.850207 334.232279 
L 740.55912 333.82227 
L 747.034293 331.362218 
L 751.296661 330.132193 
L 759.010949 328.492158 
L 760.018355 328.08215 
L 760.33037 327.672141 
L 760.170525 327.262132 
L 759.552189 326.852124 
L 757.189553 326.032107 
L 755.825926 325.212089 
L 755.190634 323.982064 
L 755.121862 323.572055 
L 755.318424 323.162046 
L 755.328632 322.752038 
L 755.815298 321.522012 
L 756.444455 320.291986 
L 756.690947 319.881978 
L 757.68735 318.651952 
L 758.59491 317.011917 
L 759.788072 315.371883 
L 761.440549 312.911831 
L 762.11506 311.681805 
L 762.794126 310.45178 
L 763.038864 310.041771 
L 763.445602 308.811745 
L 763.565045 308.401737 
L 763.957077 307.581719 
L 764.350447 305.531676 
L 764.783414 303.481633 
L 764.803957 302.661616 
L 764.767044 301.43159 
L 764.603107 299.791556 
L 764.582788 299.381547 
L 764.232019 298.151522 
L 764.141741 297.741513 
L 763.879993 297.331504 
L 763.950279 296.921496 
L 763.731405 296.511487 
L 763.548466 295.69147 
L 763.183708 294.871453 
L 763.01922 294.461444 
L 762.312922 293.641427 
L 761.640593 292.001392 
L 761.322902 291.591384 
L 760.904055 290.771367 
L 759.938902 289.541341 
L 759.842847 289.131332 
L 758.863683 287.901306 
L 758.688696 287.491298 
L 758.253902 287.081289 
L 758.030318 286.671281 
L 757.393454 285.851263 
L 755.771757 282.981203 
L 755.694556 282.571195 
L 755.104815 281.341169 
L 755.222169 280.93116 
L 755.004396 280.521152 
L 755.977087 279.291126 
L 756.670209 278.881117 
L 758.801408 278.0611 
L 759.96967 277.651091 
L 760.435034 277.241083 
L 760.324068 276.831074 
L 759.773214 276.421066 
L 758.687537 276.011057 
L 754.802532 275.19104 
L 751.140497 274.371022 
L 746.764096 273.140997 
L 742.410865 271.500962 
L 727.055548 264.940825 
L 725.201777 264.120807 
L 723.963518 263.710799 
L 722.225445 262.890782 
L 720.023006 262.070764 
L 712.533986 258.790696 
L 710.504669 257.970678 
L 709.71253 257.56067 
L 707.515875 256.740653 
L 700.002515 253.460584 
L 698.918216 253.050575 
L 697.207355 252.230558 
L 691.274767 249.770506 
L 689.636972 248.950489 
L 686.697144 247.720463 
L 683.413624 246.080429 
L 681.506552 245.260412 
L 677.564915 243.620377 
L 676.876232 243.210369 
L 674.074389 241.980343 
L 673.351632 241.570334 
L 669.553794 239.9303 
L 667.886801 239.110283 
L 665.065968 237.880257 
L 661.163145 235.830214 
L 658.747733 234.600188 
L 655.252323 232.550145 
L 654.255403 232.140136 
L 651.788602 230.500102 
L 651.192176 230.090093 
L 650.845156 229.680085 
L 650.387121 228.860067 
L 650.468978 228.450059 
L 650.252192 228.04005 
L 650.614642 227.630042 
L 651.52702 227.220033 
L 652.722733 226.810024 
L 653.09983 226.400016 
L 653.215754 225.990007 
L 651.582846 225.16999 
L 647.465962 224.349973 
L 642.834072 223.529956 
L 634.958933 221.479913 
L 629.736451 219.839878 
L 628.212482 219.42987 
L 625.230933 218.199844 
L 623.398782 217.379827 
L 616.969822 214.919775 
L 615.02448 214.099758 
L 612.889145 213.279741 
L 610.957277 212.459723 
L 604.044914 209.589663 
L 602.395387 208.769646 
L 600.289167 207.949629 
L 598.446047 207.129611 
L 596.956216 206.719603 
L 590.178785 203.849543 
L 588.984767 203.439534 
L 587.638471 202.619517 
L 586.706237 202.209508 
L 585.310777 201.7995 
L 584.686564 201.389491 
L 581.347059 200.159465 
L 580.651188 199.749457 
L 579.486876 199.339448 
L 578.703032 198.929439 
L 577.138136 198.519431 
L 576.327695 198.109422 
L 575.817954 197.699414 
L 574.630528 197.289405 
L 573.878352 196.879396 
L 572.594359 196.469388 
L 571.776363 196.059379 
L 569.513855 195.239362 
L 566.42381 194.009336 
L 565.489658 193.599328 
L 559.503548 191.549285 
L 557.617422 190.729267 
L 556.336037 190.319259 
L 555.436638 189.90925 
L 554.075462 189.499242 
L 552.143562 188.679224 
L 551.279498 188.269216 
L 548.654963 187.449199 
L 547.870465 187.03919 
L 542.328252 184.989147 
L 541.611914 184.579138 
L 540.527368 184.16913 
L 539.775126 183.759121 
L 539.385713 183.349112 
L 536.54364 182.119087 
L 536.113498 181.709078 
L 533.787525 180.889061 
L 533.321622 180.479052 
L 532.290832 180.069044 
L 531.747023 179.659035 
L 531.869596 179.249026 
L 531.505172 178.429009 
L 531.887891 178.019001 
L 531.55516 177.608992 
L 531.953392 177.198983 
L 532.764536 176.788975 
L 533.896155 176.378966 
L 537.808083 175.558949 
L 538.203616 175.14894 
L 540.305706 174.738932 
L 545.145627 174.328923 
L 546.792316 173.918915 
L 545.634972 173.098897 
L 538.021383 170.638846 
L 537.189075 170.228837 
L 532.145046 168.588803 
L 527.988296 167.358777 
L 527.729969 166.948768 
L 524.25855 166.128751 
L 523.423399 165.718743 
L 521.761065 165.308734 
L 520.806558 164.898725 
L 518.686354 164.488717 
L 513.520689 162.848682 
L 505.978182 161.208648 
L 499.878832 159.978622 
L 496.082252 159.158605 
L 490.451038 158.338588 
L 482.82955 157.108562 
L 480.492185 156.698553 
L 468.802425 155.468527 
L 465.430446 155.058519 
L 460.768494 154.64851 
L 457.437279 154.238502 
L 447.986514 153.418484 
L 437.028893 152.598467 
L 431.861589 152.188459 
L 428.157582 151.77845 
L 419.944927 150.548424 
L 414.624348 149.728407 
L 413.162919 149.318398 
L 409.252529 148.498381 
L 409.127882 148.088373 
L 407.790697 147.678364 
L 406.251593 146.858347 
L 406.365136 146.448338 
L 404.060513 145.218312 
L 402.653415 144.808304 
L 401.948861 144.398295 
L 402.272713 143.988287 
L 401.4621 143.578278 
L 401.076249 143.168269 
L 401.36282 142.758261 
L 400.922575 142.348252 
L 400.047724 141.938244 
L 400.212606 141.528235 
L 399.781856 141.118226 
L 398.369356 140.708218 
L 398.573956 140.298209 
L 397.343548 139.478192 
L 397.290085 139.068183 
L 397.105032 138.658175 
L 396.229028 138.248166 
L 394.884045 137.838157 
L 394.436094 137.428149 
L 395.61233 136.608132 
L 393.8493 135.788114 
L 392.697571 135.378106 
L 393.073288 134.968097 
L 392.272535 134.558089 
L 392.004399 134.14808 
L 391.2713 133.738071 
L 391.107624 133.328063 
L 390.629194 132.918054 
L 390.346817 132.508046 
L 390.745524 132.098037 
L 389.972986 131.688028 
L 387.760608 131.27802 
L 387.304599 130.868011 
L 385.316348 130.047994 
L 384.782801 129.227977 
L 384.020959 128.817968 
L 384.425262 128.40796 
L 383.993524 127.997951 
L 383.776177 127.587942 
L 384.024426 127.177934 
L 382.984282 126.767925 
L 382.54926 126.357917 
L 381.746315 125.947908 
L 381.459097 125.537899 
L 380.801643 125.127891 
L 380.770388 124.717882 
L 379.879648 123.897865 
L 379.326206 123.487856 
L 377.465055 122.667839 
L 377.62723 122.257831 
L 376.094549 121.847822 
L 375.703718 121.437813 
L 374.53116 121.027805 
L 374.686154 120.617796 
L 374.463933 120.207788 
L 374.836267 119.797779 
L 374.762166 119.38777 
L 373.880226 118.977762 
L 373.664029 118.567753 
L 372.398082 118.157745 
L 371.053522 117.337727 
L 370.903248 116.927719 
L 368.626634 115.697693 
L 368.28345 115.287684 
L 368.175369 114.877676 
L 367.715706 114.467667 
L 367.605716 114.057658 
L 366.271883 113.64765 
L 365.19009 112.827633 
L 366.456635 112.417624 
L 382.872823 111.597607 
L 393.925422 110.77759 
L 401.065485 109.957572 
L 403.330396 109.547564 
L 406.06794 108.727547 
L 408.040798 107.907529 
L 408.580529 107.497521 
L 408.555 107.087512 
L 409.133679 106.267495 
L 409.397761 105.857486 
L 410.502598 105.037469 
L 410.54083 104.627461 
L 410.359017 103.807443 
L 410.05723 103.397435 
L 410.264748 102.987426 
L 410.087347 102.577418 
L 409.426586 101.7574 
L 409.236006 101.347392 
L 408.376888 100.527375 
L 408.602901 100.117366 
L 408.508503 99.297349 
L 407.771173 98.88734 
L 407.12767 98.067323 
L 406.934893 97.247306 
L 407.361336 96.427289 
L 407.084714 96.01728 
L 406.560905 95.607271 
L 406.38409 95.197263 
L 406.568158 94.787254 
L 405.735995 93.967237 
L 405.67233 93.14722 
L 405.113408 92.327202 
L 405.113408 92.327202 
" clip-path="url(#p476a75ab6e)" style="fill: none; stroke-dasharray: 5.55,2.4; stroke-dashoffset: 0; stroke: #e50000; stroke-width: 1.5"/>
   </g>
   <g id="line2d_106">
    <path d="M 251.682954 501.925798 
L 252.32917 501.515789 
L 252.754904 500.695772 
L 252.817835 500.285763 
L 251.753771 499.875755 
L 252.252714 499.465746 
L 253.158131 499.055737 
L 254.438262 498.645729 
L 254.332383 498.23572 
L 254.090895 497.825711 
L 254.608121 497.415703 
L 255.329162 497.005694 
L 255.797505 496.595686 
L 255.340462 496.185677 
L 255.421565 495.775668 
L 256.09582 495.36566 
L 256.085979 494.955651 
L 256.831844 494.545643 
L 258.09909 494.135634 
L 258.747326 493.725625 
L 259.102816 493.315617 
L 258.758755 492.905608 
L 259.821893 492.4956 
L 258.88957 492.085591 
L 258.943513 491.675582 
L 259.796981 491.265574 
L 259.463164 490.855565 
L 259.881173 490.445557 
L 259.716137 490.035548 
L 259.992043 489.625539 
L 260.727949 489.215531 
L 260.111467 488.805522 
L 261.463546 487.985505 
L 260.110322 487.165488 
L 260.736989 486.755479 
L 260.105648 486.345471 
L 260.091421 485.935462 
L 261.36689 485.525453 
L 260.961685 485.115445 
L 261.047135 484.705436 
L 260.310672 484.295428 
L 260.508796 483.885419 
L 259.251716 483.47541 
L 259.212184 483.065402 
L 260.280803 482.655393 
L 260.170091 482.245385 
L 257.976649 481.835376 
L 256.773147 481.425367 
L 257.445701 481.015359 
L 256.030577 480.60535 
L 246.417124 479.785333 
L 244.412941 479.375324 
L 238.342793 478.965316 
L 227.003244 478.555307 
L 259.200972 478.145299 
L 268.651884 477.73529 
L 270.715516 477.325281 
L 274.871224 476.915273 
L 277.307093 476.505264 
L 274.112431 475.685247 
L 291.786195 475.275238 
L 293.765684 474.86523 
L 298.589225 474.455221 
L 299.289106 474.045212 
L 303.993247 473.635204 
L 307.71057 472.815187 
L 311.693592 472.405178 
L 312.340085 471.995169 
L 315.917059 471.585161 
L 317.533257 471.175152 
L 317.80283 470.765144 
L 316.463541 470.355135 
L 314.308504 469.945126 
L 316.78758 469.535118 
L 327.169856 469.125109 
L 323.851567 468.715101 
L 332.829346 468.305092 
L 337.028006 467.895083 
L 339.356568 467.485075 
L 340.837857 467.075066 
L 345.894326 466.255049 
L 347.757417 465.84504 
L 358.908479 464.205006 
L 361.973988 463.384989 
L 367.437146 462.564972 
L 374.331286 461.334946 
L 381.044437 460.10492 
L 382.710141 459.694911 
L 385.880622 459.284903 
L 387.850205 458.874894 
L 388.883515 458.464886 
L 391.253777 458.054877 
L 394.568504 457.644868 
L 396.064571 457.23486 
L 407.649552 455.594825 
L 413.709612 454.774808 
L 415.739723 454.364799 
L 417.183813 453.954791 
L 424.87971 452.724765 
L 429.689162 451.904748 
L 435.018116 451.084731 
L 437.888172 450.674722 
L 441.907294 449.854705 
L 447.835536 449.034688 
L 449.670415 448.624679 
L 456.281264 447.804662 
L 462.04119 446.984645 
L 464.197774 446.574636 
L 477.141056 444.934602 
L 478.986265 444.524593 
L 535.759225 436.73443 
L 545.549997 435.504404 
L 551.401689 434.684387 
L 569.482697 432.224335 
L 573.835101 431.404318 
L 574.791638 430.994309 
L 574.091678 430.5843 
L 573.667351 430.174292 
L 566.311477 429.354275 
L 581.276358 427.304232 
L 589.183332 425.664197 
L 592.933947 424.84418 
L 596.106159 424.024163 
L 601.802133 422.384128 
L 610.852416 419.514068 
L 611.811724 419.10406 
L 614.281935 418.284042 
L 616.649875 417.464025 
L 617.548101 417.054017 
L 620.292754 416.233999 
L 621.579219 415.823991 
L 622.291143 415.413982 
L 623.764055 415.003974 
L 636.177594 410.08387 
L 638.316857 409.263853 
L 645.127455 406.393793 
L 646.280791 405.983784 
L 648.528508 404.753758 
L 668.198399 395.323561 
L 669.246675 394.913552 
L 670.752901 394.093535 
L 672.600383 393.273518 
L 675.170623 392.043492 
L 676.198777 391.633483 
L 676.762524 391.223475 
L 681.386172 389.173432 
L 682.415967 388.763423 
L 684.692673 387.533397 
L 689.865084 385.073345 
L 697.468659 380.973259 
L 697.94219 380.563251 
L 698.497281 379.333225 
L 698.929053 378.923216 
L 699.603161 378.513208 
L 702.165052 377.693191 
L 706.516962 376.463165 
L 710.409508 375.233139 
L 713.489228 374.003113 
L 720.406759 371.133053 
L 723.319344 369.903027 
L 725.221884 369.08301 
L 728.212598 367.852984 
L 741.733571 362.112864 
L 744.677557 360.882838 
L 746.613018 360.062821 
L 750.473938 358.422786 
L 755.634169 356.372743 
L 757.549537 355.552726 
L 763.755112 353.092674 
L 787.637265 344.072485 
L 795.806728 341.202425 
L 809.372514 336.69233 
L 830.627728 329.722184 
L 831.606242 329.312175 
L 833.574442 328.08215 
L 834.495897 327.672141 
L 837.030088 326.852124 
L 843.600759 325.212089 
L 849.877198 323.162046 
L 854.045229 321.522012 
L 859.79173 318.651952 
L 862.477098 317.011917 
L 864.19788 315.781891 
L 866.619405 313.731848 
L 869.772989 310.041771 
L 871.240798 307.171711 
L 871.917493 304.711659 
L 872.129887 303.071625 
L 872.145857 301.841599 
L 871.621292 298.56153 
L 870.824543 296.511487 
L 870.422645 295.69147 
L 869.110285 293.641427 
L 868.128461 292.411401 
L 867.313434 291.591384 
L 866.510205 290.771367 
L 864.107212 288.721324 
L 862.380731 287.491298 
L 856.476562 284.211229 
L 852.761062 282.571195 
L 848.43109 280.93116 
L 843.13913 279.291126 
L 838.30172 278.0611 
L 835.357224 277.241083 
L 833.331706 276.421066 
L 832.544382 276.011057 
L 832.02992 275.601048 
L 831.316565 275.19104 
L 828.136132 273.961014 
L 821.784387 271.910971 
L 797.965544 264.120807 
L 781.71742 258.380687 
L 768.6448 253.460584 
L 765.495976 252.230558 
L 739.457137 241.570334 
L 735.560901 239.9303 
L 733.549972 239.110283 
L 715.874612 231.730128 
L 712.864168 230.500102 
L 710.89103 229.680085 
L 708.240254 228.860067 
L 702.867934 227.220033 
L 700.191792 226.400016 
L 698.440049 225.579999 
L 697.935218 225.16999 
L 697.689624 224.759981 
L 697.579635 224.349973 
L 697.346246 223.939964 
L 696.92389 223.529956 
L 691.586742 220.659895 
L 688.954556 219.42987 
L 687.489061 218.609852 
L 685.6241 217.789835 
L 684.828421 217.379827 
L 681.954659 216.149801 
L 673.828729 212.459723 
L 671.992394 211.639706 
L 671.304232 211.229698 
L 665.712098 208.769646 
L 663.827975 207.949629 
L 663.120027 207.53962 
L 654.452988 203.849543 
L 651.635082 202.619517 
L 645.890184 200.159465 
L 635.578217 196.059379 
L 634.7413 195.649371 
L 628.729258 193.599328 
L 625.543279 192.369302 
L 623.01609 191.549285 
L 618.346377 189.90925 
L 612.454345 187.859207 
L 608.42221 186.629181 
L 607.30776 186.219173 
L 602.888061 184.989147 
L 601.94528 184.579138 
L 598.656099 183.759121 
L 592.746197 182.119087 
L 580.449566 179.249026 
L 571.520595 177.608992 
L 565.983308 176.788975 
L 552.105653 175.14894 
L 553.12579 174.738932 
L 560.283415 174.328923 
L 562.875093 173.918915 
L 562.542256 173.508906 
L 561.363352 173.098897 
L 554.482631 171.868872 
L 528.357734 167.768786 
L 503.480841 163.258691 
L 502.068014 162.848682 
L 497.166123 162.028665 
L 485.263648 159.568613 
L 481.226907 158.748596 
L 459.297895 154.64851 
L 450.983879 153.418484 
L 445.989588 152.598467 
L 442.592341 152.188459 
L 438.838335 150.958433 
L 433.439427 149.728407 
L 430.886093 148.90839 
L 428.3214 148.088373 
L 427.982885 147.678364 
L 427.148369 147.268355 
L 425.753637 146.858347 
L 423.07811 145.218312 
L 423.238732 144.808304 
L 421.973793 144.398295 
L 421.452239 143.988287 
L 419.787479 143.168269 
L 420.004402 142.758261 
L 417.896287 141.938244 
L 416.879428 141.118226 
L 415.844067 140.708218 
L 415.798141 140.298209 
L 416.059189 139.888201 
L 414.402501 138.248166 
L 415.089348 137.838157 
L 414.401509 137.428149 
L 413.582114 136.608132 
L 412.603315 136.198123 
L 412.594507 135.788114 
L 412.122611 135.378106 
L 410.108142 134.14808 
L 409.573092 133.738071 
L 408.262154 133.328063 
L 407.947688 132.918054 
L 407.16516 132.508046 
L 406.103516 132.098037 
L 406.601091 131.688028 
L 406.212828 131.27802 
L 404.849883 130.868011 
L 404.763036 130.458003 
L 404.217271 130.047994 
L 403.906007 129.637985 
L 403.82112 129.227977 
L 401.957662 127.997951 
L 402.425436 127.587942 
L 402.032238 127.177934 
L 400.806329 126.357917 
L 399.368469 125.537899 
L 399.02984 125.127891 
L 398.333131 124.717882 
L 397.966629 124.307874 
L 397.032618 123.897865 
L 396.39878 123.487856 
L 396.515193 123.077848 
L 394.812565 121.847822 
L 393.912096 121.437813 
L 393.861587 121.027805 
L 394.309201 120.617796 
L 393.042552 120.207788 
L 392.901082 119.797779 
L 392.093648 119.38777 
L 391.279023 118.567753 
L 391.407149 118.157745 
L 391.028098 117.747736 
L 391.290594 117.337727 
L 390.226003 116.927719 
L 389.939638 116.51771 
L 387.636867 115.697693 
L 387.934919 115.287684 
L 386.520076 114.467667 
L 386.060435 114.057658 
L 384.906585 113.64765 
L 384.574587 113.237641 
L 382.941239 112.417624 
L 386.701054 112.007615 
L 399.578823 111.187598 
L 404.532552 110.77759 
L 410.603934 109.957572 
L 414.731788 109.137555 
L 417.596414 108.317538 
L 418.429975 107.907529 
L 418.840417 107.497521 
L 420.239957 106.677504 
L 420.457789 106.267495 
L 420.704324 105.447478 
L 421.046143 105.037469 
L 421.06364 104.627461 
L 421.418871 103.807443 
L 420.910538 102.577418 
L 421.32115 100.937383 
L 420.846871 100.527375 
L 420.861184 100.117366 
L 420.662765 99.707357 
L 420.810037 99.297349 
L 420.247741 98.477332 
L 419.489288 97.247306 
L 419.442542 96.837297 
L 419.047574 96.01728 
L 418.98681 94.787254 
L 417.922038 93.14722 
L 417.646027 92.737211 
L 417.524944 92.327202 
L 417.524944 92.327202 
" clip-path="url(#p476a75ab6e)" style="fill: none; stroke-dasharray: 5.55,2.4; stroke-dashoffset: 0; stroke: #0504aa; stroke-width: 1.5"/>
   </g>
   <g id="patch_3">
    <path d="M 145.878875 522.405727 
L 145.878875 71.847273 
" style="fill: none; stroke: #000000; stroke-width: 0.8; stroke-linejoin: miter; stroke-linecap: square"/>
   </g>
   <g id="patch_4">
    <path d="M 947.8125 522.405727 
L 947.8125 71.847273 
" style="fill: none; stroke: #000000; stroke-width: 0.8; stroke-linejoin: miter; stroke-linecap: square"/>
   </g>
   <g id="patch_5">
    <path d="M 145.878875 522.405727 
L 947.8125 522.405727 
" style="fill: none; stroke: #000000; stroke-width: 0.8; stroke-linejoin: miter; stroke-linecap: square"/>
   </g>
   <g id="patch_6">
    <path d="M 145.878875 71.847273 
L 947.8125 71.847273 
" style="fill: none; stroke: #000000; stroke-width: 0.8; stroke-linejoin: miter; stroke-linecap: square"/>
   </g>
   <g id="text_15">
    <!-- Axial flux distribution at Irradiation Positions -->
    <g transform="translate(280.931313 65.847273) scale(0.24 -0.24)">
     <defs>
      <path id="DejaVuSans-66" d="M 2375 4863 
L 2375 4384 
L 1825 4384 
Q 1516 4384 1395 4259 
Q 1275 4134 1275 3809 
L 1275 3500 
L 2222 3500 
L 2222 3053 
L 1275 3053 
L 1275 0 
L 697 0 
L 697 3053 
L 147 3053 
L 147 3500 
L 697 3500 
L 697 3744 
Q 697 4328 969 4595 
Q 1241 4863 1831 4863 
L 2375 4863 
z
" transform="scale(0.015625)"/>
      <path id="DejaVuSans-64" d="M 2906 2969 
L 2906 4863 
L 3481 4863 
L 3481 0 
L 2906 0 
L 2906 525 
Q 2725 213 2448 61 
Q 2172 -91 1784 -91 
Q 1150 -91 751 415 
Q 353 922 353 1747 
Q 353 2572 751 3078 
Q 1150 3584 1784 3584 
Q 2172 3584 2448 3432 
Q 2725 3281 2906 2969 
z
M 947 1747 
Q 947 1113 1208 752 
Q 1469 391 1925 391 
Q 2381 391 2643 752 
Q 2906 1113 2906 1747 
Q 2906 2381 2643 2742 
Q 2381 3103 1925 3103 
Q 1469 3103 1208 2742 
Q 947 2381 947 1747 
z
" transform="scale(0.015625)"/>
      <path id="DejaVuSans-62" d="M 3116 1747 
Q 3116 2381 2855 2742 
Q 2594 3103 2138 3103 
Q 1681 3103 1420 2742 
Q 1159 2381 1159 1747 
Q 1159 1113 1420 752 
Q 1681 391 2138 391 
Q 2594 391 2855 752 
Q 3116 1113 3116 1747 
z
M 1159 2969 
Q 1341 3281 1617 3432 
Q 1894 3584 2278 3584 
Q 2916 3584 3314 3078 
Q 3713 2572 3713 1747 
Q 3713 922 3314 415 
Q 2916 -91 2278 -91 
Q 1894 -91 1617 61 
Q 1341 213 1159 525 
L 1159 0 
L 581 0 
L 581 4863 
L 1159 4863 
L 1159 2969 
z
" transform="scale(0.015625)"/>
      <path id="DejaVuSans-49" d="M 628 4666 
L 1259 4666 
L 1259 0 
L 628 0 
L 628 4666 
z
" transform="scale(0.015625)"/>
      <path id="DejaVuSans-50" d="M 1259 4147 
L 1259 2394 
L 2053 2394 
Q 2494 2394 2734 2622 
Q 2975 2850 2975 3272 
Q 2975 3691 2734 3919 
Q 2494 4147 2053 4147 
L 1259 4147 
z
M 628 4666 
L 2053 4666 
Q 2838 4666 3239 4311 
Q 3641 3956 3641 3272 
Q 3641 2581 3239 2228 
Q 2838 1875 2053 1875 
L 1259 1875 
L 1259 0 
L 628 0 
L 628 4666 
z
" transform="scale(0.015625)"/>
     </defs>
     <use xlink:href="#DejaVuSans-41"/>
     <use xlink:href="#DejaVuSans-78" x="68.408203"/>
     <use xlink:href="#DejaVuSans-69" x="127.587891"/>
     <use xlink:href="#DejaVuSans-61" x="155.371094"/>
     <use xlink:href="#DejaVuSans-6c" x="216.650391"/>
     <use xlink:href="#DejaVuSans-20" x="244.433594"/>
     <use xlink:href="#DejaVuSans-66" x="276.220703"/>
     <use xlink:href="#DejaVuSans-6c" x="311.425781"/>
     <use xlink:href="#DejaVuSans-75" x="339.208984"/>
     <use xlink:href="#DejaVuSans-78" x="402.587891"/>
     <use xlink:href="#DejaVuSans-20" x="461.767578"/>
     <use xlink:href="#DejaVuSans-64" x="493.554688"/>
     <use xlink:href="#DejaVuSans-69" x="557.03125"/>
     <use xlink:href="#DejaVuSans-73" x="584.814453"/>
     <use xlink:href="#DejaVuSans-74" x="636.914062"/>
     <use xlink:href="#DejaVuSans-72" x="676.123047"/>
     <use xlink:href="#DejaVuSans-69" x="717.236328"/>
     <use xlink:href="#DejaVuSans-62" x="745.019531"/>
     <use xlink:href="#DejaVuSans-75" x="808.496094"/>
     <use xlink:href="#DejaVuSans-74" x="871.875"/>
     <use xlink:href="#DejaVuSans-69" x="911.083984"/>
     <use xlink:href="#DejaVuSans-6f" x="938.867188"/>
     <use xlink:href="#DejaVuSans-6e" x="1000.048828"/>
     <use xlink:href="#DejaVuSans-20" x="1063.427734"/>
     <use xlink:href="#DejaVuSans-61" x="1095.214844"/>
     <use xlink:href="#DejaVuSans-74" x="1156.494141"/>
     <use xlink:href="#DejaVuSans-20" x="1195.703125"/>
     <use xlink:href="#DejaVuSans-49" x="1227.490234"/>
     <use xlink:href="#DejaVuSans-72" x="1256.982422"/>
     <use xlink:href="#DejaVuSans-72" x="1296.345703"/>
     <use xlink:href="#DejaVuSans-61" x="1337.458984"/>
     <use xlink:href="#DejaVuSans-64" x="1398.738281"/>
     <use xlink:href="#DejaVuSans-69" x="1462.214844"/>
     <use xlink:href="#DejaVuSans-61" x="1489.998047"/>
     <use xlink:href="#DejaVuSans-74" x="1551.277344"/>
     <use xlink:href="#DejaVuSans-69" x="1590.486328"/>
     <use xlink:href="#DejaVuSans-6f" x="1618.269531"/>
     <use xlink:href="#DejaVuSans-6e" x="1679.451172"/>
     <use xlink:href="#DejaVuSans-20" x="1742.830078"/>
     <use xlink:href="#DejaVuSans-50" x="1774.617188"/>
     <use xlink:href="#DejaVuSans-6f" x="1831.294922"/>
     <use xlink:href="#DejaVuSans-73" x="1892.476562"/>
     <use xlink:href="#DejaVuSans-69" x="1944.576172"/>
     <use xlink:href="#DejaVuSans-74" x="1972.359375"/>
     <use xlink:href="#DejaVuSans-69" x="2011.568359"/>
     <use xlink:href="#DejaVuSans-6f" x="2039.351562"/>
     <use xlink:href="#DejaVuSans-6e" x="2100.533203"/>
     <use xlink:href="#DejaVuSans-73" x="2163.912109"/>
    </g>
   </g>
   <g id="legend_1">
    <g id="patch_7">
     <path d="M 694.7 205.272273 
L 933.8125 205.272273 
Q 937.8125 205.272273 937.8125 201.272273 
L 937.8125 85.847273 
Q 937.8125 81.847273 933.8125 81.847273 
L 694.7 81.847273 
Q 690.7 81.847273 690.7 85.847273 
L 690.7 201.272273 
Q 690.7 205.272273 694.7 205.272273 
z
" style="fill: #ffffff; opacity: 0.8; stroke: #cccccc; stroke-width: 0.24; stroke-linejoin: miter"/>
    </g>
    <g id="line2d_107">
     <path d="M 698.7 98.044148 
L 718.7 98.044148 
L 738.7 98.044148 
" style="fill: none; stroke: #c04e01; stroke-width: 1.5; stroke-linecap: square"/>
    </g>
    <g id="text_16">
     <!-- Central - Thermal -->
     <g transform="translate(754.7 105.044148) scale(0.2 -0.2)">
      <defs>
       <path id="DejaVuSans-43" d="M 4122 4306 
L 4122 3641 
Q 3803 3938 3442 4084 
Q 3081 4231 2675 4231 
Q 1875 4231 1450 3742 
Q 1025 3253 1025 2328 
Q 1025 1406 1450 917 
Q 1875 428 2675 428 
Q 3081 428 3442 575 
Q 3803 722 4122 1019 
L 4122 359 
Q 3791 134 3420 21 
Q 3050 -91 2638 -91 
Q 1578 -91 968 557 
Q 359 1206 359 2328 
Q 359 3453 968 4101 
Q 1578 4750 2638 4750 
Q 3056 4750 3426 4639 
Q 3797 4528 4122 4306 
z
" transform="scale(0.015625)"/>
       <path id="DejaVuSans-2d" d="M 313 2009 
L 1997 2009 
L 1997 1497 
L 313 1497 
L 313 2009 
z
" transform="scale(0.015625)"/>
       <path id="DejaVuSans-54" d="M -19 4666 
L 3928 4666 
L 3928 4134 
L 2272 4134 
L 2272 0 
L 1638 0 
L 1638 4134 
L -19 4134 
L -19 4666 
z
" transform="scale(0.015625)"/>
       <path id="DejaVuSans-68" d="M 3513 2113 
L 3513 0 
L 2938 0 
L 2938 2094 
Q 2938 2591 2744 2837 
Q 2550 3084 2163 3084 
Q 1697 3084 1428 2787 
Q 1159 2491 1159 1978 
L 1159 0 
L 581 0 
L 581 4863 
L 1159 4863 
L 1159 2956 
Q 1366 3272 1645 3428 
Q 1925 3584 2291 3584 
Q 2894 3584 3203 3211 
Q 3513 2838 3513 2113 
z
" transform="scale(0.015625)"/>
      </defs>
      <use xlink:href="#DejaVuSans-43"/>
      <use xlink:href="#DejaVuSans-65" x="69.824219"/>
      <use xlink:href="#DejaVuSans-6e" x="131.347656"/>
      <use xlink:href="#DejaVuSans-74" x="194.726562"/>
      <use xlink:href="#DejaVuSans-72" x="233.935547"/>
      <use xlink:href="#DejaVuSans-61" x="275.048828"/>
      <use xlink:href="#DejaVuSans-6c" x="336.328125"/>
      <use xlink:href="#DejaVuSans-20" x="364.111328"/>
      <use xlink:href="#DejaVuSans-2d" x="395.898438"/>
      <use xlink:href="#DejaVuSans-20" x="431.982422"/>
      <use xlink:href="#DejaVuSans-54" x="463.769531"/>
      <use xlink:href="#DejaVuSans-68" x="524.853516"/>
      <use xlink:href="#DejaVuSans-65" x="588.232422"/>
      <use xlink:href="#DejaVuSans-72" x="649.755859"/>
      <use xlink:href="#DejaVuSans-6d" x="689.119141"/>
      <use xlink:href="#DejaVuSans-61" x="786.53125"/>
      <use xlink:href="#DejaVuSans-6c" x="847.810547"/>
     </g>
    </g>
    <g id="line2d_108">
     <path d="M 698.7 127.400398 
L 718.7 127.400398 
L 738.7 127.400398 
" style="fill: none; stroke: #0485d1; stroke-width: 1.5; stroke-linecap: square"/>
    </g>
    <g id="text_17">
     <!-- Central - Fast -->
     <g transform="translate(754.7 134.400398) scale(0.2 -0.2)">
      <use xlink:href="#DejaVuSans-43"/>
      <use xlink:href="#DejaVuSans-65" x="69.824219"/>
      <use xlink:href="#DejaVuSans-6e" x="131.347656"/>
      <use xlink:href="#DejaVuSans-74" x="194.726562"/>
      <use xlink:href="#DejaVuSans-72" x="233.935547"/>
      <use xlink:href="#DejaVuSans-61" x="275.048828"/>
      <use xlink:href="#DejaVuSans-6c" x="336.328125"/>
      <use xlink:href="#DejaVuSans-20" x="364.111328"/>
      <use xlink:href="#DejaVuSans-2d" x="395.898438"/>
      <use xlink:href="#DejaVuSans-20" x="431.982422"/>
      <use xlink:href="#DejaVuSans-46" x="463.769531"/>
      <use xlink:href="#DejaVuSans-61" x="512.164062"/>
      <use xlink:href="#DejaVuSans-73" x="573.443359"/>
      <use xlink:href="#DejaVuSans-74" x="625.542969"/>
     </g>
    </g>
    <g id="line2d_109">
     <path d="M 698.7 156.756648 
L 718.7 156.756648 
L 738.7 156.756648 
" style="fill: none; stroke-dasharray: 5.55,2.4; stroke-dashoffset: 0; stroke: #e50000; stroke-width: 1.5"/>
    </g>
    <g id="text_18">
     <!-- Fuel - Thermal -->
     <g transform="translate(754.7 163.756648) scale(0.2 -0.2)">
      <use xlink:href="#DejaVuSans-46"/>
      <use xlink:href="#DejaVuSans-75" x="52.019531"/>
      <use xlink:href="#DejaVuSans-65" x="115.398438"/>
      <use xlink:href="#DejaVuSans-6c" x="176.921875"/>
      <use xlink:href="#DejaVuSans-20" x="204.705078"/>
      <use xlink:href="#DejaVuSans-2d" x="236.492188"/>
      <use xlink:href="#DejaVuSans-20" x="272.576172"/>
      <use xlink:href="#DejaVuSans-54" x="304.363281"/>
      <use xlink:href="#DejaVuSans-68" x="365.447266"/>
      <use xlink:href="#DejaVuSans-65" x="428.826172"/>
      <use xlink:href="#DejaVuSans-72" x="490.349609"/>
      <use xlink:href="#DejaVuSans-6d" x="529.712891"/>
      <use xlink:href="#DejaVuSans-61" x="627.125"/>
      <use xlink:href="#DejaVuSans-6c" x="688.404297"/>
     </g>
    </g>
    <g id="line2d_110">
     <path d="M 698.7 186.112898 
L 718.7 186.112898 
L 738.7 186.112898 
" style="fill: none; stroke-dasharray: 5.55,2.4; stroke-dashoffset: 0; stroke: #0504aa; stroke-width: 1.5"/>
    </g>
    <g id="text_19">
     <!-- Fuel - Fast -->
     <g transform="translate(754.7 193.112898) scale(0.2 -0.2)">
      <use xlink:href="#DejaVuSans-46"/>
      <use xlink:href="#DejaVuSans-75" x="52.019531"/>
      <use xlink:href="#DejaVuSans-65" x="115.398438"/>
      <use xlink:href="#DejaVuSans-6c" x="176.921875"/>
      <use xlink:href="#DejaVuSans-20" x="204.705078"/>
      <use xlink:href="#DejaVuSans-2d" x="236.492188"/>
      <use xlink:href="#DejaVuSans-20" x="272.576172"/>
      <use xlink:href="#DejaVuSans-46" x="304.363281"/>
      <use xlink:href="#DejaVuSans-61" x="352.757812"/>
      <use xlink:href="#DejaVuSans-73" x="414.037109"/>
      <use xlink:href="#DejaVuSans-74" x="466.136719"/>
     </g>
    </g>
   </g>
  </g>
 </g>
 <defs>
  <clipPath id="p476a75ab6e">
   <rect x="145.878875" y="71.847273" width="801.933625" height="450.558455"/>
  </clipPath>
 </defs>
</svg>
